%TF.GenerationSoftware,KiCad,Pcbnew,(5.1.10)-1*%
%TF.CreationDate,2021-12-13T23:16:41-03:00*%
%TF.ProjectId,Placa Digital,506c6163-6120-4446-9967-6974616c2e6b,V01*%
%TF.SameCoordinates,Original*%
%TF.FileFunction,Soldermask,Bot*%
%TF.FilePolarity,Negative*%
%FSLAX46Y46*%
G04 Gerber Fmt 4.6, Leading zero omitted, Abs format (unit mm)*
G04 Created by KiCad (PCBNEW (5.1.10)-1) date 2021-12-13 23:16:41*
%MOMM*%
%LPD*%
G01*
G04 APERTURE LIST*
%ADD10C,1.511600*%
%ADD11C,1.701600*%
%ADD12O,1.801600X1.801600*%
%ADD13C,1.599600*%
%ADD14C,1.291600*%
%ADD15C,1.319600*%
G04 APERTURE END LIST*
D10*
%TO.C,Q2*%
X152563500Y-90043000D03*
X152563500Y-87503000D03*
G36*
G01*
X151858500Y-84207200D02*
X153268500Y-84207200D01*
G75*
G02*
X153319300Y-84258000I0J-50800D01*
G01*
X153319300Y-85668000D01*
G75*
G02*
X153268500Y-85718800I-50800J0D01*
G01*
X151858500Y-85718800D01*
G75*
G02*
X151807700Y-85668000I0J50800D01*
G01*
X151807700Y-84258000D01*
G75*
G02*
X151858500Y-84207200I50800J0D01*
G01*
G37*
%TD*%
D11*
%TO.C,U1*%
X126467000Y-85725000D03*
X126467000Y-88265000D03*
X126467000Y-90805000D03*
X126467000Y-93345000D03*
X126467000Y-95885000D03*
X126467000Y-98425000D03*
X126467000Y-100965000D03*
X126467000Y-103505000D03*
X126467000Y-106045000D03*
X126467000Y-108585000D03*
X126467000Y-111125000D03*
X126467000Y-113665000D03*
X126467000Y-116205000D03*
X126467000Y-118745000D03*
X126467000Y-121285000D03*
X126467000Y-123825000D03*
X126467000Y-126365000D03*
X126467000Y-128905000D03*
X126467000Y-131445000D03*
X103967000Y-131445000D03*
X103967000Y-128905000D03*
X103967000Y-126365000D03*
X103967000Y-123825000D03*
X103967000Y-121285000D03*
X103967000Y-118745000D03*
X103967000Y-116205000D03*
X103967000Y-113665000D03*
X103967000Y-111125000D03*
X103967000Y-108585000D03*
X103967000Y-106045000D03*
X103967000Y-103505000D03*
X103967000Y-100965000D03*
X103967000Y-98425000D03*
X103967000Y-95885000D03*
X103967000Y-93345000D03*
X103967000Y-90805000D03*
X103967000Y-88265000D03*
G36*
G01*
X103116200Y-86525000D02*
X103116200Y-84925000D01*
G75*
G02*
X103167000Y-84874200I50800J0D01*
G01*
X104767000Y-84874200D01*
G75*
G02*
X104817800Y-84925000I0J-50800D01*
G01*
X104817800Y-86525000D01*
G75*
G02*
X104767000Y-86575800I-50800J0D01*
G01*
X103167000Y-86575800D01*
G75*
G02*
X103116200Y-86525000I0J50800D01*
G01*
G37*
%TD*%
D12*
%TO.C,J3*%
X92837000Y-133350000D03*
X95377000Y-133350000D03*
G36*
G01*
X97067000Y-132449200D02*
X98767000Y-132449200D01*
G75*
G02*
X98817800Y-132500000I0J-50800D01*
G01*
X98817800Y-134200000D01*
G75*
G02*
X98767000Y-134250800I-50800J0D01*
G01*
X97067000Y-134250800D01*
G75*
G02*
X97016200Y-134200000I0J50800D01*
G01*
X97016200Y-132500000D01*
G75*
G02*
X97067000Y-132449200I50800J0D01*
G01*
G37*
%TD*%
%TO.C,J2*%
X89662000Y-76454000D03*
X89662000Y-78994000D03*
X89662000Y-81534000D03*
X89662000Y-84074000D03*
X89662000Y-86614000D03*
X89662000Y-89154000D03*
X89662000Y-91694000D03*
G36*
G01*
X90562800Y-93384000D02*
X90562800Y-95084000D01*
G75*
G02*
X90512000Y-95134800I-50800J0D01*
G01*
X88812000Y-95134800D01*
G75*
G02*
X88761200Y-95084000I0J50800D01*
G01*
X88761200Y-93384000D01*
G75*
G02*
X88812000Y-93333200I50800J0D01*
G01*
X90512000Y-93333200D01*
G75*
G02*
X90562800Y-93384000I0J-50800D01*
G01*
G37*
%TD*%
%TO.C,J1*%
X96520000Y-121920000D03*
X96520000Y-119380000D03*
X96520000Y-116840000D03*
X96520000Y-114300000D03*
X96520000Y-111760000D03*
X96520000Y-109220000D03*
X96520000Y-106680000D03*
X96520000Y-104140000D03*
X96520000Y-101600000D03*
G36*
G01*
X95619200Y-99910000D02*
X95619200Y-98210000D01*
G75*
G02*
X95670000Y-98159200I50800J0D01*
G01*
X97370000Y-98159200D01*
G75*
G02*
X97420800Y-98210000I0J-50800D01*
G01*
X97420800Y-99910000D01*
G75*
G02*
X97370000Y-99960800I-50800J0D01*
G01*
X95670000Y-99960800D01*
G75*
G02*
X95619200Y-99910000I0J50800D01*
G01*
G37*
%TD*%
D10*
%TO.C,Q5*%
X152690500Y-98806000D03*
X152690500Y-96266000D03*
G36*
G01*
X151985500Y-92970200D02*
X153395500Y-92970200D01*
G75*
G02*
X153446300Y-93021000I0J-50800D01*
G01*
X153446300Y-94431000D01*
G75*
G02*
X153395500Y-94481800I-50800J0D01*
G01*
X151985500Y-94481800D01*
G75*
G02*
X151934700Y-94431000I0J50800D01*
G01*
X151934700Y-93021000D01*
G75*
G02*
X151985500Y-92970200I50800J0D01*
G01*
G37*
%TD*%
D13*
%TO.C,Buttom_3*%
X148896000Y-114209000D03*
X155396000Y-114209000D03*
X148896000Y-118709000D03*
G36*
G01*
X156195800Y-117960000D02*
X156195800Y-119458000D01*
G75*
G02*
X156145000Y-119508800I-50800J0D01*
G01*
X154647000Y-119508800D01*
G75*
G02*
X154596200Y-119458000I0J50800D01*
G01*
X154596200Y-117960000D01*
G75*
G02*
X154647000Y-117909200I50800J0D01*
G01*
X156145000Y-117909200D01*
G75*
G02*
X156195800Y-117960000I0J-50800D01*
G01*
G37*
%TD*%
%TO.C,Buttom_2*%
X148896000Y-121702000D03*
X155396000Y-121702000D03*
X148896000Y-126202000D03*
G36*
G01*
X156195800Y-125453000D02*
X156195800Y-126951000D01*
G75*
G02*
X156145000Y-127001800I-50800J0D01*
G01*
X154647000Y-127001800D01*
G75*
G02*
X154596200Y-126951000I0J50800D01*
G01*
X154596200Y-125453000D01*
G75*
G02*
X154647000Y-125402200I50800J0D01*
G01*
X156145000Y-125402200D01*
G75*
G02*
X156195800Y-125453000I0J-50800D01*
G01*
G37*
%TD*%
%TO.C,Buttom_1*%
X148896000Y-128941000D03*
X155396000Y-128941000D03*
X148896000Y-133441000D03*
G36*
G01*
X156195800Y-132692000D02*
X156195800Y-134190000D01*
G75*
G02*
X156145000Y-134240800I-50800J0D01*
G01*
X154647000Y-134240800D01*
G75*
G02*
X154596200Y-134190000I0J50800D01*
G01*
X154596200Y-132692000D01*
G75*
G02*
X154647000Y-132641200I50800J0D01*
G01*
X156145000Y-132641200D01*
G75*
G02*
X156195800Y-132692000I0J-50800D01*
G01*
G37*
%TD*%
D14*
%TO.C,R50*%
X148721000Y-83933000D03*
X137791000Y-83933000D03*
%TD*%
%TO.C,R46*%
X148848000Y-92456000D03*
X137918000Y-92456000D03*
%TD*%
D12*
%TO.C,U2*%
X133985000Y-103505000D03*
X133985000Y-106045000D03*
X133985000Y-108585000D03*
X133985000Y-111125000D03*
G36*
G01*
X134885800Y-112815000D02*
X134885800Y-114515000D01*
G75*
G02*
X134835000Y-114565800I-50800J0D01*
G01*
X133135000Y-114565800D01*
G75*
G02*
X133084200Y-114515000I0J50800D01*
G01*
X133084200Y-112815000D01*
G75*
G02*
X133135000Y-112764200I50800J0D01*
G01*
X134835000Y-112764200D01*
G75*
G02*
X134885800Y-112815000I0J-50800D01*
G01*
G37*
%TD*%
%TO.C,U3*%
X161290000Y-132334000D03*
X161290000Y-129794000D03*
X161290000Y-127254000D03*
X161290000Y-124714000D03*
X161290000Y-122174000D03*
X161290000Y-119634000D03*
X161290000Y-117094000D03*
X161290000Y-114554000D03*
X161290000Y-112014000D03*
X161290000Y-109474000D03*
X161290000Y-106934000D03*
X161290000Y-104394000D03*
X161290000Y-101854000D03*
X161290000Y-99314000D03*
X161290000Y-96774000D03*
X161290000Y-94234000D03*
X161290000Y-91694000D03*
X161290000Y-89154000D03*
X161290000Y-86614000D03*
G36*
G01*
X160389200Y-84924000D02*
X160389200Y-83224000D01*
G75*
G02*
X160440000Y-83173200I50800J0D01*
G01*
X162140000Y-83173200D01*
G75*
G02*
X162190800Y-83224000I0J-50800D01*
G01*
X162190800Y-84924000D01*
G75*
G02*
X162140000Y-84974800I-50800J0D01*
G01*
X160440000Y-84974800D01*
G75*
G02*
X160389200Y-84924000I0J50800D01*
G01*
G37*
%TD*%
D15*
%TO.C,U31*%
X146177000Y-103632000D03*
X146177000Y-106172000D03*
G36*
G01*
X146786000Y-109371800D02*
X145568000Y-109371800D01*
G75*
G02*
X145517200Y-109321000I0J50800D01*
G01*
X145517200Y-108103000D01*
G75*
G02*
X145568000Y-108052200I50800J0D01*
G01*
X146786000Y-108052200D01*
G75*
G02*
X146836800Y-108103000I0J-50800D01*
G01*
X146836800Y-109321000D01*
G75*
G02*
X146786000Y-109371800I-50800J0D01*
G01*
G37*
%TD*%
D14*
%TO.C,R51*%
X137791000Y-87503000D03*
X148721000Y-87503000D03*
%TD*%
%TO.C,R47*%
X137918000Y-96266000D03*
X148848000Y-96266000D03*
%TD*%
%TO.C,R49*%
X136013000Y-118491000D03*
X146943000Y-118491000D03*
%TD*%
%TO.C,R48*%
X136013000Y-125857000D03*
X146943000Y-125857000D03*
%TD*%
%TO.C,R53*%
X136013000Y-133096000D03*
X146943000Y-133096000D03*
%TD*%
M02*
