M48
; DRILL file {KiCad (6.0.0)} date Mon Feb 28 16:43:29 2022
; FORMAT={-:-/ absolute / inch / decimal}
; #@! TF.CreationDate,2022-02-28T16:43:29-03:00
; #@! TF.GenerationSoftware,Kicad,Pcbnew,(6.0.0)
; #@! TF.FileFunction,Plated,1,2,PTH
FMAT,2
INCH
; #@! TA.AperFunction,Plated,PTH,ComponentDrill
T1C0.0157
; #@! TA.AperFunction,Plated,PTH,ComponentDrill
T2C0.0280
; #@! TA.AperFunction,Plated,PTH,ComponentDrill
T3C0.0311
; #@! TA.AperFunction,Plated,PTH,ComponentDrill
T4C0.0370
; #@! TA.AperFunction,Plated,PTH,ComponentDrill
T5C0.0390
; #@! TA.AperFunction,Plated,PTH,ComponentDrill
T6C0.0394
; #@! TA.AperFunction,Plated,PTH,ComponentDrill
T7C0.0551
; #@! TA.AperFunction,Plated,PTH,ComponentDrill
T8C0.0866
%
G90
G05
T1
X4.4802Y-2.5245
X4.4802Y-5.287
X4.4992Y-2.4786
X4.4992Y-2.5704
X4.4992Y-5.241
X4.4992Y-5.3329
X4.5452Y-2.4595
X4.5452Y-2.5895
X4.5452Y-5.222
X4.5452Y-5.3519
X4.5911Y-2.4786
X4.5911Y-2.5704
X4.5911Y-5.241
X4.5911Y-5.3329
X4.6101Y-2.5245
X4.6101Y-5.287
X6.4421Y-2.5311
X6.4487Y-5.287
X6.4612Y-2.4851
X6.4612Y-2.577
X6.4677Y-5.241
X6.4677Y-5.3329
X6.5071Y-2.4661
X6.5071Y-2.596
X6.5137Y-5.222
X6.5137Y-5.3519
X6.553Y-2.4851
X6.553Y-2.577
X6.5596Y-5.241
X6.5596Y-5.3329
X6.5721Y-2.5311
X6.5786Y-5.287
T2
X4.8454Y-2.7665
X4.9454Y-2.7665
X5.0454Y-2.7665
T3
X4.9648Y-3.635
X4.9648Y-3.81
X5.3952Y-3.635
X5.3952Y-3.81
X5.6556Y-4.1464
X5.6556Y-4.5007
X5.7398Y-3.5773
X5.7398Y-3.7352
X5.7398Y-3.9102
X6.0859Y-4.1464
X6.0859Y-4.5007
X6.1702Y-3.5773
X6.1702Y-3.7352
X6.1702Y-3.9102
T4
X5.4199Y-4.0477
X5.4199Y-4.1477
X5.4199Y-4.2477
X5.4199Y-4.4021
X5.4199Y-4.5021
X5.4199Y-4.6021
T5
X5.5414Y-3.057
X5.5414Y-3.313
X5.7186Y-3.057
X5.7186Y-3.313
X5.9414Y-3.057
X5.9414Y-3.313
X6.1186Y-3.057
X6.1186Y-3.313
X6.3414Y-3.057
X6.3414Y-3.313
X6.5186Y-3.057
X6.5186Y-3.313
T6
X4.6306Y-2.9592
X4.6306Y-3.0592
X4.6306Y-3.1592
X4.6306Y-3.2592
X4.6306Y-3.3592
X4.6306Y-3.4592
X4.6306Y-3.5592
X4.6306Y-3.6592
X4.6306Y-3.7592
X4.6306Y-3.8592
X4.6306Y-3.9592
X4.6306Y-4.0592
X4.6306Y-4.1592
X4.6306Y-4.2592
X4.6306Y-4.3592
X4.6306Y-4.4592
X4.6306Y-4.5592
X4.6306Y-4.6592
X4.6306Y-4.7592
X4.6306Y-4.8592
X4.9542Y-5.0322
X5.0542Y-5.0322
X5.1542Y-5.0322
X5.2542Y-5.0322
X5.3542Y-5.0322
X5.6237Y-5.0362
X5.7237Y-5.0362
X5.8237Y-5.0362
X5.9237Y-5.0362
X6.0237Y-5.0362
X6.1237Y-5.0362
X6.2237Y-5.0362
X6.3237Y-5.0362
T7
X5.3331Y-2.56
X5.53Y-2.56
X5.7269Y-2.56
T8
X4.5452Y-2.5245
X4.5452Y-5.287
X6.5071Y-2.5311
X6.5137Y-5.287
T0
M30
