M48
; DRILL file {KiCad (6.0.0)} date Fri Feb 11 13:05:33 2022
; FORMAT={-:-/ absolute / inch / decimal}
; #@! TF.CreationDate,2022-02-11T13:05:33-03:00
; #@! TF.GenerationSoftware,Kicad,Pcbnew,(6.0.0)
; #@! TF.FileFunction,Plated,1,2,PTH
FMAT,2
INCH
; #@! TA.AperFunction,Plated,PTH,ViaDrill
T1C0.0118
; #@! TA.AperFunction,Plated,PTH,ComponentDrill
T2C0.0157
; #@! TA.AperFunction,Plated,PTH,ComponentDrill
T3C0.0280
; #@! TA.AperFunction,Plated,PTH,ComponentDrill
T4C0.0311
; #@! TA.AperFunction,Plated,PTH,ComponentDrill
T5C0.0370
; #@! TA.AperFunction,Plated,PTH,ComponentDrill
T6C0.0390
; #@! TA.AperFunction,Plated,PTH,ComponentDrill
T7C0.0394
; #@! TA.AperFunction,Plated,PTH,ComponentDrill
T8C0.0551
; #@! TA.AperFunction,Plated,PTH,ComponentDrill
T9C0.0866
%
G90
G05
T1
X4.6503Y-3.359
X4.6682Y-3.4592
X4.8471Y-3.3767
X4.9298Y-3.4594
X5.7192Y-3.3846
X5.8078Y-3.4673
X5.9081Y-4.4771
X5.9081Y-4.672
X5.9318Y-3.9555
X6.1148Y-3.9555
X6.2546Y-3.2527
X6.2546Y-3.4673
T2
X4.4802Y-2.5245
X4.4802Y-5.287
X4.4992Y-2.4786
X4.4992Y-2.5704
X4.4992Y-5.241
X4.4992Y-5.3329
X4.5452Y-2.4595
X4.5452Y-2.5895
X4.5452Y-5.222
X4.5452Y-5.3519
X4.5911Y-2.4786
X4.5911Y-2.5704
X4.5911Y-5.241
X4.5911Y-5.3329
X4.6101Y-2.5245
X4.6101Y-5.287
X6.4421Y-2.5311
X6.4487Y-5.287
X6.4612Y-2.4851
X6.4612Y-2.577
X6.4677Y-5.241
X6.4677Y-5.3329
X6.5071Y-2.4661
X6.5071Y-2.596
X6.5137Y-5.222
X6.5137Y-5.3519
X6.553Y-2.4851
X6.553Y-2.577
X6.5596Y-5.241
X6.5596Y-5.3329
X6.5721Y-2.5311
X6.5786Y-5.287
T3
X4.955Y-4.46
X4.955Y-4.56
X4.955Y-4.66
T4
X4.9648Y-3.635
X4.9648Y-3.81
X5.1648Y-4.435
X5.3952Y-3.635
X5.3952Y-3.81
X5.5952Y-4.435
X5.7398Y-3.635
X5.7398Y-3.81
X5.7648Y-4.285
X5.7648Y-4.435
X6.1702Y-3.635
X6.1702Y-3.81
X6.1952Y-4.285
X6.1952Y-4.435
T5
X5.0964Y-4.035
X5.0964Y-4.135
X5.0964Y-4.235
X5.4636Y-4.035
X5.4636Y-4.135
X5.4636Y-4.235
T6
X5.5414Y-3.057
X5.5414Y-3.313
X5.7186Y-3.057
X5.7186Y-3.313
X5.9414Y-3.057
X5.9414Y-3.313
X6.1186Y-3.057
X6.1186Y-3.313
X6.3414Y-3.057
X6.3414Y-3.313
X6.5186Y-3.057
X6.5186Y-3.313
T7
X4.5452Y-2.9592
X4.5452Y-3.0592
X4.5452Y-3.1592
X4.5452Y-3.2592
X4.5452Y-3.3592
X4.5452Y-3.4592
X4.5452Y-3.5592
X4.5452Y-3.6592
X4.5452Y-3.7592
X4.5452Y-3.8592
X4.5452Y-3.9592
X4.5452Y-4.0592
X4.5452Y-4.1592
X4.5452Y-4.2592
X4.5452Y-4.3592
X4.5452Y-4.4592
X4.5452Y-4.5592
X4.5452Y-4.6592
X4.5452Y-4.7592
X4.5452Y-4.8592
X5.355Y-5.035
X5.455Y-5.035
X5.555Y-5.035
X5.655Y-5.035
X5.755Y-5.035
X6.405Y-3.6844
X6.405Y-3.7844
X6.405Y-3.8844
X6.405Y-3.9844
X6.405Y-4.0844
X6.405Y-4.1844
X6.405Y-4.2844
X6.405Y-4.3844
T8
X5.3331Y-2.56
X5.53Y-2.56
X5.7269Y-2.56
T9
X4.5452Y-2.5245
X4.5452Y-5.287
X6.5071Y-2.5311
X6.5137Y-5.287
T0
M30
