%TF.GenerationSoftware,KiCad,Pcbnew,(5.1.10)-1*%
%TF.CreationDate,2021-12-13T23:16:41-03:00*%
%TF.ProjectId,Placa Digital,506c6163-6120-4446-9967-6974616c2e6b,V01*%
%TF.SameCoordinates,Original*%
%TF.FileFunction,Copper,L2,Bot*%
%TF.FilePolarity,Positive*%
%FSLAX46Y46*%
G04 Gerber Fmt 4.6, Leading zero omitted, Abs format (unit mm)*
G04 Created by KiCad (PCBNEW (5.1.10)-1) date 2021-12-13 23:16:41*
%MOMM*%
%LPD*%
G01*
G04 APERTURE LIST*
%TA.AperFunction,ComponentPad*%
%ADD10C,1.410000*%
%TD*%
%TA.AperFunction,ComponentPad*%
%ADD11R,1.410000X1.410000*%
%TD*%
%TA.AperFunction,ComponentPad*%
%ADD12C,1.600000*%
%TD*%
%TA.AperFunction,ComponentPad*%
%ADD13R,1.600000X1.600000*%
%TD*%
%TA.AperFunction,ComponentPad*%
%ADD14O,1.700000X1.700000*%
%TD*%
%TA.AperFunction,ComponentPad*%
%ADD15R,1.700000X1.700000*%
%TD*%
%TA.AperFunction,ComponentPad*%
%ADD16C,1.498000*%
%TD*%
%TA.AperFunction,ComponentPad*%
%ADD17R,1.498000X1.498000*%
%TD*%
%TA.AperFunction,ComponentPad*%
%ADD18C,1.190000*%
%TD*%
%TA.AperFunction,ComponentPad*%
%ADD19C,1.218000*%
%TD*%
%TA.AperFunction,ComponentPad*%
%ADD20R,1.218000X1.218000*%
%TD*%
%TA.AperFunction,ViaPad*%
%ADD21C,0.800000*%
%TD*%
%TA.AperFunction,Conductor*%
%ADD22C,0.600000*%
%TD*%
%TA.AperFunction,Conductor*%
%ADD23C,0.254000*%
%TD*%
%TA.AperFunction,Conductor*%
%ADD24C,0.100000*%
%TD*%
G04 APERTURE END LIST*
D10*
%TO.P,Q2,3*%
%TO.N,GND*%
X152563500Y-90043000D03*
%TO.P,Q2,2*%
%TO.N,Net-(Q2-Pad2)*%
X152563500Y-87503000D03*
D11*
%TO.P,Q2,1*%
%TO.N,Net-(Q2-Pad1)*%
X152563500Y-84963000D03*
%TD*%
D12*
%TO.P,U1,38*%
%TO.N,Net-(U1-Pad38)*%
X126467000Y-85725000D03*
%TO.P,U1,37*%
%TO.N,Net-(U1-Pad37)*%
X126467000Y-88265000D03*
%TO.P,U1,36*%
%TO.N,Net-(U1-Pad36)*%
X126467000Y-90805000D03*
%TO.P,U1,35*%
%TO.N,/fromMicroC_A6841ST1*%
X126467000Y-93345000D03*
%TO.P,U1,34*%
%TO.N,/fromMicroC_A6841SerialDataIN*%
X126467000Y-95885000D03*
%TO.P,U1,33*%
%TO.N,/fromMicroC_A6841CLK1*%
X126467000Y-98425000D03*
%TO.P,U1,32*%
%TO.N,/HMI/fromMicroC_DisplaySID*%
X126467000Y-100965000D03*
%TO.P,U1,31*%
%TO.N,/HMI/fromMicroC_DisplaySCLK*%
X126467000Y-103505000D03*
%TO.P,U1,30*%
%TO.N,/HMI/toMicroC_EncoderButton*%
X126467000Y-106045000D03*
%TO.P,U1,29*%
%TO.N,/HMI/toMicroC_EncoderSignalB*%
X126467000Y-108585000D03*
%TO.P,U1,28*%
%TO.N,/HMI/toMicroC_EncoderSignalA*%
X126467000Y-111125000D03*
%TO.P,U1,27*%
%TO.N,/fromMicroC_DACI2C_SDA*%
X126467000Y-113665000D03*
%TO.P,U1,26*%
%TO.N,GND*%
X126467000Y-116205000D03*
%TO.P,U1,25*%
%TO.N,/fromMicroC_DACI2C_SCL*%
X126467000Y-118745000D03*
%TO.P,U1,24*%
%TO.N,/toMicroC_OverVoltageSignal*%
X126467000Y-121285000D03*
%TO.P,U1,23*%
%TO.N,/HMI/toMicroC_Button3*%
X126467000Y-123825000D03*
%TO.P,U1,22*%
%TO.N,/HMI/toMicroC_Button2*%
X126467000Y-126365000D03*
%TO.P,U1,21*%
%TO.N,/HMI/toMicroC_Button1*%
X126467000Y-128905000D03*
%TO.P,U1,20*%
%TO.N,GND*%
X126467000Y-131445000D03*
%TO.P,U1,19*%
%TO.N,+5V*%
X103967000Y-131445000D03*
%TO.P,U1,18*%
%TO.N,/toMicroC_ADC_BUSY*%
X103967000Y-128905000D03*
%TO.P,U1,17*%
%TO.N,/fromMicroC_ADC_CONV*%
X103967000Y-126365000D03*
%TO.P,U1,16*%
%TO.N,/fromMicroC_ADC_RST*%
X103967000Y-123825000D03*
%TO.P,U1,15*%
%TO.N,/fromMicroC_ADC_RD*%
X103967000Y-121285000D03*
%TO.P,U1,14*%
%TO.N,GND*%
X103967000Y-118745000D03*
%TO.P,U1,13*%
%TO.N,/toMicroC_ADC_DB7*%
X103967000Y-116205000D03*
%TO.P,U1,12*%
%TO.N,/toMicroC_ADC_DB6*%
X103967000Y-113665000D03*
%TO.P,U1,11*%
%TO.N,/toMicroC_ADC_DB5*%
X103967000Y-111125000D03*
%TO.P,U1,10*%
%TO.N,/toMicroC_ADC_DB4*%
X103967000Y-108585000D03*
%TO.P,U1,9*%
%TO.N,/toMicroC_ADC_DB3*%
X103967000Y-106045000D03*
%TO.P,U1,8*%
%TO.N,/toMicroC_ADC_DB2*%
X103967000Y-103505000D03*
%TO.P,U1,7*%
%TO.N,/toMicroC_ADC_DB1*%
X103967000Y-100965000D03*
%TO.P,U1,6*%
%TO.N,/toMicroC_ADC_DB0*%
X103967000Y-98425000D03*
%TO.P,U1,5*%
%TO.N,Net-(U1-Pad5)*%
X103967000Y-95885000D03*
%TO.P,U1,4*%
%TO.N,Net-(U1-Pad4)*%
X103967000Y-93345000D03*
%TO.P,U1,3*%
%TO.N,Net-(U1-Pad3)*%
X103967000Y-90805000D03*
%TO.P,U1,2*%
%TO.N,Net-(U1-Pad2)*%
X103967000Y-88265000D03*
D13*
%TO.P,U1,1*%
%TO.N,Net-(U1-Pad1)*%
X103967000Y-85725000D03*
%TD*%
D14*
%TO.P,J3,3*%
%TO.N,+5V*%
X92837000Y-133350000D03*
%TO.P,J3,2*%
%TO.N,+3.3V*%
X95377000Y-133350000D03*
D15*
%TO.P,J3,1*%
%TO.N,GND*%
X97917000Y-133350000D03*
%TD*%
D14*
%TO.P,J2,8*%
%TO.N,/fromMicroC_A6841ST1*%
X89662000Y-76454000D03*
%TO.P,J2,7*%
%TO.N,/fromMicroC_A6841SerialDataIN*%
X89662000Y-78994000D03*
%TO.P,J2,6*%
%TO.N,/fromMicroC_A6841CLK1*%
X89662000Y-81534000D03*
%TO.P,J2,5*%
%TO.N,/fromMicroC_DACI2C_SDA*%
X89662000Y-84074000D03*
%TO.P,J2,4*%
%TO.N,/fromMicroC_DACI2C_SCL*%
X89662000Y-86614000D03*
%TO.P,J2,3*%
%TO.N,/fromMicroC_ADC_RD*%
X89662000Y-89154000D03*
%TO.P,J2,2*%
%TO.N,/fromMicroC_ADC_RST*%
X89662000Y-91694000D03*
D15*
%TO.P,J2,1*%
%TO.N,/fromMicroC_ADC_CONV*%
X89662000Y-94234000D03*
%TD*%
D14*
%TO.P,J1,10*%
%TO.N,/toMicroC_ADC_DB7*%
X96520000Y-121920000D03*
%TO.P,J1,9*%
%TO.N,/toMicroC_ADC_DB6*%
X96520000Y-119380000D03*
%TO.P,J1,8*%
%TO.N,/toMicroC_ADC_DB5*%
X96520000Y-116840000D03*
%TO.P,J1,7*%
%TO.N,/toMicroC_ADC_DB4*%
X96520000Y-114300000D03*
%TO.P,J1,6*%
%TO.N,/toMicroC_ADC_DB3*%
X96520000Y-111760000D03*
%TO.P,J1,5*%
%TO.N,/toMicroC_ADC_DB2*%
X96520000Y-109220000D03*
%TO.P,J1,4*%
%TO.N,/toMicroC_ADC_DB1*%
X96520000Y-106680000D03*
%TO.P,J1,3*%
%TO.N,/toMicroC_ADC_DB0*%
X96520000Y-104140000D03*
%TO.P,J1,2*%
%TO.N,/toMicroC_ADC_BUSY*%
X96520000Y-101600000D03*
D15*
%TO.P,J1,1*%
%TO.N,/toMicroC_OverVoltageSignal*%
X96520000Y-99060000D03*
%TD*%
D10*
%TO.P,Q5,3*%
%TO.N,GND*%
X152690500Y-98806000D03*
%TO.P,Q5,2*%
%TO.N,Net-(Q5-Pad2)*%
X152690500Y-96266000D03*
D11*
%TO.P,Q5,1*%
%TO.N,Net-(Q5-Pad1)*%
X152690500Y-93726000D03*
%TD*%
D16*
%TO.P,Buttom_3,4*%
%TO.N,/HMI/toMicroC_Button3*%
X148896000Y-114209000D03*
%TO.P,Buttom_3,2*%
%TO.N,+3.3V*%
X155396000Y-114209000D03*
%TO.P,Buttom_3,3*%
%TO.N,/HMI/toMicroC_Button3*%
X148896000Y-118709000D03*
D17*
%TO.P,Buttom_3,1*%
%TO.N,+3.3V*%
X155396000Y-118709000D03*
%TD*%
D16*
%TO.P,Buttom_2,4*%
%TO.N,/HMI/toMicroC_Button2*%
X148896000Y-121702000D03*
%TO.P,Buttom_2,2*%
%TO.N,+3.3V*%
X155396000Y-121702000D03*
%TO.P,Buttom_2,3*%
%TO.N,/HMI/toMicroC_Button2*%
X148896000Y-126202000D03*
D17*
%TO.P,Buttom_2,1*%
%TO.N,+3.3V*%
X155396000Y-126202000D03*
%TD*%
D16*
%TO.P,Buttom_1,4*%
%TO.N,/HMI/toMicroC_Button1*%
X148896000Y-128941000D03*
%TO.P,Buttom_1,2*%
%TO.N,+3.3V*%
X155396000Y-128941000D03*
%TO.P,Buttom_1,3*%
%TO.N,/HMI/toMicroC_Button1*%
X148896000Y-133441000D03*
D17*
%TO.P,Buttom_1,1*%
%TO.N,+3.3V*%
X155396000Y-133441000D03*
%TD*%
D18*
%TO.P,R50,2*%
%TO.N,Net-(Q2-Pad1)*%
X148721000Y-83933000D03*
%TO.P,R50,1*%
%TO.N,+5V*%
X137791000Y-83933000D03*
%TD*%
%TO.P,R46,2*%
%TO.N,Net-(Q5-Pad1)*%
X148848000Y-92456000D03*
%TO.P,R46,1*%
%TO.N,+5V*%
X137918000Y-92456000D03*
%TD*%
D14*
%TO.P,U2,5*%
%TO.N,+3.3V*%
X133985000Y-103505000D03*
%TO.P,U2,4*%
%TO.N,/HMI/toMicroC_EncoderButton*%
X133985000Y-106045000D03*
%TO.P,U2,3*%
%TO.N,/HMI/toMicroC_EncoderSignalB*%
X133985000Y-108585000D03*
%TO.P,U2,2*%
%TO.N,/HMI/toMicroC_EncoderSignalA*%
X133985000Y-111125000D03*
D15*
%TO.P,U2,1*%
%TO.N,GND*%
X133985000Y-113665000D03*
%TD*%
D14*
%TO.P,U3,20*%
%TO.N,GND*%
X161290000Y-132334000D03*
%TO.P,U3,19*%
%TO.N,+3.3V*%
X161290000Y-129794000D03*
%TO.P,U3,18*%
%TO.N,Net-(U3-Pad18)*%
X161290000Y-127254000D03*
%TO.P,U3,17*%
%TO.N,+5V*%
X161290000Y-124714000D03*
%TO.P,U3,16*%
%TO.N,Net-(U3-Pad16)*%
X161290000Y-122174000D03*
%TO.P,U3,15*%
%TO.N,GND*%
X161290000Y-119634000D03*
%TO.P,U3,14*%
%TO.N,Net-(U3-Pad14)*%
X161290000Y-117094000D03*
%TO.P,U3,13*%
%TO.N,Net-(U3-Pad13)*%
X161290000Y-114554000D03*
%TO.P,U3,12*%
%TO.N,Net-(U3-Pad12)*%
X161290000Y-112014000D03*
%TO.P,U3,11*%
%TO.N,Net-(U3-Pad11)*%
X161290000Y-109474000D03*
%TO.P,U3,10*%
%TO.N,Net-(U3-Pad10)*%
X161290000Y-106934000D03*
%TO.P,U3,9*%
%TO.N,Net-(U3-Pad9)*%
X161290000Y-104394000D03*
%TO.P,U3,8*%
%TO.N,Net-(U3-Pad8)*%
X161290000Y-101854000D03*
%TO.P,U3,7*%
%TO.N,Net-(U3-Pad7)*%
X161290000Y-99314000D03*
%TO.P,U3,6*%
%TO.N,Net-(Q5-Pad1)*%
X161290000Y-96774000D03*
%TO.P,U3,5*%
%TO.N,Net-(Q2-Pad1)*%
X161290000Y-94234000D03*
%TO.P,U3,4*%
%TO.N,+5V*%
X161290000Y-91694000D03*
%TO.P,U3,3*%
%TO.N,Net-(U3-Pad3)*%
X161290000Y-89154000D03*
%TO.P,U3,2*%
%TO.N,+5V*%
X161290000Y-86614000D03*
D15*
%TO.P,U3,1*%
%TO.N,GND*%
X161290000Y-84074000D03*
%TD*%
D19*
%TO.P,U31,3*%
%TO.N,GND*%
X146177000Y-103632000D03*
%TO.P,U31,2*%
%TO.N,Net-(U3-Pad3)*%
X146177000Y-106172000D03*
D20*
%TO.P,U31,1*%
%TO.N,+5V*%
X146177000Y-108712000D03*
%TD*%
D18*
%TO.P,R51,2*%
%TO.N,/HMI/fromMicroC_DisplaySID*%
X137791000Y-87503000D03*
%TO.P,R51,1*%
%TO.N,Net-(Q2-Pad2)*%
X148721000Y-87503000D03*
%TD*%
%TO.P,R47,2*%
%TO.N,/HMI/fromMicroC_DisplaySCLK*%
X137918000Y-96266000D03*
%TO.P,R47,1*%
%TO.N,Net-(Q5-Pad2)*%
X148848000Y-96266000D03*
%TD*%
%TO.P,R49,2*%
%TO.N,GND*%
X136013000Y-118491000D03*
%TO.P,R49,1*%
%TO.N,/HMI/toMicroC_Button3*%
X146943000Y-118491000D03*
%TD*%
%TO.P,R48,2*%
%TO.N,GND*%
X136013000Y-125857000D03*
%TO.P,R48,1*%
%TO.N,/HMI/toMicroC_Button2*%
X146943000Y-125857000D03*
%TD*%
%TO.P,R53,2*%
%TO.N,GND*%
X136013000Y-133096000D03*
%TO.P,R53,1*%
%TO.N,/HMI/toMicroC_Button1*%
X146943000Y-133096000D03*
%TD*%
D21*
%TO.N,*%
X157734000Y-105537000D03*
X157734000Y-95250000D03*
%TO.N,/fromMicroC_DACI2C_SCL*%
X121031000Y-116967000D03*
X121031000Y-120142000D03*
%TO.N,/toMicroC_OverVoltageSignal*%
X108331000Y-117348000D03*
X108331000Y-120396000D03*
%TO.N,/toMicroC_ADC_BUSY*%
X92075000Y-124968000D03*
X92075000Y-129032000D03*
%TO.N,Net-(U3-Pad3)*%
X154178000Y-106172000D03*
X157861000Y-90551000D03*
%TO.N,GND*%
X140843000Y-106680000D03*
X140716000Y-112268000D03*
%TD*%
D22*
%TO.N,*%
X157734000Y-95250000D02*
X157734000Y-95250000D01*
X157734000Y-105537000D02*
X157734000Y-105664000D01*
X157734000Y-95250000D02*
X157734000Y-105537000D01*
%TO.N,Net-(Q2-Pad2)*%
X148721000Y-87503000D02*
X152563500Y-87503000D01*
%TO.N,/HMI/toMicroC_Button1*%
X148896000Y-133441000D02*
X148896000Y-128941000D01*
X126467000Y-128905000D02*
X130937000Y-133375000D01*
X130937000Y-133375000D02*
X130937000Y-134620000D01*
X130937000Y-134620000D02*
X133858000Y-137541000D01*
X142498000Y-137541000D02*
X146943000Y-133096000D01*
X133858000Y-137541000D02*
X142498000Y-137541000D01*
X147288000Y-133441000D02*
X146943000Y-133096000D01*
X148896000Y-133441000D02*
X147288000Y-133441000D01*
%TO.N,/HMI/toMicroC_Button2*%
X148896000Y-126202000D02*
X148896000Y-121702000D01*
X146943000Y-127123000D02*
X146943000Y-125857000D01*
X137668000Y-136398000D02*
X146943000Y-127123000D01*
X134747000Y-136461500D02*
X137668000Y-136461500D01*
X132334000Y-133985000D02*
X134747000Y-136398000D01*
X132334000Y-132232000D02*
X132334000Y-133985000D01*
X126467000Y-126365000D02*
X132334000Y-132232000D01*
X147288000Y-126202000D02*
X146943000Y-125857000D01*
X148896000Y-126202000D02*
X147288000Y-126202000D01*
%TO.N,/HMI/toMicroC_Button3*%
X148896000Y-118709000D02*
X148896000Y-114209000D01*
X127219602Y-123825000D02*
X126467000Y-123825000D01*
X126467000Y-123825000D02*
X133731000Y-131089000D01*
X133731000Y-132434602D02*
X133858000Y-132561602D01*
X133731000Y-131089000D02*
X133731000Y-132434602D01*
X133858000Y-132561602D02*
X133858000Y-133731000D01*
X133858000Y-133731000D02*
X135509000Y-135382000D01*
X135509000Y-135382000D02*
X137160000Y-135382000D01*
X137160000Y-135382000D02*
X139573000Y-132969000D01*
X139573000Y-132969000D02*
X139573000Y-122936000D01*
X144018000Y-118491000D02*
X146943000Y-118491000D01*
X139573000Y-122936000D02*
X144018000Y-118491000D01*
X148678000Y-118491000D02*
X148896000Y-118709000D01*
X146943000Y-118491000D02*
X148678000Y-118491000D01*
%TO.N,/HMI/fromMicroC_DisplaySCLK*%
X133706000Y-96266000D02*
X126467000Y-103505000D01*
X137918000Y-96266000D02*
X133706000Y-96266000D01*
%TO.N,/HMI/fromMicroC_DisplaySID*%
X126467000Y-100965000D02*
X131953000Y-95479000D01*
X131953000Y-93341000D02*
X137791000Y-87503000D01*
X131953000Y-95479000D02*
X131953000Y-93341000D01*
%TO.N,/HMI/toMicroC_EncoderButton*%
X126467000Y-106045000D02*
X133985000Y-106045000D01*
%TO.N,/HMI/toMicroC_EncoderSignalB*%
X133985000Y-108585000D02*
X126467000Y-108585000D01*
%TO.N,/HMI/toMicroC_EncoderSignalA*%
X126467000Y-111125000D02*
X133985000Y-111125000D01*
%TO.N,Net-(Q2-Pad1)*%
X151533500Y-83933000D02*
X152563500Y-84963000D01*
X148721000Y-83933000D02*
X151533500Y-83933000D01*
X152563500Y-84963000D02*
X155829000Y-84963000D01*
X155829000Y-84963000D02*
X158877000Y-81915000D01*
X161731002Y-81915000D02*
X163322000Y-83505998D01*
X158877000Y-81915000D02*
X161731002Y-81915000D01*
X163322000Y-92202000D02*
X161290000Y-94234000D01*
X163322000Y-83505998D02*
X163322000Y-92202000D01*
%TO.N,Net-(Q5-Pad1)*%
X151420500Y-92456000D02*
X152690500Y-93726000D01*
X148848000Y-92456000D02*
X151420500Y-92456000D01*
X158242000Y-93726000D02*
X161290000Y-96774000D01*
X152690500Y-93726000D02*
X158242000Y-93726000D01*
%TO.N,Net-(Q5-Pad2)*%
X148848000Y-96266000D02*
X152690500Y-96266000D01*
%TO.N,/fromMicroC_A6841ST1*%
X89789000Y-76581000D02*
X89662000Y-76454000D01*
X103759000Y-76581000D02*
X89789000Y-76581000D01*
X118162997Y-84424999D02*
X111602999Y-84424999D01*
X111602999Y-84424999D02*
X103759000Y-76581000D01*
X126467000Y-92729002D02*
X118162997Y-84424999D01*
X126467000Y-93345000D02*
X126467000Y-92729002D01*
%TO.N,/fromMicroC_A6841SerialDataIN*%
X89662000Y-78994000D02*
X103632000Y-78994000D01*
X126467000Y-95885000D02*
X115951000Y-85369000D01*
X115951000Y-85369000D02*
X111277000Y-85369000D01*
X104902000Y-78994000D02*
X103632000Y-78994000D01*
X111277000Y-85369000D02*
X104902000Y-78994000D01*
%TO.N,/fromMicroC_A6841CLK1*%
X89662000Y-81534000D02*
X105040616Y-81534000D01*
X126376616Y-98425000D02*
X126467000Y-98425000D01*
X126467000Y-98425000D02*
X114554000Y-86512000D01*
X114554000Y-86512000D02*
X111288616Y-86512000D01*
X106310616Y-81534000D02*
X105040616Y-81534000D01*
X111288616Y-86512000D02*
X106310616Y-81534000D01*
%TO.N,/fromMicroC_DACI2C_SDA*%
X119126000Y-106324000D02*
X126467000Y-113665000D01*
X119126000Y-95504000D02*
X119126000Y-106324000D01*
X105956010Y-82334010D02*
X119126000Y-95504000D01*
X97878990Y-82334010D02*
X105956010Y-82334010D01*
X96139000Y-84074000D02*
X97878990Y-82334010D01*
X89662000Y-84074000D02*
X96139000Y-84074000D01*
%TO.N,/fromMicroC_DACI2C_SCL*%
X126467000Y-118745000D02*
X125070000Y-120142000D01*
X125070000Y-120142000D02*
X121031000Y-120142000D01*
X121031000Y-116967000D02*
X121031000Y-116967000D01*
X121031000Y-120142000D02*
X121031000Y-120142000D01*
X117602000Y-107823000D02*
X121031000Y-111252000D01*
X121031000Y-111252000D02*
X121031000Y-116967000D01*
X117602000Y-95515616D02*
X117602000Y-107823000D01*
X105711373Y-83624989D02*
X117602000Y-95515616D01*
X99890011Y-83624989D02*
X105711373Y-83624989D01*
X96901000Y-86614000D02*
X99890011Y-83624989D01*
X89662000Y-86614000D02*
X96901000Y-86614000D01*
%TO.N,/toMicroC_OverVoltageSignal*%
X96520000Y-99060000D02*
X96520000Y-90678000D01*
X102766999Y-84424999D02*
X105379999Y-84424999D01*
X96520000Y-90671998D02*
X102766999Y-84424999D01*
X96520000Y-90678000D02*
X96520000Y-90671998D01*
X105379999Y-84424999D02*
X108331000Y-87376000D01*
X108331000Y-87376000D02*
X108331000Y-117348000D01*
X126467000Y-121285000D02*
X109220000Y-121285000D01*
X109220000Y-121285000D02*
X108331000Y-120396000D01*
X108331000Y-117348000D02*
X108331000Y-117348000D01*
X108331000Y-120396000D02*
X108331000Y-120396000D01*
%TO.N,/toMicroC_ADC_BUSY*%
X96520000Y-101600000D02*
X92075000Y-106045000D01*
X92075000Y-106045000D02*
X92075000Y-124968000D01*
X92075000Y-124968000D02*
X92075000Y-124968000D01*
X103967000Y-128905000D02*
X92202000Y-128905000D01*
X92202000Y-128905000D02*
X92075000Y-129032000D01*
X92075000Y-129032000D02*
X92075000Y-129032000D01*
%TO.N,/fromMicroC_ADC_CONV*%
X103967000Y-126365000D02*
X101854000Y-126365000D01*
X101854000Y-126365000D02*
X100203000Y-128016000D01*
X89523384Y-128016000D02*
X87872384Y-126365000D01*
X100203000Y-128016000D02*
X89523384Y-128016000D01*
X87872384Y-96023616D02*
X89662000Y-94234000D01*
X87872384Y-126365000D02*
X87872384Y-96023616D01*
%TO.N,/fromMicroC_ADC_RST*%
X103967000Y-123825000D02*
X102997000Y-123825000D01*
X99695000Y-127127000D02*
X90170000Y-127127000D01*
X102997000Y-123825000D02*
X99695000Y-127127000D01*
X90170000Y-127127000D02*
X89027000Y-125984000D01*
X89027000Y-125984000D02*
X89027000Y-98171000D01*
X91012001Y-93044001D02*
X89662000Y-91694000D01*
X91012001Y-96185999D02*
X91012001Y-93044001D01*
X89027000Y-98171000D02*
X91012001Y-96185999D01*
%TO.N,/fromMicroC_ADC_RD*%
X103967000Y-121285000D02*
X99060000Y-126192000D01*
X99060000Y-126192000D02*
X98979000Y-126192000D01*
X98844010Y-126238000D02*
X90766990Y-126238000D01*
X90170000Y-125603000D02*
X90766990Y-126199990D01*
X90170000Y-98679000D02*
X90170000Y-125603000D01*
X92075000Y-96774000D02*
X90170000Y-98679000D01*
X92075000Y-91567000D02*
X92075000Y-96774000D01*
X89662000Y-89154000D02*
X92075000Y-91567000D01*
%TO.N,/toMicroC_ADC_DB7*%
X98252000Y-121920000D02*
X103967000Y-116205000D01*
X96520000Y-121920000D02*
X98252000Y-121920000D01*
%TO.N,/toMicroC_ADC_DB6*%
X98252000Y-119380000D02*
X103967000Y-113665000D01*
X96520000Y-119380000D02*
X98252000Y-119380000D01*
%TO.N,/toMicroC_ADC_DB5*%
X98252000Y-116840000D02*
X103967000Y-111125000D01*
X96520000Y-116840000D02*
X98252000Y-116840000D01*
%TO.N,/toMicroC_ADC_DB4*%
X98252000Y-114300000D02*
X103967000Y-108585000D01*
X96520000Y-114300000D02*
X98252000Y-114300000D01*
%TO.N,/toMicroC_ADC_DB3*%
X98252000Y-111760000D02*
X103967000Y-106045000D01*
X96520000Y-111760000D02*
X98252000Y-111760000D01*
%TO.N,/toMicroC_ADC_DB2*%
X98252000Y-109220000D02*
X103967000Y-103505000D01*
X96520000Y-109220000D02*
X98252000Y-109220000D01*
%TO.N,/toMicroC_ADC_DB1*%
X98252000Y-106680000D02*
X103967000Y-100965000D01*
X96520000Y-106680000D02*
X98252000Y-106680000D01*
%TO.N,/toMicroC_ADC_DB0*%
X98252000Y-104140000D02*
X103967000Y-98425000D01*
X96520000Y-104140000D02*
X98252000Y-104140000D01*
%TO.N,Net-(U3-Pad3)*%
X161290000Y-89154000D02*
X159258000Y-89154000D01*
X159258000Y-89154000D02*
X157861000Y-90551000D01*
X146177000Y-106172000D02*
X154178000Y-106172000D01*
X154178000Y-106172000D02*
X154178000Y-106172000D01*
X157861000Y-90551000D02*
X157861000Y-90551000D01*
%TO.N,+3.3V*%
X155396000Y-114209000D02*
X155396000Y-118709000D01*
X155396000Y-121702000D02*
X155396000Y-126202000D01*
X155396000Y-128941000D02*
X155396000Y-133441000D01*
X155269000Y-128814000D02*
X155396000Y-128941000D01*
X155396000Y-126202000D02*
X155396000Y-128941000D01*
X155396000Y-118709000D02*
X155396000Y-120598000D01*
X155396000Y-120598000D02*
X155396000Y-121702000D01*
X155396000Y-114209000D02*
X153455000Y-112268000D01*
X142748000Y-112268000D02*
X133985000Y-103505000D01*
X153455000Y-112268000D02*
X142748000Y-112268000D01*
X160437000Y-128941000D02*
X161290000Y-129794000D01*
X155396000Y-128941000D02*
X160437000Y-128941000D01*
X100956009Y-138929009D02*
X149907991Y-138929009D01*
X149907991Y-138929009D02*
X150133500Y-138703500D01*
X95377000Y-133350000D02*
X100956009Y-138929009D01*
X150133500Y-138703500D02*
X155396000Y-133441000D01*
X149907989Y-138929011D02*
X150133500Y-138703500D01*
%TO.N,GND*%
X123927000Y-118745000D02*
X126467000Y-116205000D01*
X135632000Y-126238000D02*
X136013000Y-125857000D01*
X129007000Y-113665000D02*
X126467000Y-116205000D01*
X133985000Y-113665000D02*
X129007000Y-113665000D01*
X106553000Y-118745000D02*
X106553000Y-119950002D01*
X103967000Y-118745000D02*
X106553000Y-118745000D01*
X106553000Y-118745000D02*
X123927000Y-118745000D01*
X133985000Y-113665000D02*
X134747000Y-113665000D01*
X136013000Y-114931000D02*
X136013000Y-118491000D01*
X134747000Y-113665000D02*
X136013000Y-114931000D01*
X136013000Y-118491000D02*
X136013000Y-125857000D01*
X136013000Y-125857000D02*
X136013000Y-133096000D01*
X146177000Y-103632000D02*
X153543000Y-103632000D01*
X153543000Y-103632000D02*
X159512000Y-109601000D01*
X159512000Y-117856000D02*
X161290000Y-119634000D01*
X159512000Y-109601000D02*
X159512000Y-117856000D01*
X152690500Y-102779500D02*
X153543000Y-103632000D01*
X152690500Y-98806000D02*
X152690500Y-102779500D01*
X155321000Y-90043000D02*
X161290000Y-84074000D01*
X152563500Y-90043000D02*
X155321000Y-90043000D01*
X146177000Y-103632000D02*
X142621000Y-103632000D01*
X142621000Y-103632000D02*
X140843000Y-105410000D01*
X140843000Y-105410000D02*
X140843000Y-106553000D01*
X133985000Y-113665000D02*
X139319000Y-113665000D01*
X139319000Y-113665000D02*
X140716000Y-112268000D01*
X140716000Y-112268000D02*
X140716000Y-112268000D01*
X97917000Y-133350000D02*
X105283000Y-133350000D01*
X111665499Y-126967501D02*
X111665499Y-125062501D01*
X105283000Y-133350000D02*
X111665499Y-126967501D01*
X106553000Y-119950002D02*
X111665499Y-125062501D01*
X118047998Y-131445000D02*
X111665499Y-125062501D01*
X126467000Y-131445000D02*
X118047998Y-131445000D01*
%TO.N,+5V*%
X137795000Y-92456000D02*
X137918000Y-92456000D01*
X137918000Y-92456000D02*
X139827000Y-92456000D01*
X141986000Y-88128000D02*
X137791000Y-83933000D01*
X141986000Y-90297000D02*
X141986000Y-88128000D01*
X151034098Y-90297000D02*
X152431098Y-91694000D01*
X155702000Y-91694000D02*
X161290000Y-91694000D01*
X156210000Y-91694000D02*
X155702000Y-91694000D01*
X155007919Y-91694000D02*
X154559000Y-91694000D01*
X160087919Y-86614000D02*
X155007919Y-91694000D01*
X161290000Y-86614000D02*
X160087919Y-86614000D01*
X154559000Y-91694000D02*
X155702000Y-91694000D01*
X152431098Y-91694000D02*
X154559000Y-91694000D01*
X141732000Y-90551000D02*
X141986000Y-90297000D01*
X151747522Y-108712000D02*
X158115000Y-115079478D01*
X146177000Y-108712000D02*
X151747522Y-108712000D01*
X158115000Y-121539000D02*
X161290000Y-124714000D01*
X158115000Y-115079478D02*
X158115000Y-121539000D01*
X163449000Y-126873000D02*
X161290000Y-124714000D01*
X163449000Y-132368960D02*
X163449000Y-126873000D01*
X155863960Y-139954000D02*
X163449000Y-132368960D01*
X146177000Y-108712000D02*
X141097000Y-108712000D01*
X141097000Y-108712000D02*
X139446000Y-107061000D01*
X139827000Y-92456000D02*
X141732000Y-90551000D01*
X139446000Y-107061000D02*
X139446000Y-96901000D01*
X139446000Y-96901000D02*
X146050000Y-90297000D01*
X146431000Y-90297000D02*
X151034098Y-90297000D01*
X146050000Y-90297000D02*
X146431000Y-90297000D01*
X141986000Y-90297000D02*
X146431000Y-90297000D01*
X94742000Y-131445000D02*
X103967000Y-131445000D01*
X92837000Y-133350000D02*
X94742000Y-131445000D01*
X92837000Y-133350000D02*
X99314000Y-139827000D01*
X124587000Y-139827000D02*
X99314000Y-139827000D01*
X124714000Y-139954000D02*
X124587000Y-139827000D01*
X155863960Y-139954000D02*
X124714000Y-139954000D01*
%TD*%
D23*
%TO.N,GND*%
X163830000Y-82691709D02*
X162424632Y-81286341D01*
X162395346Y-81250656D01*
X162252974Y-81133814D01*
X162090542Y-81046993D01*
X161914294Y-80993529D01*
X161776934Y-80980000D01*
X161731002Y-80975476D01*
X161685070Y-80980000D01*
X158922932Y-80980000D01*
X158877000Y-80975476D01*
X158831068Y-80980000D01*
X158693708Y-80993529D01*
X158517460Y-81046993D01*
X158355028Y-81133814D01*
X158212656Y-81250656D01*
X158183370Y-81286341D01*
X155441711Y-84028000D01*
X153862303Y-84028000D01*
X153858002Y-84013820D01*
X153799037Y-83903506D01*
X153719685Y-83806815D01*
X153622994Y-83727463D01*
X153512680Y-83668498D01*
X153392982Y-83632188D01*
X153268500Y-83619928D01*
X152542717Y-83619928D01*
X152227130Y-83304341D01*
X152197844Y-83268656D01*
X152055472Y-83151814D01*
X151893040Y-83064993D01*
X151716792Y-83011529D01*
X151579432Y-82998000D01*
X151533500Y-82993476D01*
X151487568Y-82998000D01*
X149525482Y-82998000D01*
X149505079Y-82977597D01*
X149303623Y-82842989D01*
X149079778Y-82750269D01*
X148842144Y-82703000D01*
X148599856Y-82703000D01*
X148362222Y-82750269D01*
X148138377Y-82842989D01*
X147936921Y-82977597D01*
X147765597Y-83148921D01*
X147630989Y-83350377D01*
X147538269Y-83574222D01*
X147491000Y-83811856D01*
X147491000Y-84054144D01*
X147538269Y-84291778D01*
X147630989Y-84515623D01*
X147765597Y-84717079D01*
X147936921Y-84888403D01*
X148138377Y-85023011D01*
X148362222Y-85115731D01*
X148599856Y-85163000D01*
X148842144Y-85163000D01*
X149079778Y-85115731D01*
X149303623Y-85023011D01*
X149505079Y-84888403D01*
X149525482Y-84868000D01*
X151146211Y-84868000D01*
X151220428Y-84942217D01*
X151220428Y-85668000D01*
X151232688Y-85792482D01*
X151268998Y-85912180D01*
X151327963Y-86022494D01*
X151407315Y-86119185D01*
X151504006Y-86198537D01*
X151614320Y-86257502D01*
X151734018Y-86293812D01*
X151858500Y-86306072D01*
X151951550Y-86306072D01*
X151928772Y-86315507D01*
X151709300Y-86462154D01*
X151603454Y-86568000D01*
X149525482Y-86568000D01*
X149505079Y-86547597D01*
X149303623Y-86412989D01*
X149079778Y-86320269D01*
X148842144Y-86273000D01*
X148599856Y-86273000D01*
X148362222Y-86320269D01*
X148138377Y-86412989D01*
X147936921Y-86547597D01*
X147765597Y-86718921D01*
X147630989Y-86920377D01*
X147538269Y-87144222D01*
X147491000Y-87381856D01*
X147491000Y-87624144D01*
X147538269Y-87861778D01*
X147630989Y-88085623D01*
X147765597Y-88287079D01*
X147936921Y-88458403D01*
X148138377Y-88593011D01*
X148362222Y-88685731D01*
X148599856Y-88733000D01*
X148842144Y-88733000D01*
X149079778Y-88685731D01*
X149303623Y-88593011D01*
X149505079Y-88458403D01*
X149525482Y-88438000D01*
X151603454Y-88438000D01*
X151709300Y-88543846D01*
X151928772Y-88690493D01*
X152131181Y-88774334D01*
X151980385Y-88829330D01*
X151878330Y-88883879D01*
X151818262Y-89118157D01*
X152563500Y-89863395D01*
X153308738Y-89118157D01*
X153248670Y-88883879D01*
X153009370Y-88772482D01*
X153003656Y-88771088D01*
X153198228Y-88690493D01*
X153417700Y-88543846D01*
X153604346Y-88357200D01*
X153750993Y-88137728D01*
X153852005Y-87893864D01*
X153903500Y-87634979D01*
X153903500Y-87371021D01*
X153852005Y-87112136D01*
X153750993Y-86868272D01*
X153604346Y-86648800D01*
X153417700Y-86462154D01*
X153198228Y-86315507D01*
X153175450Y-86306072D01*
X153268500Y-86306072D01*
X153392982Y-86293812D01*
X153512680Y-86257502D01*
X153622994Y-86198537D01*
X153719685Y-86119185D01*
X153799037Y-86022494D01*
X153858002Y-85912180D01*
X153862303Y-85898000D01*
X155783068Y-85898000D01*
X155829000Y-85902524D01*
X155874932Y-85898000D01*
X156012292Y-85884471D01*
X156188540Y-85831007D01*
X156350972Y-85744186D01*
X156493344Y-85627344D01*
X156522630Y-85591659D01*
X159264289Y-82850000D01*
X159925471Y-82850000D01*
X159909463Y-82869506D01*
X159850498Y-82979820D01*
X159814188Y-83099518D01*
X159801928Y-83224000D01*
X159805000Y-83788250D01*
X159963750Y-83947000D01*
X161163000Y-83947000D01*
X161163000Y-83927000D01*
X161417000Y-83927000D01*
X161417000Y-83947000D01*
X161437000Y-83947000D01*
X161437000Y-84201000D01*
X161417000Y-84201000D01*
X161417000Y-84221000D01*
X161163000Y-84221000D01*
X161163000Y-84201000D01*
X159963750Y-84201000D01*
X159805000Y-84359750D01*
X159801928Y-84924000D01*
X159814188Y-85048482D01*
X159850498Y-85168180D01*
X159909463Y-85278494D01*
X159988815Y-85375185D01*
X160085506Y-85454537D01*
X160195820Y-85513502D01*
X160268380Y-85535513D01*
X160136525Y-85667368D01*
X160129068Y-85678529D01*
X160087919Y-85674476D01*
X160041987Y-85679000D01*
X159904627Y-85692529D01*
X159728379Y-85745993D01*
X159565947Y-85832814D01*
X159423575Y-85949656D01*
X159394289Y-85985341D01*
X154620630Y-90759000D01*
X153602377Y-90759000D01*
X153722621Y-90728170D01*
X153834018Y-90488870D01*
X153896591Y-90232437D01*
X153907933Y-89968724D01*
X153867610Y-89707865D01*
X153777170Y-89459885D01*
X153722621Y-89357830D01*
X153488343Y-89297762D01*
X152743105Y-90043000D01*
X152757248Y-90057143D01*
X152577643Y-90236748D01*
X152563500Y-90222605D01*
X152549358Y-90236748D01*
X152369753Y-90057143D01*
X152383895Y-90043000D01*
X151638657Y-89297762D01*
X151404379Y-89357830D01*
X151374022Y-89423043D01*
X151217390Y-89375529D01*
X151080030Y-89362000D01*
X151034098Y-89357476D01*
X150988166Y-89362000D01*
X146095931Y-89362000D01*
X146049999Y-89357476D01*
X146004067Y-89362000D01*
X142921000Y-89362000D01*
X142921000Y-88173932D01*
X142925524Y-88128000D01*
X142907471Y-87944708D01*
X142903006Y-87929990D01*
X142854007Y-87768460D01*
X142767186Y-87606028D01*
X142650344Y-87463656D01*
X142614659Y-87434370D01*
X139021000Y-83840711D01*
X139021000Y-83811856D01*
X138973731Y-83574222D01*
X138881011Y-83350377D01*
X138746403Y-83148921D01*
X138575079Y-82977597D01*
X138373623Y-82842989D01*
X138149778Y-82750269D01*
X137912144Y-82703000D01*
X137669856Y-82703000D01*
X137432222Y-82750269D01*
X137208377Y-82842989D01*
X137006921Y-82977597D01*
X136835597Y-83148921D01*
X136700989Y-83350377D01*
X136608269Y-83574222D01*
X136561000Y-83811856D01*
X136561000Y-84054144D01*
X136608269Y-84291778D01*
X136700989Y-84515623D01*
X136835597Y-84717079D01*
X137006921Y-84888403D01*
X137208377Y-85023011D01*
X137432222Y-85115731D01*
X137669856Y-85163000D01*
X137698711Y-85163000D01*
X141051001Y-88515290D01*
X141051000Y-89909711D01*
X139439711Y-91521000D01*
X138722482Y-91521000D01*
X138702079Y-91500597D01*
X138500623Y-91365989D01*
X138276778Y-91273269D01*
X138039144Y-91226000D01*
X137796856Y-91226000D01*
X137559222Y-91273269D01*
X137335377Y-91365989D01*
X137133921Y-91500597D01*
X136962597Y-91671921D01*
X136827989Y-91873377D01*
X136735269Y-92097222D01*
X136688000Y-92334856D01*
X136688000Y-92577144D01*
X136735269Y-92814778D01*
X136827989Y-93038623D01*
X136962597Y-93240079D01*
X137133921Y-93411403D01*
X137335377Y-93546011D01*
X137559222Y-93638731D01*
X137796856Y-93686000D01*
X138039144Y-93686000D01*
X138276778Y-93638731D01*
X138500623Y-93546011D01*
X138702079Y-93411403D01*
X138722482Y-93391000D01*
X139781068Y-93391000D01*
X139827000Y-93395524D01*
X139872932Y-93391000D01*
X140010292Y-93377471D01*
X140186540Y-93324007D01*
X140348972Y-93237186D01*
X140491344Y-93120344D01*
X140520630Y-93084659D01*
X142373289Y-91232000D01*
X143792710Y-91232000D01*
X139103511Y-95921200D01*
X139100731Y-95907222D01*
X139008011Y-95683377D01*
X138873403Y-95481921D01*
X138702079Y-95310597D01*
X138500623Y-95175989D01*
X138276778Y-95083269D01*
X138039144Y-95036000D01*
X137796856Y-95036000D01*
X137559222Y-95083269D01*
X137335377Y-95175989D01*
X137133921Y-95310597D01*
X137113518Y-95331000D01*
X133751932Y-95331000D01*
X133706000Y-95326476D01*
X133660068Y-95331000D01*
X133522708Y-95344529D01*
X133346460Y-95397993D01*
X133184028Y-95484814D01*
X133041656Y-95601656D01*
X133012370Y-95637341D01*
X132825290Y-95824421D01*
X132874472Y-95662292D01*
X132892524Y-95479000D01*
X132888000Y-95433065D01*
X132888000Y-93728289D01*
X137883289Y-88733000D01*
X137912144Y-88733000D01*
X138149778Y-88685731D01*
X138373623Y-88593011D01*
X138575079Y-88458403D01*
X138746403Y-88287079D01*
X138881011Y-88085623D01*
X138973731Y-87861778D01*
X139021000Y-87624144D01*
X139021000Y-87381856D01*
X138973731Y-87144222D01*
X138881011Y-86920377D01*
X138746403Y-86718921D01*
X138575079Y-86547597D01*
X138373623Y-86412989D01*
X138149778Y-86320269D01*
X137912144Y-86273000D01*
X137669856Y-86273000D01*
X137432222Y-86320269D01*
X137208377Y-86412989D01*
X137006921Y-86547597D01*
X136835597Y-86718921D01*
X136700989Y-86920377D01*
X136608269Y-87144222D01*
X136561000Y-87381856D01*
X136561000Y-87410711D01*
X131324336Y-92647375D01*
X131288657Y-92676656D01*
X131171815Y-92819028D01*
X131114410Y-92926426D01*
X131084994Y-92981460D01*
X131031529Y-93157709D01*
X131013476Y-93341000D01*
X131018001Y-93386942D01*
X131018000Y-95091711D01*
X127889398Y-98220313D01*
X127846853Y-98006426D01*
X127738680Y-97745273D01*
X127581637Y-97510241D01*
X127381759Y-97310363D01*
X127149241Y-97155000D01*
X127381759Y-96999637D01*
X127581637Y-96799759D01*
X127738680Y-96564727D01*
X127846853Y-96303574D01*
X127902000Y-96026335D01*
X127902000Y-95743665D01*
X127846853Y-95466426D01*
X127738680Y-95205273D01*
X127581637Y-94970241D01*
X127381759Y-94770363D01*
X127149241Y-94615000D01*
X127381759Y-94459637D01*
X127581637Y-94259759D01*
X127738680Y-94024727D01*
X127846853Y-93763574D01*
X127902000Y-93486335D01*
X127902000Y-93203665D01*
X127846853Y-92926426D01*
X127738680Y-92665273D01*
X127581637Y-92430241D01*
X127381759Y-92230363D01*
X127149241Y-92075000D01*
X127381759Y-91919637D01*
X127581637Y-91719759D01*
X127738680Y-91484727D01*
X127846853Y-91223574D01*
X127902000Y-90946335D01*
X127902000Y-90663665D01*
X127846853Y-90386426D01*
X127738680Y-90125273D01*
X127581637Y-89890241D01*
X127381759Y-89690363D01*
X127149241Y-89535000D01*
X127381759Y-89379637D01*
X127581637Y-89179759D01*
X127738680Y-88944727D01*
X127846853Y-88683574D01*
X127902000Y-88406335D01*
X127902000Y-88123665D01*
X127846853Y-87846426D01*
X127738680Y-87585273D01*
X127581637Y-87350241D01*
X127381759Y-87150363D01*
X127149241Y-86995000D01*
X127381759Y-86839637D01*
X127581637Y-86639759D01*
X127738680Y-86404727D01*
X127846853Y-86143574D01*
X127902000Y-85866335D01*
X127902000Y-85583665D01*
X127846853Y-85306426D01*
X127738680Y-85045273D01*
X127581637Y-84810241D01*
X127381759Y-84610363D01*
X127146727Y-84453320D01*
X126885574Y-84345147D01*
X126608335Y-84290000D01*
X126325665Y-84290000D01*
X126048426Y-84345147D01*
X125787273Y-84453320D01*
X125552241Y-84610363D01*
X125352363Y-84810241D01*
X125195320Y-85045273D01*
X125087147Y-85306426D01*
X125032000Y-85583665D01*
X125032000Y-85866335D01*
X125087147Y-86143574D01*
X125195320Y-86404727D01*
X125352363Y-86639759D01*
X125552241Y-86839637D01*
X125784759Y-86995000D01*
X125552241Y-87150363D01*
X125352363Y-87350241D01*
X125195320Y-87585273D01*
X125087147Y-87846426D01*
X125032000Y-88123665D01*
X125032000Y-88406335D01*
X125087147Y-88683574D01*
X125195320Y-88944727D01*
X125352363Y-89179759D01*
X125552241Y-89379637D01*
X125784759Y-89535000D01*
X125552241Y-89690363D01*
X125352363Y-89890241D01*
X125195320Y-90125273D01*
X125192461Y-90132174D01*
X118856627Y-83796340D01*
X118827341Y-83760655D01*
X118684969Y-83643813D01*
X118522537Y-83556992D01*
X118346289Y-83503528D01*
X118208929Y-83489999D01*
X118162997Y-83485475D01*
X118117065Y-83489999D01*
X111990288Y-83489999D01*
X104452630Y-75952341D01*
X104423344Y-75916656D01*
X104280972Y-75799814D01*
X104118540Y-75712993D01*
X103942292Y-75659529D01*
X103804932Y-75646000D01*
X103759000Y-75641476D01*
X103713068Y-75646000D01*
X90908106Y-75646000D01*
X90815475Y-75507368D01*
X90608632Y-75300525D01*
X90365411Y-75138010D01*
X90095158Y-75026068D01*
X89808260Y-74969000D01*
X89515740Y-74969000D01*
X89228842Y-75026068D01*
X88958589Y-75138010D01*
X88715368Y-75300525D01*
X88508525Y-75507368D01*
X88346010Y-75750589D01*
X88234068Y-76020842D01*
X88177000Y-76307740D01*
X88177000Y-76600260D01*
X88234068Y-76887158D01*
X88346010Y-77157411D01*
X88508525Y-77400632D01*
X88715368Y-77607475D01*
X88889760Y-77724000D01*
X88715368Y-77840525D01*
X88508525Y-78047368D01*
X88346010Y-78290589D01*
X88234068Y-78560842D01*
X88177000Y-78847740D01*
X88177000Y-79140260D01*
X88234068Y-79427158D01*
X88346010Y-79697411D01*
X88508525Y-79940632D01*
X88715368Y-80147475D01*
X88889760Y-80264000D01*
X88715368Y-80380525D01*
X88508525Y-80587368D01*
X88346010Y-80830589D01*
X88234068Y-81100842D01*
X88177000Y-81387740D01*
X88177000Y-81680260D01*
X88234068Y-81967158D01*
X88346010Y-82237411D01*
X88508525Y-82480632D01*
X88715368Y-82687475D01*
X88889760Y-82804000D01*
X88715368Y-82920525D01*
X88508525Y-83127368D01*
X88346010Y-83370589D01*
X88234068Y-83640842D01*
X88177000Y-83927740D01*
X88177000Y-84220260D01*
X88234068Y-84507158D01*
X88346010Y-84777411D01*
X88508525Y-85020632D01*
X88715368Y-85227475D01*
X88889760Y-85344000D01*
X88715368Y-85460525D01*
X88508525Y-85667368D01*
X88346010Y-85910589D01*
X88234068Y-86180842D01*
X88177000Y-86467740D01*
X88177000Y-86760260D01*
X88234068Y-87047158D01*
X88346010Y-87317411D01*
X88508525Y-87560632D01*
X88715368Y-87767475D01*
X88889760Y-87884000D01*
X88715368Y-88000525D01*
X88508525Y-88207368D01*
X88346010Y-88450589D01*
X88234068Y-88720842D01*
X88177000Y-89007740D01*
X88177000Y-89300260D01*
X88234068Y-89587158D01*
X88346010Y-89857411D01*
X88508525Y-90100632D01*
X88715368Y-90307475D01*
X88889760Y-90424000D01*
X88715368Y-90540525D01*
X88508525Y-90747368D01*
X88346010Y-90990589D01*
X88234068Y-91260842D01*
X88177000Y-91547740D01*
X88177000Y-91840260D01*
X88234068Y-92127158D01*
X88346010Y-92397411D01*
X88508525Y-92640632D01*
X88640380Y-92772487D01*
X88567820Y-92794498D01*
X88457506Y-92853463D01*
X88360815Y-92932815D01*
X88281463Y-93029506D01*
X88222498Y-93139820D01*
X88186188Y-93259518D01*
X88173928Y-93384000D01*
X88173928Y-94399782D01*
X87243720Y-95329991D01*
X87208041Y-95359272D01*
X87091199Y-95501644D01*
X87033528Y-95609540D01*
X87004378Y-95664076D01*
X86950913Y-95840325D01*
X86932860Y-96023616D01*
X86937385Y-96069558D01*
X86937384Y-126319068D01*
X86932860Y-126365000D01*
X86943301Y-126471007D01*
X86950913Y-126548291D01*
X87004377Y-126724539D01*
X87091198Y-126886971D01*
X87208040Y-127029344D01*
X87243725Y-127058630D01*
X88829754Y-128644659D01*
X88859040Y-128680344D01*
X89001412Y-128797186D01*
X89095297Y-128847368D01*
X89163843Y-128884007D01*
X89340092Y-128937472D01*
X89523384Y-128955524D01*
X89569319Y-128951000D01*
X91040000Y-128951000D01*
X91040000Y-129133939D01*
X91079774Y-129333898D01*
X91157795Y-129522256D01*
X91271063Y-129691774D01*
X91415226Y-129835937D01*
X91584744Y-129949205D01*
X91773102Y-130027226D01*
X91973061Y-130067000D01*
X92176939Y-130067000D01*
X92376898Y-130027226D01*
X92565256Y-129949205D01*
X92728693Y-129840000D01*
X102872604Y-129840000D01*
X103052241Y-130019637D01*
X103284759Y-130175000D01*
X103052241Y-130330363D01*
X102872604Y-130510000D01*
X94787932Y-130510000D01*
X94742000Y-130505476D01*
X94696068Y-130510000D01*
X94558708Y-130523529D01*
X94382460Y-130576993D01*
X94220028Y-130663814D01*
X94077656Y-130780656D01*
X94048370Y-130816341D01*
X92996982Y-131867729D01*
X92983260Y-131865000D01*
X92690740Y-131865000D01*
X92403842Y-131922068D01*
X92133589Y-132034010D01*
X91890368Y-132196525D01*
X91683525Y-132403368D01*
X91521010Y-132646589D01*
X91409068Y-132916842D01*
X91352000Y-133203740D01*
X91352000Y-133496260D01*
X91409068Y-133783158D01*
X91521010Y-134053411D01*
X91683525Y-134296632D01*
X91890368Y-134503475D01*
X92133589Y-134665990D01*
X92403842Y-134777932D01*
X92690740Y-134835000D01*
X92983260Y-134835000D01*
X92996981Y-134832271D01*
X98620375Y-140455665D01*
X98649656Y-140491344D01*
X98792028Y-140608186D01*
X98954460Y-140695007D01*
X99077243Y-140732253D01*
X99130707Y-140748471D01*
X99313999Y-140766524D01*
X99359931Y-140762000D01*
X124242194Y-140762000D01*
X124354460Y-140822007D01*
X124530708Y-140875471D01*
X124713999Y-140893524D01*
X124759931Y-140889000D01*
X155818028Y-140889000D01*
X155863960Y-140893524D01*
X155909892Y-140889000D01*
X156047252Y-140875471D01*
X156223500Y-140822007D01*
X156385932Y-140735186D01*
X156528304Y-140618344D01*
X156557590Y-140582659D01*
X163830000Y-133310250D01*
X163830000Y-140970000D01*
X86360000Y-140970000D01*
X86360000Y-73659793D01*
X163830000Y-73533208D01*
X163830000Y-82691709D01*
%TA.AperFunction,Conductor*%
D24*
G36*
X163830000Y-82691709D02*
G01*
X162424632Y-81286341D01*
X162395346Y-81250656D01*
X162252974Y-81133814D01*
X162090542Y-81046993D01*
X161914294Y-80993529D01*
X161776934Y-80980000D01*
X161731002Y-80975476D01*
X161685070Y-80980000D01*
X158922932Y-80980000D01*
X158877000Y-80975476D01*
X158831068Y-80980000D01*
X158693708Y-80993529D01*
X158517460Y-81046993D01*
X158355028Y-81133814D01*
X158212656Y-81250656D01*
X158183370Y-81286341D01*
X155441711Y-84028000D01*
X153862303Y-84028000D01*
X153858002Y-84013820D01*
X153799037Y-83903506D01*
X153719685Y-83806815D01*
X153622994Y-83727463D01*
X153512680Y-83668498D01*
X153392982Y-83632188D01*
X153268500Y-83619928D01*
X152542717Y-83619928D01*
X152227130Y-83304341D01*
X152197844Y-83268656D01*
X152055472Y-83151814D01*
X151893040Y-83064993D01*
X151716792Y-83011529D01*
X151579432Y-82998000D01*
X151533500Y-82993476D01*
X151487568Y-82998000D01*
X149525482Y-82998000D01*
X149505079Y-82977597D01*
X149303623Y-82842989D01*
X149079778Y-82750269D01*
X148842144Y-82703000D01*
X148599856Y-82703000D01*
X148362222Y-82750269D01*
X148138377Y-82842989D01*
X147936921Y-82977597D01*
X147765597Y-83148921D01*
X147630989Y-83350377D01*
X147538269Y-83574222D01*
X147491000Y-83811856D01*
X147491000Y-84054144D01*
X147538269Y-84291778D01*
X147630989Y-84515623D01*
X147765597Y-84717079D01*
X147936921Y-84888403D01*
X148138377Y-85023011D01*
X148362222Y-85115731D01*
X148599856Y-85163000D01*
X148842144Y-85163000D01*
X149079778Y-85115731D01*
X149303623Y-85023011D01*
X149505079Y-84888403D01*
X149525482Y-84868000D01*
X151146211Y-84868000D01*
X151220428Y-84942217D01*
X151220428Y-85668000D01*
X151232688Y-85792482D01*
X151268998Y-85912180D01*
X151327963Y-86022494D01*
X151407315Y-86119185D01*
X151504006Y-86198537D01*
X151614320Y-86257502D01*
X151734018Y-86293812D01*
X151858500Y-86306072D01*
X151951550Y-86306072D01*
X151928772Y-86315507D01*
X151709300Y-86462154D01*
X151603454Y-86568000D01*
X149525482Y-86568000D01*
X149505079Y-86547597D01*
X149303623Y-86412989D01*
X149079778Y-86320269D01*
X148842144Y-86273000D01*
X148599856Y-86273000D01*
X148362222Y-86320269D01*
X148138377Y-86412989D01*
X147936921Y-86547597D01*
X147765597Y-86718921D01*
X147630989Y-86920377D01*
X147538269Y-87144222D01*
X147491000Y-87381856D01*
X147491000Y-87624144D01*
X147538269Y-87861778D01*
X147630989Y-88085623D01*
X147765597Y-88287079D01*
X147936921Y-88458403D01*
X148138377Y-88593011D01*
X148362222Y-88685731D01*
X148599856Y-88733000D01*
X148842144Y-88733000D01*
X149079778Y-88685731D01*
X149303623Y-88593011D01*
X149505079Y-88458403D01*
X149525482Y-88438000D01*
X151603454Y-88438000D01*
X151709300Y-88543846D01*
X151928772Y-88690493D01*
X152131181Y-88774334D01*
X151980385Y-88829330D01*
X151878330Y-88883879D01*
X151818262Y-89118157D01*
X152563500Y-89863395D01*
X153308738Y-89118157D01*
X153248670Y-88883879D01*
X153009370Y-88772482D01*
X153003656Y-88771088D01*
X153198228Y-88690493D01*
X153417700Y-88543846D01*
X153604346Y-88357200D01*
X153750993Y-88137728D01*
X153852005Y-87893864D01*
X153903500Y-87634979D01*
X153903500Y-87371021D01*
X153852005Y-87112136D01*
X153750993Y-86868272D01*
X153604346Y-86648800D01*
X153417700Y-86462154D01*
X153198228Y-86315507D01*
X153175450Y-86306072D01*
X153268500Y-86306072D01*
X153392982Y-86293812D01*
X153512680Y-86257502D01*
X153622994Y-86198537D01*
X153719685Y-86119185D01*
X153799037Y-86022494D01*
X153858002Y-85912180D01*
X153862303Y-85898000D01*
X155783068Y-85898000D01*
X155829000Y-85902524D01*
X155874932Y-85898000D01*
X156012292Y-85884471D01*
X156188540Y-85831007D01*
X156350972Y-85744186D01*
X156493344Y-85627344D01*
X156522630Y-85591659D01*
X159264289Y-82850000D01*
X159925471Y-82850000D01*
X159909463Y-82869506D01*
X159850498Y-82979820D01*
X159814188Y-83099518D01*
X159801928Y-83224000D01*
X159805000Y-83788250D01*
X159963750Y-83947000D01*
X161163000Y-83947000D01*
X161163000Y-83927000D01*
X161417000Y-83927000D01*
X161417000Y-83947000D01*
X161437000Y-83947000D01*
X161437000Y-84201000D01*
X161417000Y-84201000D01*
X161417000Y-84221000D01*
X161163000Y-84221000D01*
X161163000Y-84201000D01*
X159963750Y-84201000D01*
X159805000Y-84359750D01*
X159801928Y-84924000D01*
X159814188Y-85048482D01*
X159850498Y-85168180D01*
X159909463Y-85278494D01*
X159988815Y-85375185D01*
X160085506Y-85454537D01*
X160195820Y-85513502D01*
X160268380Y-85535513D01*
X160136525Y-85667368D01*
X160129068Y-85678529D01*
X160087919Y-85674476D01*
X160041987Y-85679000D01*
X159904627Y-85692529D01*
X159728379Y-85745993D01*
X159565947Y-85832814D01*
X159423575Y-85949656D01*
X159394289Y-85985341D01*
X154620630Y-90759000D01*
X153602377Y-90759000D01*
X153722621Y-90728170D01*
X153834018Y-90488870D01*
X153896591Y-90232437D01*
X153907933Y-89968724D01*
X153867610Y-89707865D01*
X153777170Y-89459885D01*
X153722621Y-89357830D01*
X153488343Y-89297762D01*
X152743105Y-90043000D01*
X152757248Y-90057143D01*
X152577643Y-90236748D01*
X152563500Y-90222605D01*
X152549358Y-90236748D01*
X152369753Y-90057143D01*
X152383895Y-90043000D01*
X151638657Y-89297762D01*
X151404379Y-89357830D01*
X151374022Y-89423043D01*
X151217390Y-89375529D01*
X151080030Y-89362000D01*
X151034098Y-89357476D01*
X150988166Y-89362000D01*
X146095931Y-89362000D01*
X146049999Y-89357476D01*
X146004067Y-89362000D01*
X142921000Y-89362000D01*
X142921000Y-88173932D01*
X142925524Y-88128000D01*
X142907471Y-87944708D01*
X142903006Y-87929990D01*
X142854007Y-87768460D01*
X142767186Y-87606028D01*
X142650344Y-87463656D01*
X142614659Y-87434370D01*
X139021000Y-83840711D01*
X139021000Y-83811856D01*
X138973731Y-83574222D01*
X138881011Y-83350377D01*
X138746403Y-83148921D01*
X138575079Y-82977597D01*
X138373623Y-82842989D01*
X138149778Y-82750269D01*
X137912144Y-82703000D01*
X137669856Y-82703000D01*
X137432222Y-82750269D01*
X137208377Y-82842989D01*
X137006921Y-82977597D01*
X136835597Y-83148921D01*
X136700989Y-83350377D01*
X136608269Y-83574222D01*
X136561000Y-83811856D01*
X136561000Y-84054144D01*
X136608269Y-84291778D01*
X136700989Y-84515623D01*
X136835597Y-84717079D01*
X137006921Y-84888403D01*
X137208377Y-85023011D01*
X137432222Y-85115731D01*
X137669856Y-85163000D01*
X137698711Y-85163000D01*
X141051001Y-88515290D01*
X141051000Y-89909711D01*
X139439711Y-91521000D01*
X138722482Y-91521000D01*
X138702079Y-91500597D01*
X138500623Y-91365989D01*
X138276778Y-91273269D01*
X138039144Y-91226000D01*
X137796856Y-91226000D01*
X137559222Y-91273269D01*
X137335377Y-91365989D01*
X137133921Y-91500597D01*
X136962597Y-91671921D01*
X136827989Y-91873377D01*
X136735269Y-92097222D01*
X136688000Y-92334856D01*
X136688000Y-92577144D01*
X136735269Y-92814778D01*
X136827989Y-93038623D01*
X136962597Y-93240079D01*
X137133921Y-93411403D01*
X137335377Y-93546011D01*
X137559222Y-93638731D01*
X137796856Y-93686000D01*
X138039144Y-93686000D01*
X138276778Y-93638731D01*
X138500623Y-93546011D01*
X138702079Y-93411403D01*
X138722482Y-93391000D01*
X139781068Y-93391000D01*
X139827000Y-93395524D01*
X139872932Y-93391000D01*
X140010292Y-93377471D01*
X140186540Y-93324007D01*
X140348972Y-93237186D01*
X140491344Y-93120344D01*
X140520630Y-93084659D01*
X142373289Y-91232000D01*
X143792710Y-91232000D01*
X139103511Y-95921200D01*
X139100731Y-95907222D01*
X139008011Y-95683377D01*
X138873403Y-95481921D01*
X138702079Y-95310597D01*
X138500623Y-95175989D01*
X138276778Y-95083269D01*
X138039144Y-95036000D01*
X137796856Y-95036000D01*
X137559222Y-95083269D01*
X137335377Y-95175989D01*
X137133921Y-95310597D01*
X137113518Y-95331000D01*
X133751932Y-95331000D01*
X133706000Y-95326476D01*
X133660068Y-95331000D01*
X133522708Y-95344529D01*
X133346460Y-95397993D01*
X133184028Y-95484814D01*
X133041656Y-95601656D01*
X133012370Y-95637341D01*
X132825290Y-95824421D01*
X132874472Y-95662292D01*
X132892524Y-95479000D01*
X132888000Y-95433065D01*
X132888000Y-93728289D01*
X137883289Y-88733000D01*
X137912144Y-88733000D01*
X138149778Y-88685731D01*
X138373623Y-88593011D01*
X138575079Y-88458403D01*
X138746403Y-88287079D01*
X138881011Y-88085623D01*
X138973731Y-87861778D01*
X139021000Y-87624144D01*
X139021000Y-87381856D01*
X138973731Y-87144222D01*
X138881011Y-86920377D01*
X138746403Y-86718921D01*
X138575079Y-86547597D01*
X138373623Y-86412989D01*
X138149778Y-86320269D01*
X137912144Y-86273000D01*
X137669856Y-86273000D01*
X137432222Y-86320269D01*
X137208377Y-86412989D01*
X137006921Y-86547597D01*
X136835597Y-86718921D01*
X136700989Y-86920377D01*
X136608269Y-87144222D01*
X136561000Y-87381856D01*
X136561000Y-87410711D01*
X131324336Y-92647375D01*
X131288657Y-92676656D01*
X131171815Y-92819028D01*
X131114410Y-92926426D01*
X131084994Y-92981460D01*
X131031529Y-93157709D01*
X131013476Y-93341000D01*
X131018001Y-93386942D01*
X131018000Y-95091711D01*
X127889398Y-98220313D01*
X127846853Y-98006426D01*
X127738680Y-97745273D01*
X127581637Y-97510241D01*
X127381759Y-97310363D01*
X127149241Y-97155000D01*
X127381759Y-96999637D01*
X127581637Y-96799759D01*
X127738680Y-96564727D01*
X127846853Y-96303574D01*
X127902000Y-96026335D01*
X127902000Y-95743665D01*
X127846853Y-95466426D01*
X127738680Y-95205273D01*
X127581637Y-94970241D01*
X127381759Y-94770363D01*
X127149241Y-94615000D01*
X127381759Y-94459637D01*
X127581637Y-94259759D01*
X127738680Y-94024727D01*
X127846853Y-93763574D01*
X127902000Y-93486335D01*
X127902000Y-93203665D01*
X127846853Y-92926426D01*
X127738680Y-92665273D01*
X127581637Y-92430241D01*
X127381759Y-92230363D01*
X127149241Y-92075000D01*
X127381759Y-91919637D01*
X127581637Y-91719759D01*
X127738680Y-91484727D01*
X127846853Y-91223574D01*
X127902000Y-90946335D01*
X127902000Y-90663665D01*
X127846853Y-90386426D01*
X127738680Y-90125273D01*
X127581637Y-89890241D01*
X127381759Y-89690363D01*
X127149241Y-89535000D01*
X127381759Y-89379637D01*
X127581637Y-89179759D01*
X127738680Y-88944727D01*
X127846853Y-88683574D01*
X127902000Y-88406335D01*
X127902000Y-88123665D01*
X127846853Y-87846426D01*
X127738680Y-87585273D01*
X127581637Y-87350241D01*
X127381759Y-87150363D01*
X127149241Y-86995000D01*
X127381759Y-86839637D01*
X127581637Y-86639759D01*
X127738680Y-86404727D01*
X127846853Y-86143574D01*
X127902000Y-85866335D01*
X127902000Y-85583665D01*
X127846853Y-85306426D01*
X127738680Y-85045273D01*
X127581637Y-84810241D01*
X127381759Y-84610363D01*
X127146727Y-84453320D01*
X126885574Y-84345147D01*
X126608335Y-84290000D01*
X126325665Y-84290000D01*
X126048426Y-84345147D01*
X125787273Y-84453320D01*
X125552241Y-84610363D01*
X125352363Y-84810241D01*
X125195320Y-85045273D01*
X125087147Y-85306426D01*
X125032000Y-85583665D01*
X125032000Y-85866335D01*
X125087147Y-86143574D01*
X125195320Y-86404727D01*
X125352363Y-86639759D01*
X125552241Y-86839637D01*
X125784759Y-86995000D01*
X125552241Y-87150363D01*
X125352363Y-87350241D01*
X125195320Y-87585273D01*
X125087147Y-87846426D01*
X125032000Y-88123665D01*
X125032000Y-88406335D01*
X125087147Y-88683574D01*
X125195320Y-88944727D01*
X125352363Y-89179759D01*
X125552241Y-89379637D01*
X125784759Y-89535000D01*
X125552241Y-89690363D01*
X125352363Y-89890241D01*
X125195320Y-90125273D01*
X125192461Y-90132174D01*
X118856627Y-83796340D01*
X118827341Y-83760655D01*
X118684969Y-83643813D01*
X118522537Y-83556992D01*
X118346289Y-83503528D01*
X118208929Y-83489999D01*
X118162997Y-83485475D01*
X118117065Y-83489999D01*
X111990288Y-83489999D01*
X104452630Y-75952341D01*
X104423344Y-75916656D01*
X104280972Y-75799814D01*
X104118540Y-75712993D01*
X103942292Y-75659529D01*
X103804932Y-75646000D01*
X103759000Y-75641476D01*
X103713068Y-75646000D01*
X90908106Y-75646000D01*
X90815475Y-75507368D01*
X90608632Y-75300525D01*
X90365411Y-75138010D01*
X90095158Y-75026068D01*
X89808260Y-74969000D01*
X89515740Y-74969000D01*
X89228842Y-75026068D01*
X88958589Y-75138010D01*
X88715368Y-75300525D01*
X88508525Y-75507368D01*
X88346010Y-75750589D01*
X88234068Y-76020842D01*
X88177000Y-76307740D01*
X88177000Y-76600260D01*
X88234068Y-76887158D01*
X88346010Y-77157411D01*
X88508525Y-77400632D01*
X88715368Y-77607475D01*
X88889760Y-77724000D01*
X88715368Y-77840525D01*
X88508525Y-78047368D01*
X88346010Y-78290589D01*
X88234068Y-78560842D01*
X88177000Y-78847740D01*
X88177000Y-79140260D01*
X88234068Y-79427158D01*
X88346010Y-79697411D01*
X88508525Y-79940632D01*
X88715368Y-80147475D01*
X88889760Y-80264000D01*
X88715368Y-80380525D01*
X88508525Y-80587368D01*
X88346010Y-80830589D01*
X88234068Y-81100842D01*
X88177000Y-81387740D01*
X88177000Y-81680260D01*
X88234068Y-81967158D01*
X88346010Y-82237411D01*
X88508525Y-82480632D01*
X88715368Y-82687475D01*
X88889760Y-82804000D01*
X88715368Y-82920525D01*
X88508525Y-83127368D01*
X88346010Y-83370589D01*
X88234068Y-83640842D01*
X88177000Y-83927740D01*
X88177000Y-84220260D01*
X88234068Y-84507158D01*
X88346010Y-84777411D01*
X88508525Y-85020632D01*
X88715368Y-85227475D01*
X88889760Y-85344000D01*
X88715368Y-85460525D01*
X88508525Y-85667368D01*
X88346010Y-85910589D01*
X88234068Y-86180842D01*
X88177000Y-86467740D01*
X88177000Y-86760260D01*
X88234068Y-87047158D01*
X88346010Y-87317411D01*
X88508525Y-87560632D01*
X88715368Y-87767475D01*
X88889760Y-87884000D01*
X88715368Y-88000525D01*
X88508525Y-88207368D01*
X88346010Y-88450589D01*
X88234068Y-88720842D01*
X88177000Y-89007740D01*
X88177000Y-89300260D01*
X88234068Y-89587158D01*
X88346010Y-89857411D01*
X88508525Y-90100632D01*
X88715368Y-90307475D01*
X88889760Y-90424000D01*
X88715368Y-90540525D01*
X88508525Y-90747368D01*
X88346010Y-90990589D01*
X88234068Y-91260842D01*
X88177000Y-91547740D01*
X88177000Y-91840260D01*
X88234068Y-92127158D01*
X88346010Y-92397411D01*
X88508525Y-92640632D01*
X88640380Y-92772487D01*
X88567820Y-92794498D01*
X88457506Y-92853463D01*
X88360815Y-92932815D01*
X88281463Y-93029506D01*
X88222498Y-93139820D01*
X88186188Y-93259518D01*
X88173928Y-93384000D01*
X88173928Y-94399782D01*
X87243720Y-95329991D01*
X87208041Y-95359272D01*
X87091199Y-95501644D01*
X87033528Y-95609540D01*
X87004378Y-95664076D01*
X86950913Y-95840325D01*
X86932860Y-96023616D01*
X86937385Y-96069558D01*
X86937384Y-126319068D01*
X86932860Y-126365000D01*
X86943301Y-126471007D01*
X86950913Y-126548291D01*
X87004377Y-126724539D01*
X87091198Y-126886971D01*
X87208040Y-127029344D01*
X87243725Y-127058630D01*
X88829754Y-128644659D01*
X88859040Y-128680344D01*
X89001412Y-128797186D01*
X89095297Y-128847368D01*
X89163843Y-128884007D01*
X89340092Y-128937472D01*
X89523384Y-128955524D01*
X89569319Y-128951000D01*
X91040000Y-128951000D01*
X91040000Y-129133939D01*
X91079774Y-129333898D01*
X91157795Y-129522256D01*
X91271063Y-129691774D01*
X91415226Y-129835937D01*
X91584744Y-129949205D01*
X91773102Y-130027226D01*
X91973061Y-130067000D01*
X92176939Y-130067000D01*
X92376898Y-130027226D01*
X92565256Y-129949205D01*
X92728693Y-129840000D01*
X102872604Y-129840000D01*
X103052241Y-130019637D01*
X103284759Y-130175000D01*
X103052241Y-130330363D01*
X102872604Y-130510000D01*
X94787932Y-130510000D01*
X94742000Y-130505476D01*
X94696068Y-130510000D01*
X94558708Y-130523529D01*
X94382460Y-130576993D01*
X94220028Y-130663814D01*
X94077656Y-130780656D01*
X94048370Y-130816341D01*
X92996982Y-131867729D01*
X92983260Y-131865000D01*
X92690740Y-131865000D01*
X92403842Y-131922068D01*
X92133589Y-132034010D01*
X91890368Y-132196525D01*
X91683525Y-132403368D01*
X91521010Y-132646589D01*
X91409068Y-132916842D01*
X91352000Y-133203740D01*
X91352000Y-133496260D01*
X91409068Y-133783158D01*
X91521010Y-134053411D01*
X91683525Y-134296632D01*
X91890368Y-134503475D01*
X92133589Y-134665990D01*
X92403842Y-134777932D01*
X92690740Y-134835000D01*
X92983260Y-134835000D01*
X92996981Y-134832271D01*
X98620375Y-140455665D01*
X98649656Y-140491344D01*
X98792028Y-140608186D01*
X98954460Y-140695007D01*
X99077243Y-140732253D01*
X99130707Y-140748471D01*
X99313999Y-140766524D01*
X99359931Y-140762000D01*
X124242194Y-140762000D01*
X124354460Y-140822007D01*
X124530708Y-140875471D01*
X124713999Y-140893524D01*
X124759931Y-140889000D01*
X155818028Y-140889000D01*
X155863960Y-140893524D01*
X155909892Y-140889000D01*
X156047252Y-140875471D01*
X156223500Y-140822007D01*
X156385932Y-140735186D01*
X156528304Y-140618344D01*
X156557590Y-140582659D01*
X163830000Y-133310250D01*
X163830000Y-140970000D01*
X86360000Y-140970000D01*
X86360000Y-73659793D01*
X163830000Y-73533208D01*
X163830000Y-82691709D01*
G37*
%TD.AperFunction*%
D23*
X159805000Y-129940260D02*
X159862068Y-130227158D01*
X159974010Y-130497411D01*
X160136525Y-130740632D01*
X160343368Y-130947475D01*
X160525534Y-131069195D01*
X160408645Y-131138822D01*
X160192412Y-131333731D01*
X160018359Y-131567080D01*
X159893175Y-131829901D01*
X159848524Y-131977110D01*
X159969845Y-132207000D01*
X161163000Y-132207000D01*
X161163000Y-132187000D01*
X161417000Y-132187000D01*
X161417000Y-132207000D01*
X161437000Y-132207000D01*
X161437000Y-132461000D01*
X161417000Y-132461000D01*
X161417000Y-132481000D01*
X161163000Y-132481000D01*
X161163000Y-132461000D01*
X159969845Y-132461000D01*
X159848524Y-132690890D01*
X159893175Y-132838099D01*
X160018359Y-133100920D01*
X160192412Y-133334269D01*
X160408645Y-133529178D01*
X160658748Y-133678157D01*
X160775941Y-133719729D01*
X155476671Y-139019000D01*
X151140289Y-139019000D01*
X155331217Y-134828072D01*
X156145000Y-134828072D01*
X156269482Y-134815812D01*
X156389180Y-134779502D01*
X156499494Y-134720537D01*
X156596185Y-134641185D01*
X156675537Y-134544494D01*
X156734502Y-134434180D01*
X156770812Y-134314482D01*
X156783072Y-134190000D01*
X156783072Y-132692000D01*
X156770812Y-132567518D01*
X156734502Y-132447820D01*
X156675537Y-132337506D01*
X156596185Y-132240815D01*
X156499494Y-132161463D01*
X156389180Y-132102498D01*
X156331000Y-132084849D01*
X156331000Y-129963272D01*
X156418272Y-129876000D01*
X159805000Y-129876000D01*
X159805000Y-129940260D01*
%TA.AperFunction,Conductor*%
D24*
G36*
X159805000Y-129940260D02*
G01*
X159862068Y-130227158D01*
X159974010Y-130497411D01*
X160136525Y-130740632D01*
X160343368Y-130947475D01*
X160525534Y-131069195D01*
X160408645Y-131138822D01*
X160192412Y-131333731D01*
X160018359Y-131567080D01*
X159893175Y-131829901D01*
X159848524Y-131977110D01*
X159969845Y-132207000D01*
X161163000Y-132207000D01*
X161163000Y-132187000D01*
X161417000Y-132187000D01*
X161417000Y-132207000D01*
X161437000Y-132207000D01*
X161437000Y-132461000D01*
X161417000Y-132461000D01*
X161417000Y-132481000D01*
X161163000Y-132481000D01*
X161163000Y-132461000D01*
X159969845Y-132461000D01*
X159848524Y-132690890D01*
X159893175Y-132838099D01*
X160018359Y-133100920D01*
X160192412Y-133334269D01*
X160408645Y-133529178D01*
X160658748Y-133678157D01*
X160775941Y-133719729D01*
X155476671Y-139019000D01*
X151140289Y-139019000D01*
X155331217Y-134828072D01*
X156145000Y-134828072D01*
X156269482Y-134815812D01*
X156389180Y-134779502D01*
X156499494Y-134720537D01*
X156596185Y-134641185D01*
X156675537Y-134544494D01*
X156734502Y-134434180D01*
X156770812Y-134314482D01*
X156783072Y-134190000D01*
X156783072Y-132692000D01*
X156770812Y-132567518D01*
X156734502Y-132447820D01*
X156675537Y-132337506D01*
X156596185Y-132240815D01*
X156499494Y-132161463D01*
X156389180Y-132102498D01*
X156331000Y-132084849D01*
X156331000Y-129963272D01*
X156418272Y-129876000D01*
X159805000Y-129876000D01*
X159805000Y-129940260D01*
G37*
%TD.AperFunction*%
D23*
X107396000Y-87763289D02*
X107396001Y-116900702D01*
X107335774Y-117046102D01*
X107296000Y-117246061D01*
X107296000Y-117449939D01*
X107335774Y-117649898D01*
X107413795Y-117838256D01*
X107527063Y-118007774D01*
X107671226Y-118151937D01*
X107840744Y-118265205D01*
X108029102Y-118343226D01*
X108229061Y-118383000D01*
X108432939Y-118383000D01*
X108632898Y-118343226D01*
X108821256Y-118265205D01*
X108990774Y-118151937D01*
X109134937Y-118007774D01*
X109248205Y-117838256D01*
X109326226Y-117649898D01*
X109366000Y-117449939D01*
X109366000Y-117246061D01*
X109326226Y-117046102D01*
X109266000Y-116900705D01*
X109266000Y-88501905D01*
X116667000Y-95902905D01*
X116667001Y-107777058D01*
X116662476Y-107823000D01*
X116680529Y-108006291D01*
X116698801Y-108066525D01*
X116733994Y-108182540D01*
X116820815Y-108344972D01*
X116937657Y-108487344D01*
X116973336Y-108516625D01*
X120096000Y-111639290D01*
X120096001Y-116519702D01*
X120035774Y-116665102D01*
X119996000Y-116865061D01*
X119996000Y-117068939D01*
X120035774Y-117268898D01*
X120113795Y-117457256D01*
X120227063Y-117626774D01*
X120371226Y-117770937D01*
X120540744Y-117884205D01*
X120729102Y-117962226D01*
X120929061Y-118002000D01*
X121132939Y-118002000D01*
X121332898Y-117962226D01*
X121521256Y-117884205D01*
X121690774Y-117770937D01*
X121834937Y-117626774D01*
X121948205Y-117457256D01*
X122026226Y-117268898D01*
X122066000Y-117068939D01*
X122066000Y-116865061D01*
X122026226Y-116665102D01*
X121966000Y-116519705D01*
X121966000Y-116275512D01*
X125026783Y-116275512D01*
X125068213Y-116555130D01*
X125163397Y-116821292D01*
X125230329Y-116946514D01*
X125474298Y-117018097D01*
X126287395Y-116205000D01*
X126646605Y-116205000D01*
X127459702Y-117018097D01*
X127703671Y-116946514D01*
X127824571Y-116691004D01*
X127893300Y-116416816D01*
X127907217Y-116134488D01*
X127865787Y-115854870D01*
X127770603Y-115588708D01*
X127703671Y-115463486D01*
X127459702Y-115391903D01*
X126646605Y-116205000D01*
X126287395Y-116205000D01*
X125474298Y-115391903D01*
X125230329Y-115463486D01*
X125109429Y-115718996D01*
X125040700Y-115993184D01*
X125026783Y-116275512D01*
X121966000Y-116275512D01*
X121966000Y-111297931D01*
X121970524Y-111251999D01*
X121952471Y-111068707D01*
X121936253Y-111015243D01*
X121899007Y-110892460D01*
X121812186Y-110730028D01*
X121695344Y-110587656D01*
X121659666Y-110558376D01*
X118537000Y-107435711D01*
X118537000Y-107057289D01*
X125032000Y-113552289D01*
X125032000Y-113806335D01*
X125087147Y-114083574D01*
X125195320Y-114344727D01*
X125352363Y-114579759D01*
X125552241Y-114779637D01*
X125786128Y-114935915D01*
X125725486Y-114968329D01*
X125653903Y-115212298D01*
X126467000Y-116025395D01*
X127280097Y-115212298D01*
X127208514Y-114968329D01*
X127144008Y-114937806D01*
X127146727Y-114936680D01*
X127381759Y-114779637D01*
X127581637Y-114579759D01*
X127624907Y-114515000D01*
X132496928Y-114515000D01*
X132509188Y-114639482D01*
X132545498Y-114759180D01*
X132604463Y-114869494D01*
X132683815Y-114966185D01*
X132780506Y-115045537D01*
X132890820Y-115104502D01*
X133010518Y-115140812D01*
X133135000Y-115153072D01*
X133699250Y-115150000D01*
X133858000Y-114991250D01*
X133858000Y-113792000D01*
X134112000Y-113792000D01*
X134112000Y-114991250D01*
X134270750Y-115150000D01*
X134835000Y-115153072D01*
X134959482Y-115140812D01*
X135079180Y-115104502D01*
X135189494Y-115045537D01*
X135286185Y-114966185D01*
X135365537Y-114869494D01*
X135424502Y-114759180D01*
X135460812Y-114639482D01*
X135473072Y-114515000D01*
X135470000Y-113950750D01*
X135311250Y-113792000D01*
X134112000Y-113792000D01*
X133858000Y-113792000D01*
X132658750Y-113792000D01*
X132500000Y-113950750D01*
X132496928Y-114515000D01*
X127624907Y-114515000D01*
X127738680Y-114344727D01*
X127846853Y-114083574D01*
X127902000Y-113806335D01*
X127902000Y-113523665D01*
X127846853Y-113246426D01*
X127738680Y-112985273D01*
X127581637Y-112750241D01*
X127381759Y-112550363D01*
X127149241Y-112395000D01*
X127381759Y-112239637D01*
X127561396Y-112060000D01*
X132823753Y-112060000D01*
X132831525Y-112071632D01*
X132963380Y-112203487D01*
X132890820Y-112225498D01*
X132780506Y-112284463D01*
X132683815Y-112363815D01*
X132604463Y-112460506D01*
X132545498Y-112570820D01*
X132509188Y-112690518D01*
X132496928Y-112815000D01*
X132500000Y-113379250D01*
X132658750Y-113538000D01*
X133858000Y-113538000D01*
X133858000Y-113518000D01*
X134112000Y-113518000D01*
X134112000Y-113538000D01*
X135311250Y-113538000D01*
X135470000Y-113379250D01*
X135473072Y-112815000D01*
X135460812Y-112690518D01*
X135424502Y-112570820D01*
X135365537Y-112460506D01*
X135286185Y-112363815D01*
X135189494Y-112284463D01*
X135079180Y-112225498D01*
X135006620Y-112203487D01*
X135138475Y-112071632D01*
X135300990Y-111828411D01*
X135412932Y-111558158D01*
X135470000Y-111271260D01*
X135470000Y-110978740D01*
X135412932Y-110691842D01*
X135300990Y-110421589D01*
X135138475Y-110178368D01*
X134931632Y-109971525D01*
X134757240Y-109855000D01*
X134931632Y-109738475D01*
X135138475Y-109531632D01*
X135300990Y-109288411D01*
X135412932Y-109018158D01*
X135470000Y-108731260D01*
X135470000Y-108438740D01*
X135412932Y-108151842D01*
X135300990Y-107881589D01*
X135138475Y-107638368D01*
X134931632Y-107431525D01*
X134757240Y-107315000D01*
X134931632Y-107198475D01*
X135138475Y-106991632D01*
X135300990Y-106748411D01*
X135412932Y-106478158D01*
X135449920Y-106292209D01*
X142054375Y-112896665D01*
X142083656Y-112932344D01*
X142226028Y-113049186D01*
X142388460Y-113136007D01*
X142492197Y-113167475D01*
X142564707Y-113189471D01*
X142583110Y-113191283D01*
X142702068Y-113203000D01*
X142702074Y-113203000D01*
X142747999Y-113207523D01*
X142793924Y-113203000D01*
X147944728Y-113203000D01*
X147820977Y-113326751D01*
X147669515Y-113553430D01*
X147565186Y-113805302D01*
X147512000Y-114072688D01*
X147512000Y-114345312D01*
X147565186Y-114612698D01*
X147669515Y-114864570D01*
X147820977Y-115091249D01*
X147961001Y-115231273D01*
X147961000Y-117556000D01*
X147747482Y-117556000D01*
X147727079Y-117535597D01*
X147525623Y-117400989D01*
X147301778Y-117308269D01*
X147064144Y-117261000D01*
X146821856Y-117261000D01*
X146584222Y-117308269D01*
X146360377Y-117400989D01*
X146158921Y-117535597D01*
X146138518Y-117556000D01*
X144063931Y-117556000D01*
X144017999Y-117551476D01*
X143834707Y-117569529D01*
X143784191Y-117584853D01*
X143658460Y-117622993D01*
X143496028Y-117709814D01*
X143353656Y-117826656D01*
X143324374Y-117862336D01*
X138944336Y-122242375D01*
X138908657Y-122271656D01*
X138791815Y-122414028D01*
X138715567Y-122556680D01*
X138704994Y-122576460D01*
X138651529Y-122752709D01*
X138633476Y-122936000D01*
X138638001Y-122981942D01*
X138638000Y-132581710D01*
X136772711Y-134447000D01*
X135896289Y-134447000D01*
X135746067Y-134296778D01*
X135849491Y-134321087D01*
X136091635Y-134329447D01*
X136330758Y-134290405D01*
X136557670Y-134205464D01*
X136632884Y-134165261D01*
X136679581Y-133942186D01*
X136013000Y-133275605D01*
X135998858Y-133289748D01*
X135819253Y-133110143D01*
X135833395Y-133096000D01*
X136192605Y-133096000D01*
X136859186Y-133762581D01*
X137082261Y-133715884D01*
X137182649Y-133495370D01*
X137238087Y-133259509D01*
X137246447Y-133017365D01*
X137207405Y-132778242D01*
X137122464Y-132551330D01*
X137082261Y-132476116D01*
X136859186Y-132429419D01*
X136192605Y-133096000D01*
X135833395Y-133096000D01*
X135166814Y-132429419D01*
X134943739Y-132476116D01*
X134843351Y-132696630D01*
X134793000Y-132910848D01*
X134793000Y-132607533D01*
X134797524Y-132561601D01*
X134779471Y-132378310D01*
X134760210Y-132314815D01*
X134740493Y-132249814D01*
X135346419Y-132249814D01*
X136013000Y-132916395D01*
X136679581Y-132249814D01*
X136632884Y-132026739D01*
X136412370Y-131926351D01*
X136176509Y-131870913D01*
X135934365Y-131862553D01*
X135695242Y-131901595D01*
X135468330Y-131986536D01*
X135393116Y-132026739D01*
X135346419Y-132249814D01*
X134740493Y-132249814D01*
X134726007Y-132202062D01*
X134666000Y-132089796D01*
X134666000Y-131134931D01*
X134670524Y-131088999D01*
X134652471Y-130905707D01*
X134614537Y-130780656D01*
X134599007Y-130729460D01*
X134512186Y-130567028D01*
X134395344Y-130424656D01*
X134359666Y-130395376D01*
X130667476Y-126703186D01*
X135346419Y-126703186D01*
X135393116Y-126926261D01*
X135613630Y-127026649D01*
X135849491Y-127082087D01*
X136091635Y-127090447D01*
X136330758Y-127051405D01*
X136557670Y-126966464D01*
X136632884Y-126926261D01*
X136679581Y-126703186D01*
X136013000Y-126036605D01*
X135346419Y-126703186D01*
X130667476Y-126703186D01*
X129899925Y-125935635D01*
X134779553Y-125935635D01*
X134818595Y-126174758D01*
X134903536Y-126401670D01*
X134943739Y-126476884D01*
X135166814Y-126523581D01*
X135833395Y-125857000D01*
X136192605Y-125857000D01*
X136859186Y-126523581D01*
X137082261Y-126476884D01*
X137182649Y-126256370D01*
X137238087Y-126020509D01*
X137246447Y-125778365D01*
X137207405Y-125539242D01*
X137122464Y-125312330D01*
X137082261Y-125237116D01*
X136859186Y-125190419D01*
X136192605Y-125857000D01*
X135833395Y-125857000D01*
X135166814Y-125190419D01*
X134943739Y-125237116D01*
X134843351Y-125457630D01*
X134787913Y-125693491D01*
X134779553Y-125935635D01*
X129899925Y-125935635D01*
X128975104Y-125010814D01*
X135346419Y-125010814D01*
X136013000Y-125677395D01*
X136679581Y-125010814D01*
X136632884Y-124787739D01*
X136412370Y-124687351D01*
X136176509Y-124631913D01*
X135934365Y-124623553D01*
X135695242Y-124662595D01*
X135468330Y-124747536D01*
X135393116Y-124787739D01*
X135346419Y-125010814D01*
X128975104Y-125010814D01*
X128101858Y-124137568D01*
X128141073Y-124008292D01*
X128159126Y-123825000D01*
X128141073Y-123641708D01*
X128087609Y-123465460D01*
X128000788Y-123303028D01*
X127883946Y-123160656D01*
X127741574Y-123043814D01*
X127631617Y-122985041D01*
X127581637Y-122910241D01*
X127381759Y-122710363D01*
X127149241Y-122555000D01*
X127381759Y-122399637D01*
X127581637Y-122199759D01*
X127738680Y-121964727D01*
X127846853Y-121703574D01*
X127902000Y-121426335D01*
X127902000Y-121143665D01*
X127846853Y-120866426D01*
X127738680Y-120605273D01*
X127581637Y-120370241D01*
X127381759Y-120170363D01*
X127149241Y-120015000D01*
X127381759Y-119859637D01*
X127581637Y-119659759D01*
X127738680Y-119424727D01*
X127774940Y-119337186D01*
X135346419Y-119337186D01*
X135393116Y-119560261D01*
X135613630Y-119660649D01*
X135849491Y-119716087D01*
X136091635Y-119724447D01*
X136330758Y-119685405D01*
X136557670Y-119600464D01*
X136632884Y-119560261D01*
X136679581Y-119337186D01*
X136013000Y-118670605D01*
X135346419Y-119337186D01*
X127774940Y-119337186D01*
X127846853Y-119163574D01*
X127902000Y-118886335D01*
X127902000Y-118603665D01*
X127895231Y-118569635D01*
X134779553Y-118569635D01*
X134818595Y-118808758D01*
X134903536Y-119035670D01*
X134943739Y-119110884D01*
X135166814Y-119157581D01*
X135833395Y-118491000D01*
X136192605Y-118491000D01*
X136859186Y-119157581D01*
X137082261Y-119110884D01*
X137182649Y-118890370D01*
X137238087Y-118654509D01*
X137246447Y-118412365D01*
X137207405Y-118173242D01*
X137122464Y-117946330D01*
X137082261Y-117871116D01*
X136859186Y-117824419D01*
X136192605Y-118491000D01*
X135833395Y-118491000D01*
X135166814Y-117824419D01*
X134943739Y-117871116D01*
X134843351Y-118091630D01*
X134787913Y-118327491D01*
X134779553Y-118569635D01*
X127895231Y-118569635D01*
X127846853Y-118326426D01*
X127738680Y-118065273D01*
X127581637Y-117830241D01*
X127396210Y-117644814D01*
X135346419Y-117644814D01*
X136013000Y-118311395D01*
X136679581Y-117644814D01*
X136632884Y-117421739D01*
X136412370Y-117321351D01*
X136176509Y-117265913D01*
X135934365Y-117257553D01*
X135695242Y-117296595D01*
X135468330Y-117381536D01*
X135393116Y-117421739D01*
X135346419Y-117644814D01*
X127396210Y-117644814D01*
X127381759Y-117630363D01*
X127147872Y-117474085D01*
X127208514Y-117441671D01*
X127280097Y-117197702D01*
X126467000Y-116384605D01*
X125653903Y-117197702D01*
X125725486Y-117441671D01*
X125789992Y-117472194D01*
X125787273Y-117473320D01*
X125552241Y-117630363D01*
X125352363Y-117830241D01*
X125195320Y-118065273D01*
X125087147Y-118326426D01*
X125032000Y-118603665D01*
X125032000Y-118857711D01*
X124682711Y-119207000D01*
X121478295Y-119207000D01*
X121332898Y-119146774D01*
X121132939Y-119107000D01*
X120929061Y-119107000D01*
X120729102Y-119146774D01*
X120540744Y-119224795D01*
X120371226Y-119338063D01*
X120227063Y-119482226D01*
X120113795Y-119651744D01*
X120035774Y-119840102D01*
X119996000Y-120040061D01*
X119996000Y-120243939D01*
X120017097Y-120350000D01*
X109607289Y-120350000D01*
X109308431Y-120051142D01*
X109248205Y-119905744D01*
X109134937Y-119736226D01*
X108990774Y-119592063D01*
X108821256Y-119478795D01*
X108632898Y-119400774D01*
X108432939Y-119361000D01*
X108229061Y-119361000D01*
X108029102Y-119400774D01*
X107840744Y-119478795D01*
X107671226Y-119592063D01*
X107527063Y-119736226D01*
X107413795Y-119905744D01*
X107335774Y-120094102D01*
X107296000Y-120294061D01*
X107296000Y-120497939D01*
X107335774Y-120697898D01*
X107413795Y-120886256D01*
X107527063Y-121055774D01*
X107671226Y-121199937D01*
X107840744Y-121313205D01*
X107986142Y-121373431D01*
X108526370Y-121913659D01*
X108555656Y-121949344D01*
X108698028Y-122066186D01*
X108860460Y-122153007D01*
X109026400Y-122203344D01*
X109036708Y-122206471D01*
X109220000Y-122224524D01*
X109265932Y-122220000D01*
X125372604Y-122220000D01*
X125552241Y-122399637D01*
X125784759Y-122555000D01*
X125552241Y-122710363D01*
X125352363Y-122910241D01*
X125195320Y-123145273D01*
X125087147Y-123406426D01*
X125032000Y-123683665D01*
X125032000Y-123966335D01*
X125087147Y-124243574D01*
X125195320Y-124504727D01*
X125352363Y-124739759D01*
X125552241Y-124939637D01*
X125784759Y-125095000D01*
X125552241Y-125250363D01*
X125352363Y-125450241D01*
X125195320Y-125685273D01*
X125087147Y-125946426D01*
X125032000Y-126223665D01*
X125032000Y-126506335D01*
X125087147Y-126783574D01*
X125195320Y-127044727D01*
X125352363Y-127279759D01*
X125552241Y-127479637D01*
X125784759Y-127635000D01*
X125552241Y-127790363D01*
X125352363Y-127990241D01*
X125195320Y-128225273D01*
X125087147Y-128486426D01*
X125032000Y-128763665D01*
X125032000Y-129046335D01*
X125087147Y-129323574D01*
X125195320Y-129584727D01*
X125352363Y-129819759D01*
X125552241Y-130019637D01*
X125786128Y-130175915D01*
X125725486Y-130208329D01*
X125653903Y-130452298D01*
X126467000Y-131265395D01*
X126481143Y-131251253D01*
X126660748Y-131430858D01*
X126646605Y-131445000D01*
X127459702Y-132258097D01*
X127703671Y-132186514D01*
X127824571Y-131931004D01*
X127893300Y-131656816D01*
X127893452Y-131653741D01*
X130002000Y-133762289D01*
X130002001Y-134574059D01*
X129997476Y-134620000D01*
X130015529Y-134803291D01*
X130046829Y-134906471D01*
X130068994Y-134979540D01*
X130155815Y-135141972D01*
X130272657Y-135284344D01*
X130308336Y-135313625D01*
X132988720Y-137994009D01*
X101343299Y-137994009D01*
X98044002Y-134694713D01*
X98044002Y-134676252D01*
X98202750Y-134835000D01*
X98767000Y-134838072D01*
X98891482Y-134825812D01*
X99011180Y-134789502D01*
X99121494Y-134730537D01*
X99218185Y-134651185D01*
X99297537Y-134554494D01*
X99356502Y-134444180D01*
X99392812Y-134324482D01*
X99405072Y-134200000D01*
X99402000Y-133635750D01*
X99243250Y-133477000D01*
X98044000Y-133477000D01*
X98044000Y-133497000D01*
X97790000Y-133497000D01*
X97790000Y-133477000D01*
X97770000Y-133477000D01*
X97770000Y-133223000D01*
X97790000Y-133223000D01*
X97790000Y-133203000D01*
X98044000Y-133203000D01*
X98044000Y-133223000D01*
X99243250Y-133223000D01*
X99402000Y-133064250D01*
X99405072Y-132500000D01*
X99393253Y-132380000D01*
X102872604Y-132380000D01*
X103052241Y-132559637D01*
X103287273Y-132716680D01*
X103548426Y-132824853D01*
X103825665Y-132880000D01*
X104108335Y-132880000D01*
X104385574Y-132824853D01*
X104646727Y-132716680D01*
X104881759Y-132559637D01*
X105003694Y-132437702D01*
X125653903Y-132437702D01*
X125725486Y-132681671D01*
X125980996Y-132802571D01*
X126255184Y-132871300D01*
X126537512Y-132885217D01*
X126817130Y-132843787D01*
X127083292Y-132748603D01*
X127208514Y-132681671D01*
X127280097Y-132437702D01*
X126467000Y-131624605D01*
X125653903Y-132437702D01*
X105003694Y-132437702D01*
X105081637Y-132359759D01*
X105238680Y-132124727D01*
X105346853Y-131863574D01*
X105402000Y-131586335D01*
X105402000Y-131515512D01*
X125026783Y-131515512D01*
X125068213Y-131795130D01*
X125163397Y-132061292D01*
X125230329Y-132186514D01*
X125474298Y-132258097D01*
X126287395Y-131445000D01*
X125474298Y-130631903D01*
X125230329Y-130703486D01*
X125109429Y-130958996D01*
X125040700Y-131233184D01*
X125026783Y-131515512D01*
X105402000Y-131515512D01*
X105402000Y-131303665D01*
X105346853Y-131026426D01*
X105238680Y-130765273D01*
X105081637Y-130530241D01*
X104881759Y-130330363D01*
X104649241Y-130175000D01*
X104881759Y-130019637D01*
X105081637Y-129819759D01*
X105238680Y-129584727D01*
X105346853Y-129323574D01*
X105402000Y-129046335D01*
X105402000Y-128763665D01*
X105346853Y-128486426D01*
X105238680Y-128225273D01*
X105081637Y-127990241D01*
X104881759Y-127790363D01*
X104649241Y-127635000D01*
X104881759Y-127479637D01*
X105081637Y-127279759D01*
X105238680Y-127044727D01*
X105346853Y-126783574D01*
X105402000Y-126506335D01*
X105402000Y-126223665D01*
X105346853Y-125946426D01*
X105238680Y-125685273D01*
X105081637Y-125450241D01*
X104881759Y-125250363D01*
X104649241Y-125095000D01*
X104881759Y-124939637D01*
X105081637Y-124739759D01*
X105238680Y-124504727D01*
X105346853Y-124243574D01*
X105402000Y-123966335D01*
X105402000Y-123683665D01*
X105346853Y-123406426D01*
X105238680Y-123145273D01*
X105081637Y-122910241D01*
X104881759Y-122710363D01*
X104649241Y-122555000D01*
X104881759Y-122399637D01*
X105081637Y-122199759D01*
X105238680Y-121964727D01*
X105346853Y-121703574D01*
X105402000Y-121426335D01*
X105402000Y-121143665D01*
X105346853Y-120866426D01*
X105238680Y-120605273D01*
X105081637Y-120370241D01*
X104881759Y-120170363D01*
X104647872Y-120014085D01*
X104708514Y-119981671D01*
X104780097Y-119737702D01*
X103967000Y-118924605D01*
X103153903Y-119737702D01*
X103225486Y-119981671D01*
X103289992Y-120012194D01*
X103287273Y-120013320D01*
X103052241Y-120170363D01*
X102852363Y-120370241D01*
X102695320Y-120605273D01*
X102587147Y-120866426D01*
X102532000Y-121143665D01*
X102532000Y-121397711D01*
X98626711Y-125303000D01*
X93056515Y-125303000D01*
X93070226Y-125269898D01*
X93110000Y-125069939D01*
X93110000Y-124866061D01*
X93070226Y-124666102D01*
X93010000Y-124520705D01*
X93010000Y-106432289D01*
X95055080Y-104387209D01*
X95092068Y-104573158D01*
X95204010Y-104843411D01*
X95366525Y-105086632D01*
X95573368Y-105293475D01*
X95747760Y-105410000D01*
X95573368Y-105526525D01*
X95366525Y-105733368D01*
X95204010Y-105976589D01*
X95092068Y-106246842D01*
X95035000Y-106533740D01*
X95035000Y-106826260D01*
X95092068Y-107113158D01*
X95204010Y-107383411D01*
X95366525Y-107626632D01*
X95573368Y-107833475D01*
X95747760Y-107950000D01*
X95573368Y-108066525D01*
X95366525Y-108273368D01*
X95204010Y-108516589D01*
X95092068Y-108786842D01*
X95035000Y-109073740D01*
X95035000Y-109366260D01*
X95092068Y-109653158D01*
X95204010Y-109923411D01*
X95366525Y-110166632D01*
X95573368Y-110373475D01*
X95747760Y-110490000D01*
X95573368Y-110606525D01*
X95366525Y-110813368D01*
X95204010Y-111056589D01*
X95092068Y-111326842D01*
X95035000Y-111613740D01*
X95035000Y-111906260D01*
X95092068Y-112193158D01*
X95204010Y-112463411D01*
X95366525Y-112706632D01*
X95573368Y-112913475D01*
X95747760Y-113030000D01*
X95573368Y-113146525D01*
X95366525Y-113353368D01*
X95204010Y-113596589D01*
X95092068Y-113866842D01*
X95035000Y-114153740D01*
X95035000Y-114446260D01*
X95092068Y-114733158D01*
X95204010Y-115003411D01*
X95366525Y-115246632D01*
X95573368Y-115453475D01*
X95747760Y-115570000D01*
X95573368Y-115686525D01*
X95366525Y-115893368D01*
X95204010Y-116136589D01*
X95092068Y-116406842D01*
X95035000Y-116693740D01*
X95035000Y-116986260D01*
X95092068Y-117273158D01*
X95204010Y-117543411D01*
X95366525Y-117786632D01*
X95573368Y-117993475D01*
X95747760Y-118110000D01*
X95573368Y-118226525D01*
X95366525Y-118433368D01*
X95204010Y-118676589D01*
X95092068Y-118946842D01*
X95035000Y-119233740D01*
X95035000Y-119526260D01*
X95092068Y-119813158D01*
X95204010Y-120083411D01*
X95366525Y-120326632D01*
X95573368Y-120533475D01*
X95747760Y-120650000D01*
X95573368Y-120766525D01*
X95366525Y-120973368D01*
X95204010Y-121216589D01*
X95092068Y-121486842D01*
X95035000Y-121773740D01*
X95035000Y-122066260D01*
X95092068Y-122353158D01*
X95204010Y-122623411D01*
X95366525Y-122866632D01*
X95573368Y-123073475D01*
X95816589Y-123235990D01*
X96086842Y-123347932D01*
X96373740Y-123405000D01*
X96666260Y-123405000D01*
X96953158Y-123347932D01*
X97223411Y-123235990D01*
X97466632Y-123073475D01*
X97673475Y-122866632D01*
X97681247Y-122855000D01*
X98206068Y-122855000D01*
X98252000Y-122859524D01*
X98297932Y-122855000D01*
X98435292Y-122841471D01*
X98611540Y-122788007D01*
X98773972Y-122701186D01*
X98916344Y-122584344D01*
X98945630Y-122548659D01*
X102546397Y-118947892D01*
X102568213Y-119095130D01*
X102663397Y-119361292D01*
X102730329Y-119486514D01*
X102974298Y-119558097D01*
X103787395Y-118745000D01*
X104146605Y-118745000D01*
X104959702Y-119558097D01*
X105203671Y-119486514D01*
X105324571Y-119231004D01*
X105393300Y-118956816D01*
X105407217Y-118674488D01*
X105365787Y-118394870D01*
X105270603Y-118128708D01*
X105203671Y-118003486D01*
X104959702Y-117931903D01*
X104146605Y-118745000D01*
X103787395Y-118745000D01*
X103773253Y-118730858D01*
X103952858Y-118551253D01*
X103967000Y-118565395D01*
X104780097Y-117752298D01*
X104708514Y-117508329D01*
X104644008Y-117477806D01*
X104646727Y-117476680D01*
X104881759Y-117319637D01*
X105081637Y-117119759D01*
X105238680Y-116884727D01*
X105346853Y-116623574D01*
X105402000Y-116346335D01*
X105402000Y-116063665D01*
X105346853Y-115786426D01*
X105238680Y-115525273D01*
X105081637Y-115290241D01*
X104881759Y-115090363D01*
X104649241Y-114935000D01*
X104881759Y-114779637D01*
X105081637Y-114579759D01*
X105238680Y-114344727D01*
X105346853Y-114083574D01*
X105402000Y-113806335D01*
X105402000Y-113523665D01*
X105346853Y-113246426D01*
X105238680Y-112985273D01*
X105081637Y-112750241D01*
X104881759Y-112550363D01*
X104649241Y-112395000D01*
X104881759Y-112239637D01*
X105081637Y-112039759D01*
X105238680Y-111804727D01*
X105346853Y-111543574D01*
X105402000Y-111266335D01*
X105402000Y-110983665D01*
X105346853Y-110706426D01*
X105238680Y-110445273D01*
X105081637Y-110210241D01*
X104881759Y-110010363D01*
X104649241Y-109855000D01*
X104881759Y-109699637D01*
X105081637Y-109499759D01*
X105238680Y-109264727D01*
X105346853Y-109003574D01*
X105402000Y-108726335D01*
X105402000Y-108443665D01*
X105346853Y-108166426D01*
X105238680Y-107905273D01*
X105081637Y-107670241D01*
X104881759Y-107470363D01*
X104649241Y-107315000D01*
X104881759Y-107159637D01*
X105081637Y-106959759D01*
X105238680Y-106724727D01*
X105346853Y-106463574D01*
X105402000Y-106186335D01*
X105402000Y-105903665D01*
X105346853Y-105626426D01*
X105238680Y-105365273D01*
X105081637Y-105130241D01*
X104881759Y-104930363D01*
X104649241Y-104775000D01*
X104881759Y-104619637D01*
X105081637Y-104419759D01*
X105238680Y-104184727D01*
X105346853Y-103923574D01*
X105402000Y-103646335D01*
X105402000Y-103363665D01*
X105346853Y-103086426D01*
X105238680Y-102825273D01*
X105081637Y-102590241D01*
X104881759Y-102390363D01*
X104649241Y-102235000D01*
X104881759Y-102079637D01*
X105081637Y-101879759D01*
X105238680Y-101644727D01*
X105346853Y-101383574D01*
X105402000Y-101106335D01*
X105402000Y-100823665D01*
X105346853Y-100546426D01*
X105238680Y-100285273D01*
X105081637Y-100050241D01*
X104881759Y-99850363D01*
X104649241Y-99695000D01*
X104881759Y-99539637D01*
X105081637Y-99339759D01*
X105238680Y-99104727D01*
X105346853Y-98843574D01*
X105402000Y-98566335D01*
X105402000Y-98283665D01*
X105346853Y-98006426D01*
X105238680Y-97745273D01*
X105081637Y-97510241D01*
X104881759Y-97310363D01*
X104649241Y-97155000D01*
X104881759Y-96999637D01*
X105081637Y-96799759D01*
X105238680Y-96564727D01*
X105346853Y-96303574D01*
X105402000Y-96026335D01*
X105402000Y-95743665D01*
X105346853Y-95466426D01*
X105238680Y-95205273D01*
X105081637Y-94970241D01*
X104881759Y-94770363D01*
X104649241Y-94615000D01*
X104881759Y-94459637D01*
X105081637Y-94259759D01*
X105238680Y-94024727D01*
X105346853Y-93763574D01*
X105402000Y-93486335D01*
X105402000Y-93203665D01*
X105346853Y-92926426D01*
X105238680Y-92665273D01*
X105081637Y-92430241D01*
X104881759Y-92230363D01*
X104649241Y-92075000D01*
X104881759Y-91919637D01*
X105081637Y-91719759D01*
X105238680Y-91484727D01*
X105346853Y-91223574D01*
X105402000Y-90946335D01*
X105402000Y-90663665D01*
X105346853Y-90386426D01*
X105238680Y-90125273D01*
X105081637Y-89890241D01*
X104881759Y-89690363D01*
X104649241Y-89535000D01*
X104881759Y-89379637D01*
X105081637Y-89179759D01*
X105238680Y-88944727D01*
X105346853Y-88683574D01*
X105402000Y-88406335D01*
X105402000Y-88123665D01*
X105346853Y-87846426D01*
X105238680Y-87585273D01*
X105081637Y-87350241D01*
X104883039Y-87151643D01*
X104891482Y-87150812D01*
X105011180Y-87114502D01*
X105121494Y-87055537D01*
X105218185Y-86976185D01*
X105297537Y-86879494D01*
X105356502Y-86769180D01*
X105392812Y-86649482D01*
X105405072Y-86525000D01*
X105405072Y-85772361D01*
X107396000Y-87763289D01*
%TA.AperFunction,Conductor*%
D24*
G36*
X107396000Y-87763289D02*
G01*
X107396001Y-116900702D01*
X107335774Y-117046102D01*
X107296000Y-117246061D01*
X107296000Y-117449939D01*
X107335774Y-117649898D01*
X107413795Y-117838256D01*
X107527063Y-118007774D01*
X107671226Y-118151937D01*
X107840744Y-118265205D01*
X108029102Y-118343226D01*
X108229061Y-118383000D01*
X108432939Y-118383000D01*
X108632898Y-118343226D01*
X108821256Y-118265205D01*
X108990774Y-118151937D01*
X109134937Y-118007774D01*
X109248205Y-117838256D01*
X109326226Y-117649898D01*
X109366000Y-117449939D01*
X109366000Y-117246061D01*
X109326226Y-117046102D01*
X109266000Y-116900705D01*
X109266000Y-88501905D01*
X116667000Y-95902905D01*
X116667001Y-107777058D01*
X116662476Y-107823000D01*
X116680529Y-108006291D01*
X116698801Y-108066525D01*
X116733994Y-108182540D01*
X116820815Y-108344972D01*
X116937657Y-108487344D01*
X116973336Y-108516625D01*
X120096000Y-111639290D01*
X120096001Y-116519702D01*
X120035774Y-116665102D01*
X119996000Y-116865061D01*
X119996000Y-117068939D01*
X120035774Y-117268898D01*
X120113795Y-117457256D01*
X120227063Y-117626774D01*
X120371226Y-117770937D01*
X120540744Y-117884205D01*
X120729102Y-117962226D01*
X120929061Y-118002000D01*
X121132939Y-118002000D01*
X121332898Y-117962226D01*
X121521256Y-117884205D01*
X121690774Y-117770937D01*
X121834937Y-117626774D01*
X121948205Y-117457256D01*
X122026226Y-117268898D01*
X122066000Y-117068939D01*
X122066000Y-116865061D01*
X122026226Y-116665102D01*
X121966000Y-116519705D01*
X121966000Y-116275512D01*
X125026783Y-116275512D01*
X125068213Y-116555130D01*
X125163397Y-116821292D01*
X125230329Y-116946514D01*
X125474298Y-117018097D01*
X126287395Y-116205000D01*
X126646605Y-116205000D01*
X127459702Y-117018097D01*
X127703671Y-116946514D01*
X127824571Y-116691004D01*
X127893300Y-116416816D01*
X127907217Y-116134488D01*
X127865787Y-115854870D01*
X127770603Y-115588708D01*
X127703671Y-115463486D01*
X127459702Y-115391903D01*
X126646605Y-116205000D01*
X126287395Y-116205000D01*
X125474298Y-115391903D01*
X125230329Y-115463486D01*
X125109429Y-115718996D01*
X125040700Y-115993184D01*
X125026783Y-116275512D01*
X121966000Y-116275512D01*
X121966000Y-111297931D01*
X121970524Y-111251999D01*
X121952471Y-111068707D01*
X121936253Y-111015243D01*
X121899007Y-110892460D01*
X121812186Y-110730028D01*
X121695344Y-110587656D01*
X121659666Y-110558376D01*
X118537000Y-107435711D01*
X118537000Y-107057289D01*
X125032000Y-113552289D01*
X125032000Y-113806335D01*
X125087147Y-114083574D01*
X125195320Y-114344727D01*
X125352363Y-114579759D01*
X125552241Y-114779637D01*
X125786128Y-114935915D01*
X125725486Y-114968329D01*
X125653903Y-115212298D01*
X126467000Y-116025395D01*
X127280097Y-115212298D01*
X127208514Y-114968329D01*
X127144008Y-114937806D01*
X127146727Y-114936680D01*
X127381759Y-114779637D01*
X127581637Y-114579759D01*
X127624907Y-114515000D01*
X132496928Y-114515000D01*
X132509188Y-114639482D01*
X132545498Y-114759180D01*
X132604463Y-114869494D01*
X132683815Y-114966185D01*
X132780506Y-115045537D01*
X132890820Y-115104502D01*
X133010518Y-115140812D01*
X133135000Y-115153072D01*
X133699250Y-115150000D01*
X133858000Y-114991250D01*
X133858000Y-113792000D01*
X134112000Y-113792000D01*
X134112000Y-114991250D01*
X134270750Y-115150000D01*
X134835000Y-115153072D01*
X134959482Y-115140812D01*
X135079180Y-115104502D01*
X135189494Y-115045537D01*
X135286185Y-114966185D01*
X135365537Y-114869494D01*
X135424502Y-114759180D01*
X135460812Y-114639482D01*
X135473072Y-114515000D01*
X135470000Y-113950750D01*
X135311250Y-113792000D01*
X134112000Y-113792000D01*
X133858000Y-113792000D01*
X132658750Y-113792000D01*
X132500000Y-113950750D01*
X132496928Y-114515000D01*
X127624907Y-114515000D01*
X127738680Y-114344727D01*
X127846853Y-114083574D01*
X127902000Y-113806335D01*
X127902000Y-113523665D01*
X127846853Y-113246426D01*
X127738680Y-112985273D01*
X127581637Y-112750241D01*
X127381759Y-112550363D01*
X127149241Y-112395000D01*
X127381759Y-112239637D01*
X127561396Y-112060000D01*
X132823753Y-112060000D01*
X132831525Y-112071632D01*
X132963380Y-112203487D01*
X132890820Y-112225498D01*
X132780506Y-112284463D01*
X132683815Y-112363815D01*
X132604463Y-112460506D01*
X132545498Y-112570820D01*
X132509188Y-112690518D01*
X132496928Y-112815000D01*
X132500000Y-113379250D01*
X132658750Y-113538000D01*
X133858000Y-113538000D01*
X133858000Y-113518000D01*
X134112000Y-113518000D01*
X134112000Y-113538000D01*
X135311250Y-113538000D01*
X135470000Y-113379250D01*
X135473072Y-112815000D01*
X135460812Y-112690518D01*
X135424502Y-112570820D01*
X135365537Y-112460506D01*
X135286185Y-112363815D01*
X135189494Y-112284463D01*
X135079180Y-112225498D01*
X135006620Y-112203487D01*
X135138475Y-112071632D01*
X135300990Y-111828411D01*
X135412932Y-111558158D01*
X135470000Y-111271260D01*
X135470000Y-110978740D01*
X135412932Y-110691842D01*
X135300990Y-110421589D01*
X135138475Y-110178368D01*
X134931632Y-109971525D01*
X134757240Y-109855000D01*
X134931632Y-109738475D01*
X135138475Y-109531632D01*
X135300990Y-109288411D01*
X135412932Y-109018158D01*
X135470000Y-108731260D01*
X135470000Y-108438740D01*
X135412932Y-108151842D01*
X135300990Y-107881589D01*
X135138475Y-107638368D01*
X134931632Y-107431525D01*
X134757240Y-107315000D01*
X134931632Y-107198475D01*
X135138475Y-106991632D01*
X135300990Y-106748411D01*
X135412932Y-106478158D01*
X135449920Y-106292209D01*
X142054375Y-112896665D01*
X142083656Y-112932344D01*
X142226028Y-113049186D01*
X142388460Y-113136007D01*
X142492197Y-113167475D01*
X142564707Y-113189471D01*
X142583110Y-113191283D01*
X142702068Y-113203000D01*
X142702074Y-113203000D01*
X142747999Y-113207523D01*
X142793924Y-113203000D01*
X147944728Y-113203000D01*
X147820977Y-113326751D01*
X147669515Y-113553430D01*
X147565186Y-113805302D01*
X147512000Y-114072688D01*
X147512000Y-114345312D01*
X147565186Y-114612698D01*
X147669515Y-114864570D01*
X147820977Y-115091249D01*
X147961001Y-115231273D01*
X147961000Y-117556000D01*
X147747482Y-117556000D01*
X147727079Y-117535597D01*
X147525623Y-117400989D01*
X147301778Y-117308269D01*
X147064144Y-117261000D01*
X146821856Y-117261000D01*
X146584222Y-117308269D01*
X146360377Y-117400989D01*
X146158921Y-117535597D01*
X146138518Y-117556000D01*
X144063931Y-117556000D01*
X144017999Y-117551476D01*
X143834707Y-117569529D01*
X143784191Y-117584853D01*
X143658460Y-117622993D01*
X143496028Y-117709814D01*
X143353656Y-117826656D01*
X143324374Y-117862336D01*
X138944336Y-122242375D01*
X138908657Y-122271656D01*
X138791815Y-122414028D01*
X138715567Y-122556680D01*
X138704994Y-122576460D01*
X138651529Y-122752709D01*
X138633476Y-122936000D01*
X138638001Y-122981942D01*
X138638000Y-132581710D01*
X136772711Y-134447000D01*
X135896289Y-134447000D01*
X135746067Y-134296778D01*
X135849491Y-134321087D01*
X136091635Y-134329447D01*
X136330758Y-134290405D01*
X136557670Y-134205464D01*
X136632884Y-134165261D01*
X136679581Y-133942186D01*
X136013000Y-133275605D01*
X135998858Y-133289748D01*
X135819253Y-133110143D01*
X135833395Y-133096000D01*
X136192605Y-133096000D01*
X136859186Y-133762581D01*
X137082261Y-133715884D01*
X137182649Y-133495370D01*
X137238087Y-133259509D01*
X137246447Y-133017365D01*
X137207405Y-132778242D01*
X137122464Y-132551330D01*
X137082261Y-132476116D01*
X136859186Y-132429419D01*
X136192605Y-133096000D01*
X135833395Y-133096000D01*
X135166814Y-132429419D01*
X134943739Y-132476116D01*
X134843351Y-132696630D01*
X134793000Y-132910848D01*
X134793000Y-132607533D01*
X134797524Y-132561601D01*
X134779471Y-132378310D01*
X134760210Y-132314815D01*
X134740493Y-132249814D01*
X135346419Y-132249814D01*
X136013000Y-132916395D01*
X136679581Y-132249814D01*
X136632884Y-132026739D01*
X136412370Y-131926351D01*
X136176509Y-131870913D01*
X135934365Y-131862553D01*
X135695242Y-131901595D01*
X135468330Y-131986536D01*
X135393116Y-132026739D01*
X135346419Y-132249814D01*
X134740493Y-132249814D01*
X134726007Y-132202062D01*
X134666000Y-132089796D01*
X134666000Y-131134931D01*
X134670524Y-131088999D01*
X134652471Y-130905707D01*
X134614537Y-130780656D01*
X134599007Y-130729460D01*
X134512186Y-130567028D01*
X134395344Y-130424656D01*
X134359666Y-130395376D01*
X130667476Y-126703186D01*
X135346419Y-126703186D01*
X135393116Y-126926261D01*
X135613630Y-127026649D01*
X135849491Y-127082087D01*
X136091635Y-127090447D01*
X136330758Y-127051405D01*
X136557670Y-126966464D01*
X136632884Y-126926261D01*
X136679581Y-126703186D01*
X136013000Y-126036605D01*
X135346419Y-126703186D01*
X130667476Y-126703186D01*
X129899925Y-125935635D01*
X134779553Y-125935635D01*
X134818595Y-126174758D01*
X134903536Y-126401670D01*
X134943739Y-126476884D01*
X135166814Y-126523581D01*
X135833395Y-125857000D01*
X136192605Y-125857000D01*
X136859186Y-126523581D01*
X137082261Y-126476884D01*
X137182649Y-126256370D01*
X137238087Y-126020509D01*
X137246447Y-125778365D01*
X137207405Y-125539242D01*
X137122464Y-125312330D01*
X137082261Y-125237116D01*
X136859186Y-125190419D01*
X136192605Y-125857000D01*
X135833395Y-125857000D01*
X135166814Y-125190419D01*
X134943739Y-125237116D01*
X134843351Y-125457630D01*
X134787913Y-125693491D01*
X134779553Y-125935635D01*
X129899925Y-125935635D01*
X128975104Y-125010814D01*
X135346419Y-125010814D01*
X136013000Y-125677395D01*
X136679581Y-125010814D01*
X136632884Y-124787739D01*
X136412370Y-124687351D01*
X136176509Y-124631913D01*
X135934365Y-124623553D01*
X135695242Y-124662595D01*
X135468330Y-124747536D01*
X135393116Y-124787739D01*
X135346419Y-125010814D01*
X128975104Y-125010814D01*
X128101858Y-124137568D01*
X128141073Y-124008292D01*
X128159126Y-123825000D01*
X128141073Y-123641708D01*
X128087609Y-123465460D01*
X128000788Y-123303028D01*
X127883946Y-123160656D01*
X127741574Y-123043814D01*
X127631617Y-122985041D01*
X127581637Y-122910241D01*
X127381759Y-122710363D01*
X127149241Y-122555000D01*
X127381759Y-122399637D01*
X127581637Y-122199759D01*
X127738680Y-121964727D01*
X127846853Y-121703574D01*
X127902000Y-121426335D01*
X127902000Y-121143665D01*
X127846853Y-120866426D01*
X127738680Y-120605273D01*
X127581637Y-120370241D01*
X127381759Y-120170363D01*
X127149241Y-120015000D01*
X127381759Y-119859637D01*
X127581637Y-119659759D01*
X127738680Y-119424727D01*
X127774940Y-119337186D01*
X135346419Y-119337186D01*
X135393116Y-119560261D01*
X135613630Y-119660649D01*
X135849491Y-119716087D01*
X136091635Y-119724447D01*
X136330758Y-119685405D01*
X136557670Y-119600464D01*
X136632884Y-119560261D01*
X136679581Y-119337186D01*
X136013000Y-118670605D01*
X135346419Y-119337186D01*
X127774940Y-119337186D01*
X127846853Y-119163574D01*
X127902000Y-118886335D01*
X127902000Y-118603665D01*
X127895231Y-118569635D01*
X134779553Y-118569635D01*
X134818595Y-118808758D01*
X134903536Y-119035670D01*
X134943739Y-119110884D01*
X135166814Y-119157581D01*
X135833395Y-118491000D01*
X136192605Y-118491000D01*
X136859186Y-119157581D01*
X137082261Y-119110884D01*
X137182649Y-118890370D01*
X137238087Y-118654509D01*
X137246447Y-118412365D01*
X137207405Y-118173242D01*
X137122464Y-117946330D01*
X137082261Y-117871116D01*
X136859186Y-117824419D01*
X136192605Y-118491000D01*
X135833395Y-118491000D01*
X135166814Y-117824419D01*
X134943739Y-117871116D01*
X134843351Y-118091630D01*
X134787913Y-118327491D01*
X134779553Y-118569635D01*
X127895231Y-118569635D01*
X127846853Y-118326426D01*
X127738680Y-118065273D01*
X127581637Y-117830241D01*
X127396210Y-117644814D01*
X135346419Y-117644814D01*
X136013000Y-118311395D01*
X136679581Y-117644814D01*
X136632884Y-117421739D01*
X136412370Y-117321351D01*
X136176509Y-117265913D01*
X135934365Y-117257553D01*
X135695242Y-117296595D01*
X135468330Y-117381536D01*
X135393116Y-117421739D01*
X135346419Y-117644814D01*
X127396210Y-117644814D01*
X127381759Y-117630363D01*
X127147872Y-117474085D01*
X127208514Y-117441671D01*
X127280097Y-117197702D01*
X126467000Y-116384605D01*
X125653903Y-117197702D01*
X125725486Y-117441671D01*
X125789992Y-117472194D01*
X125787273Y-117473320D01*
X125552241Y-117630363D01*
X125352363Y-117830241D01*
X125195320Y-118065273D01*
X125087147Y-118326426D01*
X125032000Y-118603665D01*
X125032000Y-118857711D01*
X124682711Y-119207000D01*
X121478295Y-119207000D01*
X121332898Y-119146774D01*
X121132939Y-119107000D01*
X120929061Y-119107000D01*
X120729102Y-119146774D01*
X120540744Y-119224795D01*
X120371226Y-119338063D01*
X120227063Y-119482226D01*
X120113795Y-119651744D01*
X120035774Y-119840102D01*
X119996000Y-120040061D01*
X119996000Y-120243939D01*
X120017097Y-120350000D01*
X109607289Y-120350000D01*
X109308431Y-120051142D01*
X109248205Y-119905744D01*
X109134937Y-119736226D01*
X108990774Y-119592063D01*
X108821256Y-119478795D01*
X108632898Y-119400774D01*
X108432939Y-119361000D01*
X108229061Y-119361000D01*
X108029102Y-119400774D01*
X107840744Y-119478795D01*
X107671226Y-119592063D01*
X107527063Y-119736226D01*
X107413795Y-119905744D01*
X107335774Y-120094102D01*
X107296000Y-120294061D01*
X107296000Y-120497939D01*
X107335774Y-120697898D01*
X107413795Y-120886256D01*
X107527063Y-121055774D01*
X107671226Y-121199937D01*
X107840744Y-121313205D01*
X107986142Y-121373431D01*
X108526370Y-121913659D01*
X108555656Y-121949344D01*
X108698028Y-122066186D01*
X108860460Y-122153007D01*
X109026400Y-122203344D01*
X109036708Y-122206471D01*
X109220000Y-122224524D01*
X109265932Y-122220000D01*
X125372604Y-122220000D01*
X125552241Y-122399637D01*
X125784759Y-122555000D01*
X125552241Y-122710363D01*
X125352363Y-122910241D01*
X125195320Y-123145273D01*
X125087147Y-123406426D01*
X125032000Y-123683665D01*
X125032000Y-123966335D01*
X125087147Y-124243574D01*
X125195320Y-124504727D01*
X125352363Y-124739759D01*
X125552241Y-124939637D01*
X125784759Y-125095000D01*
X125552241Y-125250363D01*
X125352363Y-125450241D01*
X125195320Y-125685273D01*
X125087147Y-125946426D01*
X125032000Y-126223665D01*
X125032000Y-126506335D01*
X125087147Y-126783574D01*
X125195320Y-127044727D01*
X125352363Y-127279759D01*
X125552241Y-127479637D01*
X125784759Y-127635000D01*
X125552241Y-127790363D01*
X125352363Y-127990241D01*
X125195320Y-128225273D01*
X125087147Y-128486426D01*
X125032000Y-128763665D01*
X125032000Y-129046335D01*
X125087147Y-129323574D01*
X125195320Y-129584727D01*
X125352363Y-129819759D01*
X125552241Y-130019637D01*
X125786128Y-130175915D01*
X125725486Y-130208329D01*
X125653903Y-130452298D01*
X126467000Y-131265395D01*
X126481143Y-131251253D01*
X126660748Y-131430858D01*
X126646605Y-131445000D01*
X127459702Y-132258097D01*
X127703671Y-132186514D01*
X127824571Y-131931004D01*
X127893300Y-131656816D01*
X127893452Y-131653741D01*
X130002000Y-133762289D01*
X130002001Y-134574059D01*
X129997476Y-134620000D01*
X130015529Y-134803291D01*
X130046829Y-134906471D01*
X130068994Y-134979540D01*
X130155815Y-135141972D01*
X130272657Y-135284344D01*
X130308336Y-135313625D01*
X132988720Y-137994009D01*
X101343299Y-137994009D01*
X98044002Y-134694713D01*
X98044002Y-134676252D01*
X98202750Y-134835000D01*
X98767000Y-134838072D01*
X98891482Y-134825812D01*
X99011180Y-134789502D01*
X99121494Y-134730537D01*
X99218185Y-134651185D01*
X99297537Y-134554494D01*
X99356502Y-134444180D01*
X99392812Y-134324482D01*
X99405072Y-134200000D01*
X99402000Y-133635750D01*
X99243250Y-133477000D01*
X98044000Y-133477000D01*
X98044000Y-133497000D01*
X97790000Y-133497000D01*
X97790000Y-133477000D01*
X97770000Y-133477000D01*
X97770000Y-133223000D01*
X97790000Y-133223000D01*
X97790000Y-133203000D01*
X98044000Y-133203000D01*
X98044000Y-133223000D01*
X99243250Y-133223000D01*
X99402000Y-133064250D01*
X99405072Y-132500000D01*
X99393253Y-132380000D01*
X102872604Y-132380000D01*
X103052241Y-132559637D01*
X103287273Y-132716680D01*
X103548426Y-132824853D01*
X103825665Y-132880000D01*
X104108335Y-132880000D01*
X104385574Y-132824853D01*
X104646727Y-132716680D01*
X104881759Y-132559637D01*
X105003694Y-132437702D01*
X125653903Y-132437702D01*
X125725486Y-132681671D01*
X125980996Y-132802571D01*
X126255184Y-132871300D01*
X126537512Y-132885217D01*
X126817130Y-132843787D01*
X127083292Y-132748603D01*
X127208514Y-132681671D01*
X127280097Y-132437702D01*
X126467000Y-131624605D01*
X125653903Y-132437702D01*
X105003694Y-132437702D01*
X105081637Y-132359759D01*
X105238680Y-132124727D01*
X105346853Y-131863574D01*
X105402000Y-131586335D01*
X105402000Y-131515512D01*
X125026783Y-131515512D01*
X125068213Y-131795130D01*
X125163397Y-132061292D01*
X125230329Y-132186514D01*
X125474298Y-132258097D01*
X126287395Y-131445000D01*
X125474298Y-130631903D01*
X125230329Y-130703486D01*
X125109429Y-130958996D01*
X125040700Y-131233184D01*
X125026783Y-131515512D01*
X105402000Y-131515512D01*
X105402000Y-131303665D01*
X105346853Y-131026426D01*
X105238680Y-130765273D01*
X105081637Y-130530241D01*
X104881759Y-130330363D01*
X104649241Y-130175000D01*
X104881759Y-130019637D01*
X105081637Y-129819759D01*
X105238680Y-129584727D01*
X105346853Y-129323574D01*
X105402000Y-129046335D01*
X105402000Y-128763665D01*
X105346853Y-128486426D01*
X105238680Y-128225273D01*
X105081637Y-127990241D01*
X104881759Y-127790363D01*
X104649241Y-127635000D01*
X104881759Y-127479637D01*
X105081637Y-127279759D01*
X105238680Y-127044727D01*
X105346853Y-126783574D01*
X105402000Y-126506335D01*
X105402000Y-126223665D01*
X105346853Y-125946426D01*
X105238680Y-125685273D01*
X105081637Y-125450241D01*
X104881759Y-125250363D01*
X104649241Y-125095000D01*
X104881759Y-124939637D01*
X105081637Y-124739759D01*
X105238680Y-124504727D01*
X105346853Y-124243574D01*
X105402000Y-123966335D01*
X105402000Y-123683665D01*
X105346853Y-123406426D01*
X105238680Y-123145273D01*
X105081637Y-122910241D01*
X104881759Y-122710363D01*
X104649241Y-122555000D01*
X104881759Y-122399637D01*
X105081637Y-122199759D01*
X105238680Y-121964727D01*
X105346853Y-121703574D01*
X105402000Y-121426335D01*
X105402000Y-121143665D01*
X105346853Y-120866426D01*
X105238680Y-120605273D01*
X105081637Y-120370241D01*
X104881759Y-120170363D01*
X104647872Y-120014085D01*
X104708514Y-119981671D01*
X104780097Y-119737702D01*
X103967000Y-118924605D01*
X103153903Y-119737702D01*
X103225486Y-119981671D01*
X103289992Y-120012194D01*
X103287273Y-120013320D01*
X103052241Y-120170363D01*
X102852363Y-120370241D01*
X102695320Y-120605273D01*
X102587147Y-120866426D01*
X102532000Y-121143665D01*
X102532000Y-121397711D01*
X98626711Y-125303000D01*
X93056515Y-125303000D01*
X93070226Y-125269898D01*
X93110000Y-125069939D01*
X93110000Y-124866061D01*
X93070226Y-124666102D01*
X93010000Y-124520705D01*
X93010000Y-106432289D01*
X95055080Y-104387209D01*
X95092068Y-104573158D01*
X95204010Y-104843411D01*
X95366525Y-105086632D01*
X95573368Y-105293475D01*
X95747760Y-105410000D01*
X95573368Y-105526525D01*
X95366525Y-105733368D01*
X95204010Y-105976589D01*
X95092068Y-106246842D01*
X95035000Y-106533740D01*
X95035000Y-106826260D01*
X95092068Y-107113158D01*
X95204010Y-107383411D01*
X95366525Y-107626632D01*
X95573368Y-107833475D01*
X95747760Y-107950000D01*
X95573368Y-108066525D01*
X95366525Y-108273368D01*
X95204010Y-108516589D01*
X95092068Y-108786842D01*
X95035000Y-109073740D01*
X95035000Y-109366260D01*
X95092068Y-109653158D01*
X95204010Y-109923411D01*
X95366525Y-110166632D01*
X95573368Y-110373475D01*
X95747760Y-110490000D01*
X95573368Y-110606525D01*
X95366525Y-110813368D01*
X95204010Y-111056589D01*
X95092068Y-111326842D01*
X95035000Y-111613740D01*
X95035000Y-111906260D01*
X95092068Y-112193158D01*
X95204010Y-112463411D01*
X95366525Y-112706632D01*
X95573368Y-112913475D01*
X95747760Y-113030000D01*
X95573368Y-113146525D01*
X95366525Y-113353368D01*
X95204010Y-113596589D01*
X95092068Y-113866842D01*
X95035000Y-114153740D01*
X95035000Y-114446260D01*
X95092068Y-114733158D01*
X95204010Y-115003411D01*
X95366525Y-115246632D01*
X95573368Y-115453475D01*
X95747760Y-115570000D01*
X95573368Y-115686525D01*
X95366525Y-115893368D01*
X95204010Y-116136589D01*
X95092068Y-116406842D01*
X95035000Y-116693740D01*
X95035000Y-116986260D01*
X95092068Y-117273158D01*
X95204010Y-117543411D01*
X95366525Y-117786632D01*
X95573368Y-117993475D01*
X95747760Y-118110000D01*
X95573368Y-118226525D01*
X95366525Y-118433368D01*
X95204010Y-118676589D01*
X95092068Y-118946842D01*
X95035000Y-119233740D01*
X95035000Y-119526260D01*
X95092068Y-119813158D01*
X95204010Y-120083411D01*
X95366525Y-120326632D01*
X95573368Y-120533475D01*
X95747760Y-120650000D01*
X95573368Y-120766525D01*
X95366525Y-120973368D01*
X95204010Y-121216589D01*
X95092068Y-121486842D01*
X95035000Y-121773740D01*
X95035000Y-122066260D01*
X95092068Y-122353158D01*
X95204010Y-122623411D01*
X95366525Y-122866632D01*
X95573368Y-123073475D01*
X95816589Y-123235990D01*
X96086842Y-123347932D01*
X96373740Y-123405000D01*
X96666260Y-123405000D01*
X96953158Y-123347932D01*
X97223411Y-123235990D01*
X97466632Y-123073475D01*
X97673475Y-122866632D01*
X97681247Y-122855000D01*
X98206068Y-122855000D01*
X98252000Y-122859524D01*
X98297932Y-122855000D01*
X98435292Y-122841471D01*
X98611540Y-122788007D01*
X98773972Y-122701186D01*
X98916344Y-122584344D01*
X98945630Y-122548659D01*
X102546397Y-118947892D01*
X102568213Y-119095130D01*
X102663397Y-119361292D01*
X102730329Y-119486514D01*
X102974298Y-119558097D01*
X103787395Y-118745000D01*
X104146605Y-118745000D01*
X104959702Y-119558097D01*
X105203671Y-119486514D01*
X105324571Y-119231004D01*
X105393300Y-118956816D01*
X105407217Y-118674488D01*
X105365787Y-118394870D01*
X105270603Y-118128708D01*
X105203671Y-118003486D01*
X104959702Y-117931903D01*
X104146605Y-118745000D01*
X103787395Y-118745000D01*
X103773253Y-118730858D01*
X103952858Y-118551253D01*
X103967000Y-118565395D01*
X104780097Y-117752298D01*
X104708514Y-117508329D01*
X104644008Y-117477806D01*
X104646727Y-117476680D01*
X104881759Y-117319637D01*
X105081637Y-117119759D01*
X105238680Y-116884727D01*
X105346853Y-116623574D01*
X105402000Y-116346335D01*
X105402000Y-116063665D01*
X105346853Y-115786426D01*
X105238680Y-115525273D01*
X105081637Y-115290241D01*
X104881759Y-115090363D01*
X104649241Y-114935000D01*
X104881759Y-114779637D01*
X105081637Y-114579759D01*
X105238680Y-114344727D01*
X105346853Y-114083574D01*
X105402000Y-113806335D01*
X105402000Y-113523665D01*
X105346853Y-113246426D01*
X105238680Y-112985273D01*
X105081637Y-112750241D01*
X104881759Y-112550363D01*
X104649241Y-112395000D01*
X104881759Y-112239637D01*
X105081637Y-112039759D01*
X105238680Y-111804727D01*
X105346853Y-111543574D01*
X105402000Y-111266335D01*
X105402000Y-110983665D01*
X105346853Y-110706426D01*
X105238680Y-110445273D01*
X105081637Y-110210241D01*
X104881759Y-110010363D01*
X104649241Y-109855000D01*
X104881759Y-109699637D01*
X105081637Y-109499759D01*
X105238680Y-109264727D01*
X105346853Y-109003574D01*
X105402000Y-108726335D01*
X105402000Y-108443665D01*
X105346853Y-108166426D01*
X105238680Y-107905273D01*
X105081637Y-107670241D01*
X104881759Y-107470363D01*
X104649241Y-107315000D01*
X104881759Y-107159637D01*
X105081637Y-106959759D01*
X105238680Y-106724727D01*
X105346853Y-106463574D01*
X105402000Y-106186335D01*
X105402000Y-105903665D01*
X105346853Y-105626426D01*
X105238680Y-105365273D01*
X105081637Y-105130241D01*
X104881759Y-104930363D01*
X104649241Y-104775000D01*
X104881759Y-104619637D01*
X105081637Y-104419759D01*
X105238680Y-104184727D01*
X105346853Y-103923574D01*
X105402000Y-103646335D01*
X105402000Y-103363665D01*
X105346853Y-103086426D01*
X105238680Y-102825273D01*
X105081637Y-102590241D01*
X104881759Y-102390363D01*
X104649241Y-102235000D01*
X104881759Y-102079637D01*
X105081637Y-101879759D01*
X105238680Y-101644727D01*
X105346853Y-101383574D01*
X105402000Y-101106335D01*
X105402000Y-100823665D01*
X105346853Y-100546426D01*
X105238680Y-100285273D01*
X105081637Y-100050241D01*
X104881759Y-99850363D01*
X104649241Y-99695000D01*
X104881759Y-99539637D01*
X105081637Y-99339759D01*
X105238680Y-99104727D01*
X105346853Y-98843574D01*
X105402000Y-98566335D01*
X105402000Y-98283665D01*
X105346853Y-98006426D01*
X105238680Y-97745273D01*
X105081637Y-97510241D01*
X104881759Y-97310363D01*
X104649241Y-97155000D01*
X104881759Y-96999637D01*
X105081637Y-96799759D01*
X105238680Y-96564727D01*
X105346853Y-96303574D01*
X105402000Y-96026335D01*
X105402000Y-95743665D01*
X105346853Y-95466426D01*
X105238680Y-95205273D01*
X105081637Y-94970241D01*
X104881759Y-94770363D01*
X104649241Y-94615000D01*
X104881759Y-94459637D01*
X105081637Y-94259759D01*
X105238680Y-94024727D01*
X105346853Y-93763574D01*
X105402000Y-93486335D01*
X105402000Y-93203665D01*
X105346853Y-92926426D01*
X105238680Y-92665273D01*
X105081637Y-92430241D01*
X104881759Y-92230363D01*
X104649241Y-92075000D01*
X104881759Y-91919637D01*
X105081637Y-91719759D01*
X105238680Y-91484727D01*
X105346853Y-91223574D01*
X105402000Y-90946335D01*
X105402000Y-90663665D01*
X105346853Y-90386426D01*
X105238680Y-90125273D01*
X105081637Y-89890241D01*
X104881759Y-89690363D01*
X104649241Y-89535000D01*
X104881759Y-89379637D01*
X105081637Y-89179759D01*
X105238680Y-88944727D01*
X105346853Y-88683574D01*
X105402000Y-88406335D01*
X105402000Y-88123665D01*
X105346853Y-87846426D01*
X105238680Y-87585273D01*
X105081637Y-87350241D01*
X104883039Y-87151643D01*
X104891482Y-87150812D01*
X105011180Y-87114502D01*
X105121494Y-87055537D01*
X105218185Y-86976185D01*
X105297537Y-86879494D01*
X105356502Y-86769180D01*
X105392812Y-86649482D01*
X105405072Y-86525000D01*
X105405072Y-85772361D01*
X107396000Y-87763289D01*
G37*
%TD.AperFunction*%
D23*
X148489222Y-91273269D02*
X148265377Y-91365989D01*
X148063921Y-91500597D01*
X147892597Y-91671921D01*
X147757989Y-91873377D01*
X147665269Y-92097222D01*
X147618000Y-92334856D01*
X147618000Y-92577144D01*
X147665269Y-92814778D01*
X147757989Y-93038623D01*
X147892597Y-93240079D01*
X148063921Y-93411403D01*
X148265377Y-93546011D01*
X148489222Y-93638731D01*
X148726856Y-93686000D01*
X148969144Y-93686000D01*
X149206778Y-93638731D01*
X149430623Y-93546011D01*
X149632079Y-93411403D01*
X149652482Y-93391000D01*
X151033211Y-93391000D01*
X151347428Y-93705217D01*
X151347428Y-94431000D01*
X151359688Y-94555482D01*
X151395998Y-94675180D01*
X151454963Y-94785494D01*
X151534315Y-94882185D01*
X151631006Y-94961537D01*
X151741320Y-95020502D01*
X151861018Y-95056812D01*
X151985500Y-95069072D01*
X152078550Y-95069072D01*
X152055772Y-95078507D01*
X151836300Y-95225154D01*
X151730454Y-95331000D01*
X149652482Y-95331000D01*
X149632079Y-95310597D01*
X149430623Y-95175989D01*
X149206778Y-95083269D01*
X148969144Y-95036000D01*
X148726856Y-95036000D01*
X148489222Y-95083269D01*
X148265377Y-95175989D01*
X148063921Y-95310597D01*
X147892597Y-95481921D01*
X147757989Y-95683377D01*
X147665269Y-95907222D01*
X147618000Y-96144856D01*
X147618000Y-96387144D01*
X147665269Y-96624778D01*
X147757989Y-96848623D01*
X147892597Y-97050079D01*
X148063921Y-97221403D01*
X148265377Y-97356011D01*
X148489222Y-97448731D01*
X148726856Y-97496000D01*
X148969144Y-97496000D01*
X149206778Y-97448731D01*
X149430623Y-97356011D01*
X149632079Y-97221403D01*
X149652482Y-97201000D01*
X151730454Y-97201000D01*
X151836300Y-97306846D01*
X152055772Y-97453493D01*
X152258181Y-97537334D01*
X152107385Y-97592330D01*
X152005330Y-97646879D01*
X151945262Y-97881157D01*
X152690500Y-98626395D01*
X153435738Y-97881157D01*
X153375670Y-97646879D01*
X153136370Y-97535482D01*
X153130656Y-97534088D01*
X153325228Y-97453493D01*
X153544700Y-97306846D01*
X153731346Y-97120200D01*
X153877993Y-96900728D01*
X153979005Y-96656864D01*
X154030500Y-96397979D01*
X154030500Y-96134021D01*
X153979005Y-95875136D01*
X153877993Y-95631272D01*
X153731346Y-95411800D01*
X153544700Y-95225154D01*
X153325228Y-95078507D01*
X153302450Y-95069072D01*
X153395500Y-95069072D01*
X153519982Y-95056812D01*
X153639680Y-95020502D01*
X153749994Y-94961537D01*
X153846685Y-94882185D01*
X153926037Y-94785494D01*
X153985002Y-94675180D01*
X153989303Y-94661000D01*
X156882773Y-94661000D01*
X156816795Y-94759744D01*
X156738774Y-94948102D01*
X156699000Y-95148061D01*
X156699000Y-95351939D01*
X156738774Y-95551898D01*
X156799000Y-95697295D01*
X156799001Y-105089702D01*
X156738774Y-105235102D01*
X156699000Y-105435061D01*
X156699000Y-105638939D01*
X156738774Y-105838898D01*
X156816795Y-106027256D01*
X156930063Y-106196774D01*
X157074226Y-106340937D01*
X157132210Y-106379681D01*
X157212029Y-106445186D01*
X157374461Y-106532007D01*
X157550709Y-106585471D01*
X157734000Y-106603524D01*
X157917292Y-106585471D01*
X158093540Y-106532007D01*
X158255972Y-106445186D01*
X158335792Y-106379679D01*
X158393774Y-106340937D01*
X158537937Y-106196774D01*
X158651205Y-106027256D01*
X158729226Y-105838898D01*
X158769000Y-105638939D01*
X158769000Y-105435061D01*
X158729226Y-105235102D01*
X158669000Y-105089705D01*
X158669000Y-95697295D01*
X158729226Y-95551898D01*
X158731944Y-95538233D01*
X159807729Y-96614018D01*
X159805000Y-96627740D01*
X159805000Y-96920260D01*
X159862068Y-97207158D01*
X159974010Y-97477411D01*
X160136525Y-97720632D01*
X160343368Y-97927475D01*
X160517760Y-98044000D01*
X160343368Y-98160525D01*
X160136525Y-98367368D01*
X159974010Y-98610589D01*
X159862068Y-98880842D01*
X159805000Y-99167740D01*
X159805000Y-99460260D01*
X159862068Y-99747158D01*
X159974010Y-100017411D01*
X160136525Y-100260632D01*
X160343368Y-100467475D01*
X160517760Y-100584000D01*
X160343368Y-100700525D01*
X160136525Y-100907368D01*
X159974010Y-101150589D01*
X159862068Y-101420842D01*
X159805000Y-101707740D01*
X159805000Y-102000260D01*
X159862068Y-102287158D01*
X159974010Y-102557411D01*
X160136525Y-102800632D01*
X160343368Y-103007475D01*
X160517760Y-103124000D01*
X160343368Y-103240525D01*
X160136525Y-103447368D01*
X159974010Y-103690589D01*
X159862068Y-103960842D01*
X159805000Y-104247740D01*
X159805000Y-104540260D01*
X159862068Y-104827158D01*
X159974010Y-105097411D01*
X160136525Y-105340632D01*
X160343368Y-105547475D01*
X160517760Y-105664000D01*
X160343368Y-105780525D01*
X160136525Y-105987368D01*
X159974010Y-106230589D01*
X159862068Y-106500842D01*
X159805000Y-106787740D01*
X159805000Y-107080260D01*
X159862068Y-107367158D01*
X159974010Y-107637411D01*
X160136525Y-107880632D01*
X160343368Y-108087475D01*
X160517760Y-108204000D01*
X160343368Y-108320525D01*
X160136525Y-108527368D01*
X159974010Y-108770589D01*
X159862068Y-109040842D01*
X159805000Y-109327740D01*
X159805000Y-109620260D01*
X159862068Y-109907158D01*
X159974010Y-110177411D01*
X160136525Y-110420632D01*
X160343368Y-110627475D01*
X160517760Y-110744000D01*
X160343368Y-110860525D01*
X160136525Y-111067368D01*
X159974010Y-111310589D01*
X159862068Y-111580842D01*
X159805000Y-111867740D01*
X159805000Y-112160260D01*
X159862068Y-112447158D01*
X159974010Y-112717411D01*
X160136525Y-112960632D01*
X160343368Y-113167475D01*
X160517760Y-113284000D01*
X160343368Y-113400525D01*
X160136525Y-113607368D01*
X159974010Y-113850589D01*
X159862068Y-114120842D01*
X159805000Y-114407740D01*
X159805000Y-114700260D01*
X159862068Y-114987158D01*
X159974010Y-115257411D01*
X160136525Y-115500632D01*
X160343368Y-115707475D01*
X160517760Y-115824000D01*
X160343368Y-115940525D01*
X160136525Y-116147368D01*
X159974010Y-116390589D01*
X159862068Y-116660842D01*
X159805000Y-116947740D01*
X159805000Y-117240260D01*
X159862068Y-117527158D01*
X159974010Y-117797411D01*
X160136525Y-118040632D01*
X160343368Y-118247475D01*
X160525534Y-118369195D01*
X160408645Y-118438822D01*
X160192412Y-118633731D01*
X160018359Y-118867080D01*
X159893175Y-119129901D01*
X159848524Y-119277110D01*
X159969845Y-119507000D01*
X161163000Y-119507000D01*
X161163000Y-119487000D01*
X161417000Y-119487000D01*
X161417000Y-119507000D01*
X162610155Y-119507000D01*
X162731476Y-119277110D01*
X162686825Y-119129901D01*
X162561641Y-118867080D01*
X162387588Y-118633731D01*
X162171355Y-118438822D01*
X162054466Y-118369195D01*
X162236632Y-118247475D01*
X162443475Y-118040632D01*
X162605990Y-117797411D01*
X162717932Y-117527158D01*
X162775000Y-117240260D01*
X162775000Y-116947740D01*
X162717932Y-116660842D01*
X162605990Y-116390589D01*
X162443475Y-116147368D01*
X162236632Y-115940525D01*
X162062240Y-115824000D01*
X162236632Y-115707475D01*
X162443475Y-115500632D01*
X162605990Y-115257411D01*
X162717932Y-114987158D01*
X162775000Y-114700260D01*
X162775000Y-114407740D01*
X162717932Y-114120842D01*
X162605990Y-113850589D01*
X162443475Y-113607368D01*
X162236632Y-113400525D01*
X162062240Y-113284000D01*
X162236632Y-113167475D01*
X162443475Y-112960632D01*
X162605990Y-112717411D01*
X162717932Y-112447158D01*
X162775000Y-112160260D01*
X162775000Y-111867740D01*
X162717932Y-111580842D01*
X162605990Y-111310589D01*
X162443475Y-111067368D01*
X162236632Y-110860525D01*
X162062240Y-110744000D01*
X162236632Y-110627475D01*
X162443475Y-110420632D01*
X162605990Y-110177411D01*
X162717932Y-109907158D01*
X162775000Y-109620260D01*
X162775000Y-109327740D01*
X162717932Y-109040842D01*
X162605990Y-108770589D01*
X162443475Y-108527368D01*
X162236632Y-108320525D01*
X162062240Y-108204000D01*
X162236632Y-108087475D01*
X162443475Y-107880632D01*
X162605990Y-107637411D01*
X162717932Y-107367158D01*
X162775000Y-107080260D01*
X162775000Y-106787740D01*
X162717932Y-106500842D01*
X162605990Y-106230589D01*
X162443475Y-105987368D01*
X162236632Y-105780525D01*
X162062240Y-105664000D01*
X162236632Y-105547475D01*
X162443475Y-105340632D01*
X162605990Y-105097411D01*
X162717932Y-104827158D01*
X162775000Y-104540260D01*
X162775000Y-104247740D01*
X162717932Y-103960842D01*
X162605990Y-103690589D01*
X162443475Y-103447368D01*
X162236632Y-103240525D01*
X162062240Y-103124000D01*
X162236632Y-103007475D01*
X162443475Y-102800632D01*
X162605990Y-102557411D01*
X162717932Y-102287158D01*
X162775000Y-102000260D01*
X162775000Y-101707740D01*
X162717932Y-101420842D01*
X162605990Y-101150589D01*
X162443475Y-100907368D01*
X162236632Y-100700525D01*
X162062240Y-100584000D01*
X162236632Y-100467475D01*
X162443475Y-100260632D01*
X162605990Y-100017411D01*
X162717932Y-99747158D01*
X162775000Y-99460260D01*
X162775000Y-99167740D01*
X162717932Y-98880842D01*
X162605990Y-98610589D01*
X162443475Y-98367368D01*
X162236632Y-98160525D01*
X162062240Y-98044000D01*
X162236632Y-97927475D01*
X162443475Y-97720632D01*
X162605990Y-97477411D01*
X162717932Y-97207158D01*
X162775000Y-96920260D01*
X162775000Y-96627740D01*
X162717932Y-96340842D01*
X162605990Y-96070589D01*
X162443475Y-95827368D01*
X162236632Y-95620525D01*
X162062240Y-95504000D01*
X162236632Y-95387475D01*
X162443475Y-95180632D01*
X162605990Y-94937411D01*
X162717932Y-94667158D01*
X162775000Y-94380260D01*
X162775000Y-94087740D01*
X162772271Y-94074018D01*
X163830000Y-93016289D01*
X163830000Y-125931710D01*
X162772271Y-124873981D01*
X162775000Y-124860260D01*
X162775000Y-124567740D01*
X162717932Y-124280842D01*
X162605990Y-124010589D01*
X162443475Y-123767368D01*
X162236632Y-123560525D01*
X162062240Y-123444000D01*
X162236632Y-123327475D01*
X162443475Y-123120632D01*
X162605990Y-122877411D01*
X162717932Y-122607158D01*
X162775000Y-122320260D01*
X162775000Y-122027740D01*
X162717932Y-121740842D01*
X162605990Y-121470589D01*
X162443475Y-121227368D01*
X162236632Y-121020525D01*
X162054466Y-120898805D01*
X162171355Y-120829178D01*
X162387588Y-120634269D01*
X162561641Y-120400920D01*
X162686825Y-120138099D01*
X162731476Y-119990890D01*
X162610155Y-119761000D01*
X161417000Y-119761000D01*
X161417000Y-119781000D01*
X161163000Y-119781000D01*
X161163000Y-119761000D01*
X159969845Y-119761000D01*
X159848524Y-119990890D01*
X159893175Y-120138099D01*
X160018359Y-120400920D01*
X160192412Y-120634269D01*
X160408645Y-120829178D01*
X160525534Y-120898805D01*
X160343368Y-121020525D01*
X160136525Y-121227368D01*
X159974010Y-121470589D01*
X159862068Y-121740842D01*
X159825080Y-121926791D01*
X159050000Y-121151711D01*
X159050000Y-115125413D01*
X159054524Y-115079478D01*
X159036472Y-114896186D01*
X158998193Y-114770000D01*
X158983007Y-114719938D01*
X158896186Y-114557506D01*
X158779344Y-114415134D01*
X158743660Y-114385849D01*
X152441152Y-108083341D01*
X152411866Y-108047656D01*
X152269494Y-107930814D01*
X152107062Y-107843993D01*
X151930814Y-107790529D01*
X151793454Y-107777000D01*
X151747522Y-107772476D01*
X151701590Y-107777000D01*
X147331768Y-107777000D01*
X147316537Y-107748506D01*
X147237185Y-107651815D01*
X147140494Y-107572463D01*
X147030180Y-107513498D01*
X146910482Y-107477188D01*
X146786000Y-107464928D01*
X145568000Y-107464928D01*
X145443518Y-107477188D01*
X145323820Y-107513498D01*
X145213506Y-107572463D01*
X145116815Y-107651815D01*
X145037463Y-107748506D01*
X145022232Y-107777000D01*
X141484289Y-107777000D01*
X140381000Y-106673711D01*
X140381000Y-106049477D01*
X144933000Y-106049477D01*
X144933000Y-106294523D01*
X144980806Y-106534861D01*
X145074582Y-106761255D01*
X145210722Y-106965004D01*
X145383996Y-107138278D01*
X145587745Y-107274418D01*
X145814139Y-107368194D01*
X146054477Y-107416000D01*
X146299523Y-107416000D01*
X146539861Y-107368194D01*
X146766255Y-107274418D01*
X146970004Y-107138278D01*
X147001282Y-107107000D01*
X153730705Y-107107000D01*
X153876102Y-107167226D01*
X154076061Y-107207000D01*
X154279939Y-107207000D01*
X154479898Y-107167226D01*
X154668256Y-107089205D01*
X154837774Y-106975937D01*
X154981937Y-106831774D01*
X155095205Y-106662256D01*
X155173226Y-106473898D01*
X155213000Y-106273939D01*
X155213000Y-106070061D01*
X155173226Y-105870102D01*
X155095205Y-105681744D01*
X154981937Y-105512226D01*
X154837774Y-105368063D01*
X154668256Y-105254795D01*
X154479898Y-105176774D01*
X154279939Y-105137000D01*
X154076061Y-105137000D01*
X153876102Y-105176774D01*
X153730705Y-105237000D01*
X147001282Y-105237000D01*
X146970004Y-105205722D01*
X146766255Y-105069582D01*
X146539861Y-104975806D01*
X146299523Y-104928000D01*
X146054477Y-104928000D01*
X145814139Y-104975806D01*
X145587745Y-105069582D01*
X145383996Y-105205722D01*
X145210722Y-105378996D01*
X145074582Y-105582745D01*
X144980806Y-105809139D01*
X144933000Y-106049477D01*
X140381000Y-106049477D01*
X140381000Y-104488203D01*
X145500402Y-104488203D01*
X145548804Y-104712703D01*
X145771710Y-104814493D01*
X146010190Y-104870839D01*
X146255080Y-104879578D01*
X146496970Y-104840373D01*
X146726564Y-104754732D01*
X146805196Y-104712703D01*
X146853598Y-104488203D01*
X146177000Y-103811605D01*
X145500402Y-104488203D01*
X140381000Y-104488203D01*
X140381000Y-103710080D01*
X144929422Y-103710080D01*
X144968627Y-103951970D01*
X145054268Y-104181564D01*
X145096297Y-104260196D01*
X145320797Y-104308598D01*
X145997395Y-103632000D01*
X146356605Y-103632000D01*
X147033203Y-104308598D01*
X147257703Y-104260196D01*
X147359493Y-104037290D01*
X147415839Y-103798810D01*
X147424578Y-103553920D01*
X147385373Y-103312030D01*
X147299732Y-103082436D01*
X147257703Y-103003804D01*
X147033203Y-102955402D01*
X146356605Y-103632000D01*
X145997395Y-103632000D01*
X145320797Y-102955402D01*
X145096297Y-103003804D01*
X144994507Y-103226710D01*
X144938161Y-103465190D01*
X144929422Y-103710080D01*
X140381000Y-103710080D01*
X140381000Y-102775797D01*
X145500402Y-102775797D01*
X146177000Y-103452395D01*
X146853598Y-102775797D01*
X146805196Y-102551297D01*
X146582290Y-102449507D01*
X146343810Y-102393161D01*
X146098920Y-102384422D01*
X145857030Y-102423627D01*
X145627436Y-102509268D01*
X145548804Y-102551297D01*
X145500402Y-102775797D01*
X140381000Y-102775797D01*
X140381000Y-99730843D01*
X151945262Y-99730843D01*
X152005330Y-99965121D01*
X152244630Y-100076518D01*
X152501063Y-100139091D01*
X152764776Y-100150433D01*
X153025635Y-100110110D01*
X153273615Y-100019670D01*
X153375670Y-99965121D01*
X153435738Y-99730843D01*
X152690500Y-98985605D01*
X151945262Y-99730843D01*
X140381000Y-99730843D01*
X140381000Y-98880276D01*
X151346067Y-98880276D01*
X151386390Y-99141135D01*
X151476830Y-99389115D01*
X151531379Y-99491170D01*
X151765657Y-99551238D01*
X152510895Y-98806000D01*
X152870105Y-98806000D01*
X153615343Y-99551238D01*
X153849621Y-99491170D01*
X153961018Y-99251870D01*
X154023591Y-98995437D01*
X154034933Y-98731724D01*
X153994610Y-98470865D01*
X153904170Y-98222885D01*
X153849621Y-98120830D01*
X153615343Y-98060762D01*
X152870105Y-98806000D01*
X152510895Y-98806000D01*
X151765657Y-98060762D01*
X151531379Y-98120830D01*
X151419982Y-98360130D01*
X151357409Y-98616563D01*
X151346067Y-98880276D01*
X140381000Y-98880276D01*
X140381000Y-97288289D01*
X146437290Y-91232000D01*
X148696692Y-91232000D01*
X148489222Y-91273269D01*
%TA.AperFunction,Conductor*%
D24*
G36*
X148489222Y-91273269D02*
G01*
X148265377Y-91365989D01*
X148063921Y-91500597D01*
X147892597Y-91671921D01*
X147757989Y-91873377D01*
X147665269Y-92097222D01*
X147618000Y-92334856D01*
X147618000Y-92577144D01*
X147665269Y-92814778D01*
X147757989Y-93038623D01*
X147892597Y-93240079D01*
X148063921Y-93411403D01*
X148265377Y-93546011D01*
X148489222Y-93638731D01*
X148726856Y-93686000D01*
X148969144Y-93686000D01*
X149206778Y-93638731D01*
X149430623Y-93546011D01*
X149632079Y-93411403D01*
X149652482Y-93391000D01*
X151033211Y-93391000D01*
X151347428Y-93705217D01*
X151347428Y-94431000D01*
X151359688Y-94555482D01*
X151395998Y-94675180D01*
X151454963Y-94785494D01*
X151534315Y-94882185D01*
X151631006Y-94961537D01*
X151741320Y-95020502D01*
X151861018Y-95056812D01*
X151985500Y-95069072D01*
X152078550Y-95069072D01*
X152055772Y-95078507D01*
X151836300Y-95225154D01*
X151730454Y-95331000D01*
X149652482Y-95331000D01*
X149632079Y-95310597D01*
X149430623Y-95175989D01*
X149206778Y-95083269D01*
X148969144Y-95036000D01*
X148726856Y-95036000D01*
X148489222Y-95083269D01*
X148265377Y-95175989D01*
X148063921Y-95310597D01*
X147892597Y-95481921D01*
X147757989Y-95683377D01*
X147665269Y-95907222D01*
X147618000Y-96144856D01*
X147618000Y-96387144D01*
X147665269Y-96624778D01*
X147757989Y-96848623D01*
X147892597Y-97050079D01*
X148063921Y-97221403D01*
X148265377Y-97356011D01*
X148489222Y-97448731D01*
X148726856Y-97496000D01*
X148969144Y-97496000D01*
X149206778Y-97448731D01*
X149430623Y-97356011D01*
X149632079Y-97221403D01*
X149652482Y-97201000D01*
X151730454Y-97201000D01*
X151836300Y-97306846D01*
X152055772Y-97453493D01*
X152258181Y-97537334D01*
X152107385Y-97592330D01*
X152005330Y-97646879D01*
X151945262Y-97881157D01*
X152690500Y-98626395D01*
X153435738Y-97881157D01*
X153375670Y-97646879D01*
X153136370Y-97535482D01*
X153130656Y-97534088D01*
X153325228Y-97453493D01*
X153544700Y-97306846D01*
X153731346Y-97120200D01*
X153877993Y-96900728D01*
X153979005Y-96656864D01*
X154030500Y-96397979D01*
X154030500Y-96134021D01*
X153979005Y-95875136D01*
X153877993Y-95631272D01*
X153731346Y-95411800D01*
X153544700Y-95225154D01*
X153325228Y-95078507D01*
X153302450Y-95069072D01*
X153395500Y-95069072D01*
X153519982Y-95056812D01*
X153639680Y-95020502D01*
X153749994Y-94961537D01*
X153846685Y-94882185D01*
X153926037Y-94785494D01*
X153985002Y-94675180D01*
X153989303Y-94661000D01*
X156882773Y-94661000D01*
X156816795Y-94759744D01*
X156738774Y-94948102D01*
X156699000Y-95148061D01*
X156699000Y-95351939D01*
X156738774Y-95551898D01*
X156799000Y-95697295D01*
X156799001Y-105089702D01*
X156738774Y-105235102D01*
X156699000Y-105435061D01*
X156699000Y-105638939D01*
X156738774Y-105838898D01*
X156816795Y-106027256D01*
X156930063Y-106196774D01*
X157074226Y-106340937D01*
X157132210Y-106379681D01*
X157212029Y-106445186D01*
X157374461Y-106532007D01*
X157550709Y-106585471D01*
X157734000Y-106603524D01*
X157917292Y-106585471D01*
X158093540Y-106532007D01*
X158255972Y-106445186D01*
X158335792Y-106379679D01*
X158393774Y-106340937D01*
X158537937Y-106196774D01*
X158651205Y-106027256D01*
X158729226Y-105838898D01*
X158769000Y-105638939D01*
X158769000Y-105435061D01*
X158729226Y-105235102D01*
X158669000Y-105089705D01*
X158669000Y-95697295D01*
X158729226Y-95551898D01*
X158731944Y-95538233D01*
X159807729Y-96614018D01*
X159805000Y-96627740D01*
X159805000Y-96920260D01*
X159862068Y-97207158D01*
X159974010Y-97477411D01*
X160136525Y-97720632D01*
X160343368Y-97927475D01*
X160517760Y-98044000D01*
X160343368Y-98160525D01*
X160136525Y-98367368D01*
X159974010Y-98610589D01*
X159862068Y-98880842D01*
X159805000Y-99167740D01*
X159805000Y-99460260D01*
X159862068Y-99747158D01*
X159974010Y-100017411D01*
X160136525Y-100260632D01*
X160343368Y-100467475D01*
X160517760Y-100584000D01*
X160343368Y-100700525D01*
X160136525Y-100907368D01*
X159974010Y-101150589D01*
X159862068Y-101420842D01*
X159805000Y-101707740D01*
X159805000Y-102000260D01*
X159862068Y-102287158D01*
X159974010Y-102557411D01*
X160136525Y-102800632D01*
X160343368Y-103007475D01*
X160517760Y-103124000D01*
X160343368Y-103240525D01*
X160136525Y-103447368D01*
X159974010Y-103690589D01*
X159862068Y-103960842D01*
X159805000Y-104247740D01*
X159805000Y-104540260D01*
X159862068Y-104827158D01*
X159974010Y-105097411D01*
X160136525Y-105340632D01*
X160343368Y-105547475D01*
X160517760Y-105664000D01*
X160343368Y-105780525D01*
X160136525Y-105987368D01*
X159974010Y-106230589D01*
X159862068Y-106500842D01*
X159805000Y-106787740D01*
X159805000Y-107080260D01*
X159862068Y-107367158D01*
X159974010Y-107637411D01*
X160136525Y-107880632D01*
X160343368Y-108087475D01*
X160517760Y-108204000D01*
X160343368Y-108320525D01*
X160136525Y-108527368D01*
X159974010Y-108770589D01*
X159862068Y-109040842D01*
X159805000Y-109327740D01*
X159805000Y-109620260D01*
X159862068Y-109907158D01*
X159974010Y-110177411D01*
X160136525Y-110420632D01*
X160343368Y-110627475D01*
X160517760Y-110744000D01*
X160343368Y-110860525D01*
X160136525Y-111067368D01*
X159974010Y-111310589D01*
X159862068Y-111580842D01*
X159805000Y-111867740D01*
X159805000Y-112160260D01*
X159862068Y-112447158D01*
X159974010Y-112717411D01*
X160136525Y-112960632D01*
X160343368Y-113167475D01*
X160517760Y-113284000D01*
X160343368Y-113400525D01*
X160136525Y-113607368D01*
X159974010Y-113850589D01*
X159862068Y-114120842D01*
X159805000Y-114407740D01*
X159805000Y-114700260D01*
X159862068Y-114987158D01*
X159974010Y-115257411D01*
X160136525Y-115500632D01*
X160343368Y-115707475D01*
X160517760Y-115824000D01*
X160343368Y-115940525D01*
X160136525Y-116147368D01*
X159974010Y-116390589D01*
X159862068Y-116660842D01*
X159805000Y-116947740D01*
X159805000Y-117240260D01*
X159862068Y-117527158D01*
X159974010Y-117797411D01*
X160136525Y-118040632D01*
X160343368Y-118247475D01*
X160525534Y-118369195D01*
X160408645Y-118438822D01*
X160192412Y-118633731D01*
X160018359Y-118867080D01*
X159893175Y-119129901D01*
X159848524Y-119277110D01*
X159969845Y-119507000D01*
X161163000Y-119507000D01*
X161163000Y-119487000D01*
X161417000Y-119487000D01*
X161417000Y-119507000D01*
X162610155Y-119507000D01*
X162731476Y-119277110D01*
X162686825Y-119129901D01*
X162561641Y-118867080D01*
X162387588Y-118633731D01*
X162171355Y-118438822D01*
X162054466Y-118369195D01*
X162236632Y-118247475D01*
X162443475Y-118040632D01*
X162605990Y-117797411D01*
X162717932Y-117527158D01*
X162775000Y-117240260D01*
X162775000Y-116947740D01*
X162717932Y-116660842D01*
X162605990Y-116390589D01*
X162443475Y-116147368D01*
X162236632Y-115940525D01*
X162062240Y-115824000D01*
X162236632Y-115707475D01*
X162443475Y-115500632D01*
X162605990Y-115257411D01*
X162717932Y-114987158D01*
X162775000Y-114700260D01*
X162775000Y-114407740D01*
X162717932Y-114120842D01*
X162605990Y-113850589D01*
X162443475Y-113607368D01*
X162236632Y-113400525D01*
X162062240Y-113284000D01*
X162236632Y-113167475D01*
X162443475Y-112960632D01*
X162605990Y-112717411D01*
X162717932Y-112447158D01*
X162775000Y-112160260D01*
X162775000Y-111867740D01*
X162717932Y-111580842D01*
X162605990Y-111310589D01*
X162443475Y-111067368D01*
X162236632Y-110860525D01*
X162062240Y-110744000D01*
X162236632Y-110627475D01*
X162443475Y-110420632D01*
X162605990Y-110177411D01*
X162717932Y-109907158D01*
X162775000Y-109620260D01*
X162775000Y-109327740D01*
X162717932Y-109040842D01*
X162605990Y-108770589D01*
X162443475Y-108527368D01*
X162236632Y-108320525D01*
X162062240Y-108204000D01*
X162236632Y-108087475D01*
X162443475Y-107880632D01*
X162605990Y-107637411D01*
X162717932Y-107367158D01*
X162775000Y-107080260D01*
X162775000Y-106787740D01*
X162717932Y-106500842D01*
X162605990Y-106230589D01*
X162443475Y-105987368D01*
X162236632Y-105780525D01*
X162062240Y-105664000D01*
X162236632Y-105547475D01*
X162443475Y-105340632D01*
X162605990Y-105097411D01*
X162717932Y-104827158D01*
X162775000Y-104540260D01*
X162775000Y-104247740D01*
X162717932Y-103960842D01*
X162605990Y-103690589D01*
X162443475Y-103447368D01*
X162236632Y-103240525D01*
X162062240Y-103124000D01*
X162236632Y-103007475D01*
X162443475Y-102800632D01*
X162605990Y-102557411D01*
X162717932Y-102287158D01*
X162775000Y-102000260D01*
X162775000Y-101707740D01*
X162717932Y-101420842D01*
X162605990Y-101150589D01*
X162443475Y-100907368D01*
X162236632Y-100700525D01*
X162062240Y-100584000D01*
X162236632Y-100467475D01*
X162443475Y-100260632D01*
X162605990Y-100017411D01*
X162717932Y-99747158D01*
X162775000Y-99460260D01*
X162775000Y-99167740D01*
X162717932Y-98880842D01*
X162605990Y-98610589D01*
X162443475Y-98367368D01*
X162236632Y-98160525D01*
X162062240Y-98044000D01*
X162236632Y-97927475D01*
X162443475Y-97720632D01*
X162605990Y-97477411D01*
X162717932Y-97207158D01*
X162775000Y-96920260D01*
X162775000Y-96627740D01*
X162717932Y-96340842D01*
X162605990Y-96070589D01*
X162443475Y-95827368D01*
X162236632Y-95620525D01*
X162062240Y-95504000D01*
X162236632Y-95387475D01*
X162443475Y-95180632D01*
X162605990Y-94937411D01*
X162717932Y-94667158D01*
X162775000Y-94380260D01*
X162775000Y-94087740D01*
X162772271Y-94074018D01*
X163830000Y-93016289D01*
X163830000Y-125931710D01*
X162772271Y-124873981D01*
X162775000Y-124860260D01*
X162775000Y-124567740D01*
X162717932Y-124280842D01*
X162605990Y-124010589D01*
X162443475Y-123767368D01*
X162236632Y-123560525D01*
X162062240Y-123444000D01*
X162236632Y-123327475D01*
X162443475Y-123120632D01*
X162605990Y-122877411D01*
X162717932Y-122607158D01*
X162775000Y-122320260D01*
X162775000Y-122027740D01*
X162717932Y-121740842D01*
X162605990Y-121470589D01*
X162443475Y-121227368D01*
X162236632Y-121020525D01*
X162054466Y-120898805D01*
X162171355Y-120829178D01*
X162387588Y-120634269D01*
X162561641Y-120400920D01*
X162686825Y-120138099D01*
X162731476Y-119990890D01*
X162610155Y-119761000D01*
X161417000Y-119761000D01*
X161417000Y-119781000D01*
X161163000Y-119781000D01*
X161163000Y-119761000D01*
X159969845Y-119761000D01*
X159848524Y-119990890D01*
X159893175Y-120138099D01*
X160018359Y-120400920D01*
X160192412Y-120634269D01*
X160408645Y-120829178D01*
X160525534Y-120898805D01*
X160343368Y-121020525D01*
X160136525Y-121227368D01*
X159974010Y-121470589D01*
X159862068Y-121740842D01*
X159825080Y-121926791D01*
X159050000Y-121151711D01*
X159050000Y-115125413D01*
X159054524Y-115079478D01*
X159036472Y-114896186D01*
X158998193Y-114770000D01*
X158983007Y-114719938D01*
X158896186Y-114557506D01*
X158779344Y-114415134D01*
X158743660Y-114385849D01*
X152441152Y-108083341D01*
X152411866Y-108047656D01*
X152269494Y-107930814D01*
X152107062Y-107843993D01*
X151930814Y-107790529D01*
X151793454Y-107777000D01*
X151747522Y-107772476D01*
X151701590Y-107777000D01*
X147331768Y-107777000D01*
X147316537Y-107748506D01*
X147237185Y-107651815D01*
X147140494Y-107572463D01*
X147030180Y-107513498D01*
X146910482Y-107477188D01*
X146786000Y-107464928D01*
X145568000Y-107464928D01*
X145443518Y-107477188D01*
X145323820Y-107513498D01*
X145213506Y-107572463D01*
X145116815Y-107651815D01*
X145037463Y-107748506D01*
X145022232Y-107777000D01*
X141484289Y-107777000D01*
X140381000Y-106673711D01*
X140381000Y-106049477D01*
X144933000Y-106049477D01*
X144933000Y-106294523D01*
X144980806Y-106534861D01*
X145074582Y-106761255D01*
X145210722Y-106965004D01*
X145383996Y-107138278D01*
X145587745Y-107274418D01*
X145814139Y-107368194D01*
X146054477Y-107416000D01*
X146299523Y-107416000D01*
X146539861Y-107368194D01*
X146766255Y-107274418D01*
X146970004Y-107138278D01*
X147001282Y-107107000D01*
X153730705Y-107107000D01*
X153876102Y-107167226D01*
X154076061Y-107207000D01*
X154279939Y-107207000D01*
X154479898Y-107167226D01*
X154668256Y-107089205D01*
X154837774Y-106975937D01*
X154981937Y-106831774D01*
X155095205Y-106662256D01*
X155173226Y-106473898D01*
X155213000Y-106273939D01*
X155213000Y-106070061D01*
X155173226Y-105870102D01*
X155095205Y-105681744D01*
X154981937Y-105512226D01*
X154837774Y-105368063D01*
X154668256Y-105254795D01*
X154479898Y-105176774D01*
X154279939Y-105137000D01*
X154076061Y-105137000D01*
X153876102Y-105176774D01*
X153730705Y-105237000D01*
X147001282Y-105237000D01*
X146970004Y-105205722D01*
X146766255Y-105069582D01*
X146539861Y-104975806D01*
X146299523Y-104928000D01*
X146054477Y-104928000D01*
X145814139Y-104975806D01*
X145587745Y-105069582D01*
X145383996Y-105205722D01*
X145210722Y-105378996D01*
X145074582Y-105582745D01*
X144980806Y-105809139D01*
X144933000Y-106049477D01*
X140381000Y-106049477D01*
X140381000Y-104488203D01*
X145500402Y-104488203D01*
X145548804Y-104712703D01*
X145771710Y-104814493D01*
X146010190Y-104870839D01*
X146255080Y-104879578D01*
X146496970Y-104840373D01*
X146726564Y-104754732D01*
X146805196Y-104712703D01*
X146853598Y-104488203D01*
X146177000Y-103811605D01*
X145500402Y-104488203D01*
X140381000Y-104488203D01*
X140381000Y-103710080D01*
X144929422Y-103710080D01*
X144968627Y-103951970D01*
X145054268Y-104181564D01*
X145096297Y-104260196D01*
X145320797Y-104308598D01*
X145997395Y-103632000D01*
X146356605Y-103632000D01*
X147033203Y-104308598D01*
X147257703Y-104260196D01*
X147359493Y-104037290D01*
X147415839Y-103798810D01*
X147424578Y-103553920D01*
X147385373Y-103312030D01*
X147299732Y-103082436D01*
X147257703Y-103003804D01*
X147033203Y-102955402D01*
X146356605Y-103632000D01*
X145997395Y-103632000D01*
X145320797Y-102955402D01*
X145096297Y-103003804D01*
X144994507Y-103226710D01*
X144938161Y-103465190D01*
X144929422Y-103710080D01*
X140381000Y-103710080D01*
X140381000Y-102775797D01*
X145500402Y-102775797D01*
X146177000Y-103452395D01*
X146853598Y-102775797D01*
X146805196Y-102551297D01*
X146582290Y-102449507D01*
X146343810Y-102393161D01*
X146098920Y-102384422D01*
X145857030Y-102423627D01*
X145627436Y-102509268D01*
X145548804Y-102551297D01*
X145500402Y-102775797D01*
X140381000Y-102775797D01*
X140381000Y-99730843D01*
X151945262Y-99730843D01*
X152005330Y-99965121D01*
X152244630Y-100076518D01*
X152501063Y-100139091D01*
X152764776Y-100150433D01*
X153025635Y-100110110D01*
X153273615Y-100019670D01*
X153375670Y-99965121D01*
X153435738Y-99730843D01*
X152690500Y-98985605D01*
X151945262Y-99730843D01*
X140381000Y-99730843D01*
X140381000Y-98880276D01*
X151346067Y-98880276D01*
X151386390Y-99141135D01*
X151476830Y-99389115D01*
X151531379Y-99491170D01*
X151765657Y-99551238D01*
X152510895Y-98806000D01*
X152870105Y-98806000D01*
X153615343Y-99551238D01*
X153849621Y-99491170D01*
X153961018Y-99251870D01*
X154023591Y-98995437D01*
X154034933Y-98731724D01*
X153994610Y-98470865D01*
X153904170Y-98222885D01*
X153849621Y-98120830D01*
X153615343Y-98060762D01*
X152870105Y-98806000D01*
X152510895Y-98806000D01*
X151765657Y-98060762D01*
X151531379Y-98120830D01*
X151419982Y-98360130D01*
X151357409Y-98616563D01*
X151346067Y-98880276D01*
X140381000Y-98880276D01*
X140381000Y-97288289D01*
X146437290Y-91232000D01*
X148696692Y-91232000D01*
X148489222Y-91273269D01*
G37*
%TD.AperFunction*%
%TD*%
M02*
