%TF.GenerationSoftware,KiCad,Pcbnew,(6.0.0)*%
%TF.CreationDate,2022-02-11T13:05:36-03:00*%
%TF.ProjectId,Placa Digital,506c6163-6120-4446-9967-6974616c2e6b,V01*%
%TF.SameCoordinates,Original*%
%TF.FileFunction,Soldermask,Bot*%
%TF.FilePolarity,Negative*%
%FSLAX46Y46*%
G04 Gerber Fmt 4.6, Leading zero omitted, Abs format (unit mm)*
G04 Created by KiCad (PCBNEW (6.0.0)) date 2022-02-11 13:05:36*
%MOMM*%
%LPD*%
G01*
G04 APERTURE LIST*
G04 Aperture macros list*
%AMRoundRect*
0 Rectangle with rounded corners*
0 $1 Rounding radius*
0 $2 $3 $4 $5 $6 $7 $8 $9 X,Y pos of 4 corners*
0 Add a 4 corners polygon primitive as box body*
4,1,4,$2,$3,$4,$5,$6,$7,$8,$9,$2,$3,0*
0 Add four circle primitives for the rounded corners*
1,1,$1+$1,$2,$3*
1,1,$1+$1,$4,$5*
1,1,$1+$1,$6,$7*
1,1,$1+$1,$8,$9*
0 Add four rect primitives between the rounded corners*
20,1,$1+$1,$2,$3,$4,$5,0*
20,1,$1+$1,$4,$5,$6,$7,0*
20,1,$1+$1,$6,$7,$8,$9,0*
20,1,$1+$1,$8,$9,$2,$3,0*%
G04 Aperture macros list end*
%ADD10C,1.291600*%
%ADD11RoundRect,0.050800X-0.749000X0.749000X-0.749000X-0.749000X0.749000X-0.749000X0.749000X0.749000X0*%
%ADD12C,1.599600*%
%ADD13C,0.801600*%
%ADD14C,4.501600*%
%ADD15RoundRect,0.050800X-0.705000X0.705000X-0.705000X-0.705000X0.705000X-0.705000X0.705000X0.705000X0*%
%ADD16C,1.511600*%
%ADD17RoundRect,0.050800X0.609000X-0.609000X0.609000X0.609000X-0.609000X0.609000X-0.609000X-0.609000X0*%
%ADD18C,1.319600*%
%ADD19RoundRect,0.050800X-0.850000X-0.850000X0.850000X-0.850000X0.850000X0.850000X-0.850000X0.850000X0*%
%ADD20O,1.801600X1.801600*%
%ADD21RoundRect,0.050800X0.705000X-0.705000X0.705000X0.705000X-0.705000X0.705000X-0.705000X-0.705000X0*%
%ADD22C,2.201600*%
%ADD23RoundRect,0.050800X-1.050000X-1.050000X1.050000X-1.050000X1.050000X1.050000X-1.050000X1.050000X0*%
%ADD24RoundRect,0.050800X0.850000X-0.850000X0.850000X0.850000X-0.850000X0.850000X-0.850000X-0.850000X0*%
%ADD25RoundRect,0.050800X0.850000X0.850000X-0.850000X0.850000X-0.850000X-0.850000X0.850000X-0.850000X0*%
G04 APERTURE END LIST*
D10*
%TO.C,R6*%
X157357000Y-112649000D03*
X146427000Y-112649000D03*
%TD*%
D11*
%TO.C,Buttom_2*%
X155412000Y-77649000D03*
D12*
X150912000Y-77649000D03*
X155412000Y-84149000D03*
X150912000Y-84149000D03*
%TD*%
D13*
%TO.C,H3*%
X166613726Y-133122274D03*
X165447000Y-135939000D03*
X166613726Y-135455726D03*
X167097000Y-134289000D03*
X163797000Y-134289000D03*
X164280274Y-133122274D03*
D14*
X165447000Y-134289000D03*
D13*
X164280274Y-135455726D03*
X165447000Y-132639000D03*
%TD*%
D11*
%TO.C,Buttom_1*%
X165572000Y-77649000D03*
D12*
X161072000Y-77649000D03*
X165572000Y-84149000D03*
X161072000Y-84149000D03*
%TD*%
D15*
%TO.C,Q2*%
X129449500Y-102489000D03*
D16*
X129449500Y-105029000D03*
X129449500Y-107569000D03*
%TD*%
D10*
%TO.C,R1*%
X142117000Y-112649000D03*
X131187000Y-112649000D03*
%TD*%
D13*
%TO.C,H4*%
X115447000Y-132639000D03*
X115447000Y-135939000D03*
X113797000Y-134289000D03*
X114280274Y-135455726D03*
X116613726Y-133122274D03*
X117097000Y-134289000D03*
D14*
X115447000Y-134289000D03*
D13*
X114280274Y-133122274D03*
X116613726Y-135455726D03*
%TD*%
D17*
%TO.C,U4*%
X125857000Y-118364000D03*
D18*
X125857000Y-115824000D03*
X125857000Y-113284000D03*
%TD*%
D10*
%TO.C,R3*%
X156722000Y-96774000D03*
X145792000Y-96774000D03*
%TD*%
D11*
%TO.C,Buttom_3*%
X145252000Y-77649000D03*
D12*
X140752000Y-77649000D03*
X145252000Y-84149000D03*
X140752000Y-84149000D03*
%TD*%
D10*
%TO.C,R5*%
X137037000Y-96774000D03*
X126107000Y-96774000D03*
%TD*%
D13*
%TO.C,H1*%
X116613726Y-65289000D03*
X117097000Y-64122274D03*
X114280274Y-62955548D03*
X116613726Y-62955548D03*
X114280274Y-65289000D03*
X115447000Y-65772274D03*
D14*
X115447000Y-64122274D03*
D13*
X115447000Y-62472274D03*
X113797000Y-64122274D03*
%TD*%
D10*
%TO.C,R2*%
X156722000Y-92329000D03*
X145792000Y-92329000D03*
%TD*%
%TO.C,R7*%
X137037000Y-92329000D03*
X126107000Y-92329000D03*
%TD*%
%TO.C,R4*%
X157357000Y-108839000D03*
X146427000Y-108839000D03*
%TD*%
D19*
%TO.C,U3*%
X115447000Y-75164000D03*
D20*
X115447000Y-77704000D03*
X115447000Y-80244000D03*
X115447000Y-82784000D03*
X115447000Y-85324000D03*
X115447000Y-87864000D03*
X115447000Y-90404000D03*
X115447000Y-92944000D03*
X115447000Y-95484000D03*
X115447000Y-98024000D03*
X115447000Y-100564000D03*
X115447000Y-103104000D03*
X115447000Y-105644000D03*
X115447000Y-108184000D03*
X115447000Y-110724000D03*
X115447000Y-113264000D03*
X115447000Y-115804000D03*
X115447000Y-118344000D03*
X115447000Y-120884000D03*
X115447000Y-123424000D03*
%TD*%
D21*
%TO.C,Q1*%
X138774500Y-107569000D03*
D16*
X138774500Y-105029000D03*
X138774500Y-102489000D03*
%TD*%
D22*
%TO.C,U2*%
X140462000Y-65024000D03*
D23*
X135462000Y-65024000D03*
D22*
X145462000Y-65024000D03*
%TD*%
D24*
%TO.C,U1*%
X136017000Y-127889000D03*
D20*
X138557000Y-127889000D03*
X141097000Y-127889000D03*
X143637000Y-127889000D03*
X146177000Y-127889000D03*
%TD*%
D13*
%TO.C,H2*%
X166930274Y-64289000D03*
X164113548Y-65455726D03*
X164113548Y-63122274D03*
X163630274Y-64289000D03*
X166447000Y-65455726D03*
D14*
X165280274Y-64289000D03*
D13*
X166447000Y-63122274D03*
X165280274Y-65939000D03*
X165280274Y-62639000D03*
%TD*%
D25*
%TO.C,J1*%
X162687000Y-111364000D03*
D20*
X162687000Y-108824000D03*
X162687000Y-106284000D03*
X162687000Y-103744000D03*
X162687000Y-101204000D03*
X162687000Y-98664000D03*
X162687000Y-96124000D03*
X162687000Y-93584000D03*
%TD*%
M02*
