%TF.GenerationSoftware,KiCad,Pcbnew,(5.1.10)-1*%
%TF.CreationDate,2021-12-13T23:16:41-03:00*%
%TF.ProjectId,Placa Digital,506c6163-6120-4446-9967-6974616c2e6b,V01*%
%TF.SameCoordinates,Original*%
%TF.FileFunction,Copper,L1,Top*%
%TF.FilePolarity,Positive*%
%FSLAX46Y46*%
G04 Gerber Fmt 4.6, Leading zero omitted, Abs format (unit mm)*
G04 Created by KiCad (PCBNEW (5.1.10)-1) date 2021-12-13 23:16:41*
%MOMM*%
%LPD*%
G01*
G04 APERTURE LIST*
%TA.AperFunction,ComponentPad*%
%ADD10C,1.410000*%
%TD*%
%TA.AperFunction,ComponentPad*%
%ADD11R,1.410000X1.410000*%
%TD*%
%TA.AperFunction,ComponentPad*%
%ADD12C,1.600000*%
%TD*%
%TA.AperFunction,ComponentPad*%
%ADD13R,1.600000X1.600000*%
%TD*%
%TA.AperFunction,ComponentPad*%
%ADD14O,1.700000X1.700000*%
%TD*%
%TA.AperFunction,ComponentPad*%
%ADD15R,1.700000X1.700000*%
%TD*%
%TA.AperFunction,ComponentPad*%
%ADD16C,1.498000*%
%TD*%
%TA.AperFunction,ComponentPad*%
%ADD17R,1.498000X1.498000*%
%TD*%
%TA.AperFunction,ComponentPad*%
%ADD18C,1.190000*%
%TD*%
%TA.AperFunction,ComponentPad*%
%ADD19C,1.218000*%
%TD*%
%TA.AperFunction,ComponentPad*%
%ADD20R,1.218000X1.218000*%
%TD*%
%TA.AperFunction,ViaPad*%
%ADD21C,0.800000*%
%TD*%
G04 APERTURE END LIST*
D10*
%TO.P,Q2,3*%
%TO.N,GND*%
X152563500Y-90043000D03*
%TO.P,Q2,2*%
%TO.N,Net-(Q2-Pad2)*%
X152563500Y-87503000D03*
D11*
%TO.P,Q2,1*%
%TO.N,Net-(Q2-Pad1)*%
X152563500Y-84963000D03*
%TD*%
D12*
%TO.P,U1,38*%
%TO.N,Net-(U1-Pad38)*%
X126467000Y-85725000D03*
%TO.P,U1,37*%
%TO.N,Net-(U1-Pad37)*%
X126467000Y-88265000D03*
%TO.P,U1,36*%
%TO.N,Net-(U1-Pad36)*%
X126467000Y-90805000D03*
%TO.P,U1,35*%
%TO.N,/fromMicroC_A6841ST1*%
X126467000Y-93345000D03*
%TO.P,U1,34*%
%TO.N,/fromMicroC_A6841SerialDataIN*%
X126467000Y-95885000D03*
%TO.P,U1,33*%
%TO.N,/fromMicroC_A6841CLK1*%
X126467000Y-98425000D03*
%TO.P,U1,32*%
%TO.N,/HMI/fromMicroC_DisplaySID*%
X126467000Y-100965000D03*
%TO.P,U1,31*%
%TO.N,/HMI/fromMicroC_DisplaySCLK*%
X126467000Y-103505000D03*
%TO.P,U1,30*%
%TO.N,/HMI/toMicroC_EncoderButton*%
X126467000Y-106045000D03*
%TO.P,U1,29*%
%TO.N,/HMI/toMicroC_EncoderSignalB*%
X126467000Y-108585000D03*
%TO.P,U1,28*%
%TO.N,/HMI/toMicroC_EncoderSignalA*%
X126467000Y-111125000D03*
%TO.P,U1,27*%
%TO.N,/fromMicroC_DACI2C_SDA*%
X126467000Y-113665000D03*
%TO.P,U1,26*%
%TO.N,GND*%
X126467000Y-116205000D03*
%TO.P,U1,25*%
%TO.N,/fromMicroC_DACI2C_SCL*%
X126467000Y-118745000D03*
%TO.P,U1,24*%
%TO.N,/toMicroC_OverVoltageSignal*%
X126467000Y-121285000D03*
%TO.P,U1,23*%
%TO.N,/HMI/toMicroC_Button3*%
X126467000Y-123825000D03*
%TO.P,U1,22*%
%TO.N,/HMI/toMicroC_Button2*%
X126467000Y-126365000D03*
%TO.P,U1,21*%
%TO.N,/HMI/toMicroC_Button1*%
X126467000Y-128905000D03*
%TO.P,U1,20*%
%TO.N,GND*%
X126467000Y-131445000D03*
%TO.P,U1,19*%
%TO.N,+5V*%
X103967000Y-131445000D03*
%TO.P,U1,18*%
%TO.N,/toMicroC_ADC_BUSY*%
X103967000Y-128905000D03*
%TO.P,U1,17*%
%TO.N,/fromMicroC_ADC_CONV*%
X103967000Y-126365000D03*
%TO.P,U1,16*%
%TO.N,/fromMicroC_ADC_RST*%
X103967000Y-123825000D03*
%TO.P,U1,15*%
%TO.N,/fromMicroC_ADC_RD*%
X103967000Y-121285000D03*
%TO.P,U1,14*%
%TO.N,GND*%
X103967000Y-118745000D03*
%TO.P,U1,13*%
%TO.N,/toMicroC_ADC_DB7*%
X103967000Y-116205000D03*
%TO.P,U1,12*%
%TO.N,/toMicroC_ADC_DB6*%
X103967000Y-113665000D03*
%TO.P,U1,11*%
%TO.N,/toMicroC_ADC_DB5*%
X103967000Y-111125000D03*
%TO.P,U1,10*%
%TO.N,/toMicroC_ADC_DB4*%
X103967000Y-108585000D03*
%TO.P,U1,9*%
%TO.N,/toMicroC_ADC_DB3*%
X103967000Y-106045000D03*
%TO.P,U1,8*%
%TO.N,/toMicroC_ADC_DB2*%
X103967000Y-103505000D03*
%TO.P,U1,7*%
%TO.N,/toMicroC_ADC_DB1*%
X103967000Y-100965000D03*
%TO.P,U1,6*%
%TO.N,/toMicroC_ADC_DB0*%
X103967000Y-98425000D03*
%TO.P,U1,5*%
%TO.N,Net-(U1-Pad5)*%
X103967000Y-95885000D03*
%TO.P,U1,4*%
%TO.N,Net-(U1-Pad4)*%
X103967000Y-93345000D03*
%TO.P,U1,3*%
%TO.N,Net-(U1-Pad3)*%
X103967000Y-90805000D03*
%TO.P,U1,2*%
%TO.N,Net-(U1-Pad2)*%
X103967000Y-88265000D03*
D13*
%TO.P,U1,1*%
%TO.N,Net-(U1-Pad1)*%
X103967000Y-85725000D03*
%TD*%
D14*
%TO.P,J3,3*%
%TO.N,+5V*%
X92837000Y-133350000D03*
%TO.P,J3,2*%
%TO.N,+3.3V*%
X95377000Y-133350000D03*
D15*
%TO.P,J3,1*%
%TO.N,GND*%
X97917000Y-133350000D03*
%TD*%
D14*
%TO.P,J2,8*%
%TO.N,/fromMicroC_A6841ST1*%
X89662000Y-76454000D03*
%TO.P,J2,7*%
%TO.N,/fromMicroC_A6841SerialDataIN*%
X89662000Y-78994000D03*
%TO.P,J2,6*%
%TO.N,/fromMicroC_A6841CLK1*%
X89662000Y-81534000D03*
%TO.P,J2,5*%
%TO.N,/fromMicroC_DACI2C_SDA*%
X89662000Y-84074000D03*
%TO.P,J2,4*%
%TO.N,/fromMicroC_DACI2C_SCL*%
X89662000Y-86614000D03*
%TO.P,J2,3*%
%TO.N,/fromMicroC_ADC_RD*%
X89662000Y-89154000D03*
%TO.P,J2,2*%
%TO.N,/fromMicroC_ADC_RST*%
X89662000Y-91694000D03*
D15*
%TO.P,J2,1*%
%TO.N,/fromMicroC_ADC_CONV*%
X89662000Y-94234000D03*
%TD*%
D14*
%TO.P,J1,10*%
%TO.N,/toMicroC_ADC_DB7*%
X96520000Y-121920000D03*
%TO.P,J1,9*%
%TO.N,/toMicroC_ADC_DB6*%
X96520000Y-119380000D03*
%TO.P,J1,8*%
%TO.N,/toMicroC_ADC_DB5*%
X96520000Y-116840000D03*
%TO.P,J1,7*%
%TO.N,/toMicroC_ADC_DB4*%
X96520000Y-114300000D03*
%TO.P,J1,6*%
%TO.N,/toMicroC_ADC_DB3*%
X96520000Y-111760000D03*
%TO.P,J1,5*%
%TO.N,/toMicroC_ADC_DB2*%
X96520000Y-109220000D03*
%TO.P,J1,4*%
%TO.N,/toMicroC_ADC_DB1*%
X96520000Y-106680000D03*
%TO.P,J1,3*%
%TO.N,/toMicroC_ADC_DB0*%
X96520000Y-104140000D03*
%TO.P,J1,2*%
%TO.N,/toMicroC_ADC_BUSY*%
X96520000Y-101600000D03*
D15*
%TO.P,J1,1*%
%TO.N,/toMicroC_OverVoltageSignal*%
X96520000Y-99060000D03*
%TD*%
D10*
%TO.P,Q5,3*%
%TO.N,GND*%
X152690500Y-98806000D03*
%TO.P,Q5,2*%
%TO.N,Net-(Q5-Pad2)*%
X152690500Y-96266000D03*
D11*
%TO.P,Q5,1*%
%TO.N,Net-(Q5-Pad1)*%
X152690500Y-93726000D03*
%TD*%
D16*
%TO.P,Buttom_3,4*%
%TO.N,/HMI/toMicroC_Button3*%
X148896000Y-114209000D03*
%TO.P,Buttom_3,2*%
%TO.N,+3.3V*%
X155396000Y-114209000D03*
%TO.P,Buttom_3,3*%
%TO.N,/HMI/toMicroC_Button3*%
X148896000Y-118709000D03*
D17*
%TO.P,Buttom_3,1*%
%TO.N,+3.3V*%
X155396000Y-118709000D03*
%TD*%
D16*
%TO.P,Buttom_2,4*%
%TO.N,/HMI/toMicroC_Button2*%
X148896000Y-121702000D03*
%TO.P,Buttom_2,2*%
%TO.N,+3.3V*%
X155396000Y-121702000D03*
%TO.P,Buttom_2,3*%
%TO.N,/HMI/toMicroC_Button2*%
X148896000Y-126202000D03*
D17*
%TO.P,Buttom_2,1*%
%TO.N,+3.3V*%
X155396000Y-126202000D03*
%TD*%
D16*
%TO.P,Buttom_1,4*%
%TO.N,/HMI/toMicroC_Button1*%
X148896000Y-128941000D03*
%TO.P,Buttom_1,2*%
%TO.N,+3.3V*%
X155396000Y-128941000D03*
%TO.P,Buttom_1,3*%
%TO.N,/HMI/toMicroC_Button1*%
X148896000Y-133441000D03*
D17*
%TO.P,Buttom_1,1*%
%TO.N,+3.3V*%
X155396000Y-133441000D03*
%TD*%
D18*
%TO.P,R50,2*%
%TO.N,Net-(Q2-Pad1)*%
X148721000Y-83933000D03*
%TO.P,R50,1*%
%TO.N,+5V*%
X137791000Y-83933000D03*
%TD*%
%TO.P,R46,2*%
%TO.N,Net-(Q5-Pad1)*%
X148848000Y-92456000D03*
%TO.P,R46,1*%
%TO.N,+5V*%
X137918000Y-92456000D03*
%TD*%
D14*
%TO.P,U2,5*%
%TO.N,+3.3V*%
X133985000Y-103505000D03*
%TO.P,U2,4*%
%TO.N,/HMI/toMicroC_EncoderButton*%
X133985000Y-106045000D03*
%TO.P,U2,3*%
%TO.N,/HMI/toMicroC_EncoderSignalB*%
X133985000Y-108585000D03*
%TO.P,U2,2*%
%TO.N,/HMI/toMicroC_EncoderSignalA*%
X133985000Y-111125000D03*
D15*
%TO.P,U2,1*%
%TO.N,GND*%
X133985000Y-113665000D03*
%TD*%
D14*
%TO.P,U3,20*%
%TO.N,GND*%
X161290000Y-132334000D03*
%TO.P,U3,19*%
%TO.N,+3.3V*%
X161290000Y-129794000D03*
%TO.P,U3,18*%
%TO.N,Net-(U3-Pad18)*%
X161290000Y-127254000D03*
%TO.P,U3,17*%
%TO.N,+5V*%
X161290000Y-124714000D03*
%TO.P,U3,16*%
%TO.N,Net-(U3-Pad16)*%
X161290000Y-122174000D03*
%TO.P,U3,15*%
%TO.N,GND*%
X161290000Y-119634000D03*
%TO.P,U3,14*%
%TO.N,Net-(U3-Pad14)*%
X161290000Y-117094000D03*
%TO.P,U3,13*%
%TO.N,Net-(U3-Pad13)*%
X161290000Y-114554000D03*
%TO.P,U3,12*%
%TO.N,Net-(U3-Pad12)*%
X161290000Y-112014000D03*
%TO.P,U3,11*%
%TO.N,Net-(U3-Pad11)*%
X161290000Y-109474000D03*
%TO.P,U3,10*%
%TO.N,Net-(U3-Pad10)*%
X161290000Y-106934000D03*
%TO.P,U3,9*%
%TO.N,Net-(U3-Pad9)*%
X161290000Y-104394000D03*
%TO.P,U3,8*%
%TO.N,Net-(U3-Pad8)*%
X161290000Y-101854000D03*
%TO.P,U3,7*%
%TO.N,Net-(U3-Pad7)*%
X161290000Y-99314000D03*
%TO.P,U3,6*%
%TO.N,Net-(Q5-Pad1)*%
X161290000Y-96774000D03*
%TO.P,U3,5*%
%TO.N,Net-(Q2-Pad1)*%
X161290000Y-94234000D03*
%TO.P,U3,4*%
%TO.N,+5V*%
X161290000Y-91694000D03*
%TO.P,U3,3*%
%TO.N,Net-(U3-Pad3)*%
X161290000Y-89154000D03*
%TO.P,U3,2*%
%TO.N,+5V*%
X161290000Y-86614000D03*
D15*
%TO.P,U3,1*%
%TO.N,GND*%
X161290000Y-84074000D03*
%TD*%
D19*
%TO.P,U31,3*%
%TO.N,GND*%
X146177000Y-103632000D03*
%TO.P,U31,2*%
%TO.N,Net-(U3-Pad3)*%
X146177000Y-106172000D03*
D20*
%TO.P,U31,1*%
%TO.N,+5V*%
X146177000Y-108712000D03*
%TD*%
D18*
%TO.P,R51,2*%
%TO.N,/HMI/fromMicroC_DisplaySID*%
X137791000Y-87503000D03*
%TO.P,R51,1*%
%TO.N,Net-(Q2-Pad2)*%
X148721000Y-87503000D03*
%TD*%
%TO.P,R47,2*%
%TO.N,/HMI/fromMicroC_DisplaySCLK*%
X137918000Y-96266000D03*
%TO.P,R47,1*%
%TO.N,Net-(Q5-Pad2)*%
X148848000Y-96266000D03*
%TD*%
%TO.P,R49,2*%
%TO.N,GND*%
X136013000Y-118491000D03*
%TO.P,R49,1*%
%TO.N,/HMI/toMicroC_Button3*%
X146943000Y-118491000D03*
%TD*%
%TO.P,R48,2*%
%TO.N,GND*%
X136013000Y-125857000D03*
%TO.P,R48,1*%
%TO.N,/HMI/toMicroC_Button2*%
X146943000Y-125857000D03*
%TD*%
%TO.P,R53,2*%
%TO.N,GND*%
X136013000Y-133096000D03*
%TO.P,R53,1*%
%TO.N,/HMI/toMicroC_Button1*%
X146943000Y-133096000D03*
%TD*%
D21*
%TO.N,*%
X157734000Y-105537000D03*
X157734000Y-95250000D03*
%TO.N,/fromMicroC_DACI2C_SCL*%
X121031000Y-116967000D03*
X121031000Y-120142000D03*
%TO.N,/toMicroC_OverVoltageSignal*%
X108331000Y-117348000D03*
X108331000Y-120396000D03*
%TO.N,/toMicroC_ADC_BUSY*%
X92075000Y-124968000D03*
X92075000Y-129032000D03*
%TO.N,Net-(U3-Pad3)*%
X154178000Y-106172000D03*
X157861000Y-90551000D03*
%TO.N,GND*%
X140843000Y-106680000D03*
X140716000Y-112268000D03*
%TD*%
M02*
